<svg xmlns="http://www.w3.org/2000/svg" version="1.0" viewBox="0 0 7680 4320"><path d="M4784 2239.1c-2.5.5-16.9 1.3-32 1.8-34.7 1.2-37.4 1.8-61.8 14-15.2 7.6-20.1 10.7-30.6 19.1-6.9 5.5-18.1 15.5-24.8 22.3-12.2 12.3-32.7 29.1-40.1 32.9-2.1 1-7.2 2.8-11.2 3.8-4.3 1.1-12.6 4.6-19.8 8.4-14.1 7.5-20.5 9.9-32 12.1-5.8 1.1-10.1 2.7-15.6 5.9-13.2 7.6-23.7 12.5-31.3 14.6-7.9 2.2-14.7 6.3-28.8 17.8-6.9 5.5-10 9-16.3 18.3-6.1 9-7.8 12.4-8.4 16.2-.4 3.7-.2 5.1.8 5.8 1.1.7 1.1.9-.3.9-2.3 0-2.3.9-.1 2.6 1 .7 1.4 1.6.9 2.1-.5.4-1.1.2-1.3-.5-.6-1.7-2-1.5-2.7.3-.4 1 .2 1.9 1.7 2.5 1.2.5 1.6.9 1 .9-.7.1-1.6 1.9-1.9 4.1-.4 2.2-1 4-1.5 4s-.9.6-.9 1.4-.5 1.6-1.2 1.8c-.7.3-1.1 2.8-1 7.1.1 5.3-.2 6.7-1.3 6.7-.8 0-1.5.4-1.5.9 0 .6-3.1 1.3-7 1.7-3.8.3-7 1-7 1.4s-2.8 1-6.2 1.4c-3.4.3-6.7 1.1-7.2 1.6-.6.6-2 1-3.3 1s-2.3.4-2.3.9-1.8 1.1-4 1.5c-2.2.3-4 1-4 1.5s-.8 1.1-1.7 1.5c-1 .3-3.3 1.5-5.1 2.6-1.9 1.1-5.5 2.3-8 2.7-2.6.3-4.9 1-5.2 1.4-.3.5-3.4.9-6.9 1-4.2.1-6.5.6-6.8 1.6-.3.7-1.5 1.3-2.8 1.3-1.2 0-2.8.7-3.5 1.5s-2.3 1.5-3.5 1.5c-1.3 0-2.5.6-2.8 1.4s-1.5 1.2-3.1.9c-4.1-.8-7.6.5-7.6 2.7 0 1.8.7 2 6 2 4.1 0 6-.4 6-1.3s.2-.9.8.1c1.2 1.8 17.2 1.8 18.3 0 .7-1.1 1.1-1 1.9.2 1.3 2.1 18.6 2.2 19.9.1.7-1.1 1-1.1 1.5 0s.7 1.1 1.2.1c.3-.6 1.9-1.2 3.5-1.2 2.2 0 2.9.5 2.9 1.9 0 1-.7 2.4-1.5 3.1s-1.5 1.8-1.5 2.4-1.8 1.1-4.5 1.1c-3.6 0-4.5-.3-4.5-1.8 0-.9-.4-1.7-1-1.7-.5 0-1 .7-1 1.5 0 1.7-2.6 2.1-3.2.5-.1-.5-1.6-1.1-3.3-1.3-1.6-.3-2.4-.2-1.7 0 .6.2 1.2.8 1.2 1.1 0 .4 1.5 1.3 3.3 2 1.7.7 4.6 1.9 6.2 2.7 2.9 1.3 14.5 2.6 22.9 2.6 2.2-.1 4.5.4 5.3 1 .7.6 2.2.9 3.3.6s2.6 0 3.3.7 2.6 1.7 4.2 2.3c2.8 1 2.5 1.1-3.3 1.4-5.2.3-6.2.1-6.2-1.2 0-3.3-7.6-3.5-10.7-.3-2.4 2.4-1.4 3.4 3.5 3.3 7.1-.3 12.9.2 11.2.8-3 1.2-4.1 4.6-1.2 4.1 1.3-.2 1.6.3 1.4 2.1-.2 1.3.2 2.7.8 3.1 1.4.9-3.7 7.9-7.7 10.5-3.7 2.4-2.8 4.2 3.5 6.6 4.8 1.8 7.9 2.2 19.7 2.3 14 .1 14 .1 23.4-3.7 7.7-3.1 11.7-4 23-5.2 7.5-.9 14.7-1.8 16.1-2 2-.4 3 .3 5.5 3.7 1.7 2.3 5.7 6.9 9 10.3 7.2 7.4 14.3 10.5 23.9 10.6 3.3.1 8 .3 10.4.6 4.1.4 4.4.7 6.7 6 1.6 3.5 5.1 8.2 9.7 13 8.3 8.5 13.9 12.7 20 14.9 6.9 2.4 23.6 4.3 29.3 3.4 7.7-1.3 19.4-1.1 37 .6 8.8.8 20.5 1.9 26 2.5 5.5.5 20.6 1.2 33.5 1.5l23.5.6 4.6 4.3c2.5 2.4 6.4 5.2 8.5 6.3 5.1 2.6 30.9 9.2 35.9 9.2h2.5v-34.7l5.3-2.1c2.8-1.1 8.8-3.6 13.2-5.6l8-3.5.3-171.1.2-171-5.7.1c-3.2.1-7.8.5-10.3 1m-452.3 258.6c-.4.3-1 .3-1.4 0-.3-.4 0-.7.7-.7s1 .3.7.7m54.6 11c-.7.2-1.9.2-2.5 0-.7-.3-.2-.5 1.2-.5s1.9.2 1.3.5m29.4 13c-.4.3-.7 0-.7-.7s.3-1 .7-.7c.3.4.3 1 0 1.4m-5 1c-.4.3-.7 0-.7-.7s.3-1 .7-.7c.3.4.3 1 0 1.4M4358 2437c0 .7.3 1 .7.7.3-.4.3-1 0-1.4-.4-.3-.7 0-.7.7m3 3c0 .5.7 1 1.5 1s1.5-.5 1.5-1c0-.6-.7-1-1.5-1s-1.5.4-1.5 1"/><path d="M4425.2 2443.1c-1.7 2.7-1.1 3.3 1.4 1.5 1.3-1 1.6-1.8.9-2.5s-1.5-.4-2.3 1m-1005.7 7.9c-.3.5-.1 1 .4 1 .6 0 1.1-.5 1.1-1 0-.6-.2-1-.4-1-.3 0-.8.4-1.1 1m963.5 2c0 .5.5 1 1.1 1 .5 0 .7-.5.4-1-.3-.6-.8-1-1.1-1-.2 0-.4.4-.4 1m-14 1.5c0 .3.2.5.5.5s.5-.2.5-.5-.2-.5-.5-.5-.5.2-.5.5m-955.7 8.2c.4.3 1 .3 1.4 0 .3-.4 0-.7-.7-.7s-1 .3-.7.7m914 11c.4.3 1 .3 1.4 0 .3-.4 0-.7-.7-.7s-1 .3-.7.7m-9 11c.4.3 1 .3 1.4 0 .3-.4 0-.7-.7-.7s-1 .3-.7.7m21.7 1.3c0 .5-2 1-4.5 1s-4.5.4-4.5 1c0 1.6 8.9 1.2 10.6-.4 1.8-1.9 1.8-2.6-.1-2.6-.8 0-1.5.4-1.5 1m-24 11c0 .5 1.1 1 2.5 1s2.5-.5 2.5-1c0-.6-1.1-1-2.5-1s-2.5.4-2.5 1m35 5c0 .5 2.3 1 5 1 2.8 0 5-.5 5-1 0-.6-2.2-1-5-1-2.7 0-5 .4-5 1m28.6 13c.6.6 2.1.6 3.9.1 3-.9 3-.9-.9-1-2.6-.1-3.7.2-3 .9m20.4 7c0 .5-.7 1-1.5 1s-1.5.4-1.5 1c0 .5.9 1 2.1 1 2.8 0 6.1-1.9 5.4-3.1-.8-1.2-4.5-1.2-4.5.1m2.2 4.1c.5 1.7 4.8 2.5 4.8 1 0-.6-.4-1.1-.9-1.1s-1.7-.3-2.7-.7c-1.2-.4-1.5-.2-1.2.8m-7.8 1.5c.3.9.6 1.8.6 2s1.4.4 3 .4c1.7 0 3-.5 3-1 0-.6-.9-1-2-1s-2-.5-2-1c0-.6-.7-1-1.6-1-1.1 0-1.4.5-1 1.6m8.6 4.4c0 .5.9 1 2 1s2-.5 2-1c0-.6-.9-1-2-1s-2 .4-2 1m-44 3c0 .5.5 1 1 1 .6 0 1-.5 1-1 0-.6-.4-1-1-1-.5 0-1 .4-1 1m44 0c0 .5.5 1 1 1 .6 0 1-.5 1-1 0-.6-.4-1-1-1-.5 0-1 .4-1 1"/></svg>