<svg xmlns="http://www.w3.org/2000/svg" version="1.0" viewBox="0 0 7680 4320"><path d="M4797 2202c-2.7 2-2.6 2.4.8 3.4 1.9.7 2.2.4 2.2-2.3 0-3.6.2-3.6-3-1.1m.3 211c-1.3.5-4.9 2.8-8 5.2-4.6 3.4-6.7 4.3-10.3 4.4-2.5.1-4.8.3-5.1.3-.3.1-1.1 1.1-1.7 2.3-.6 1.3-1.1 1.7-1.1 1-.1-1.7-6.2-1.5-8.6.4-1.4 1-3.1 1.3-5.7.9-3.1-.6-3.8-.4-3.8.9 0 .9-.4 1.6-1 1.6-.5 0-1 1.1-1 2.4 0 1.7-.7 2.6-2.5 3-1.4.4-2.5 1.1-2.5 1.6s-.6.7-1.4.4-2.3.3-3.2 1.5c-1.3 1.5-2.5 1.8-4.6 1.4-1.8-.3-4.4.1-6.9 1.3-3 1.3-4.5 1.5-5.7.7-2.7-1.6-4.2-.4-4.8 3.7-.6 3.5-1 3.9-4.9 5-2.4.7-4.8.9-5.4.6-.6-.4-2.7.2-4.8 1.2-2.1 1.1-8.1 2.5-13.3 3.2-8.2 1.2-9.9 1.7-12.2 4.2-1.4 1.5-3 2.8-3.5 2.8-.4 0-1.6-1.8-2.5-4-2.1-5-4.7-5.2-11.7-.9-3.7 2.3-7.1 3.4-13 4.3-7.2 1-8.4 1.5-11.8 4.8-5.6 5.5-13.5 8.8-20.9 8.8-5.6 0-6.4.3-11.8 4.4-5.1 4-10.3 6.4-17.8 8-1.9.4-2.8 1.4-3.3 3.6-.5 2.1-1.4 3.2-3.1 3.6-1.3.3-2.4 1-2.4 1.4 0 .5-2 1.2-4.5 1.6-2.5.3-4.5 1-4.5 1.5s-.5.9-1.1.9c-.5 0-3.7 1.3-7.1 3-3.3 1.6-6.9 3-7.9 3s-1.9.4-1.9 1c0 .5-.9 1-1.9 1-1.1 0-2.6.7-3.5 1.5-.8.8-2.2 1.5-3.1 1.5s-2.3.7-3.1 1.5c-.9.8-2.4 1.5-3.5 1.5-1 0-1.9.5-1.9 1.2s-1.9-.7-4.3-3c-4-4-4.6-4.2-10-4.2-5.9 0-10.3 1.6-12.7 4.5-2.1 2.5-10.3 6.4-15.2 7.1-6.1.9-7.1 1.7-10.8 7.4-2.4 3.8-3.7 4.9-4.9 4.4-4-1.6-14.9-1.6-20.7.1-6.3 1.8-15 6.7-17.3 9.9-1.3 1.7-2.1 1.8-8.5 1-15.8-1.9-25.1-.1-34.5 6.5-4.1 2.9-29.2 10.4-49.1 14.6-9.6 2-24 5.4-32 7.5s-16.1 4.1-18 4.5c-5.9 1.1-15.8 4.5-32.7 11.2-16.1 6.4-16.4 6.4-29.5 7.3-10.7.7-15.1 1.5-22.1 3.9-5.5 1.9-10.1 2.9-12 2.6-2.7-.4-2.8-.4-.7.3l2.5.8-2.5.7c-1.4.3-2.6.2-2.8-.3-.5-1.5-2.2-1.2-2.2.4 0 2-22.2 7.5-27.7 6.9-2.8-.3-4.3-.1-4.3.6 0 .6-1.3 1.1-3 1.1-2.2 0-3 .5-3 1.7 0 1.5-.2 1.5-.9.4-.8-1.2-1.2-1.2-2.5.1-.9 1-2.4 1.4-3.6 1.1-1.3-.4-2.6.1-3.4 1.2-.9 1.3-2.6 1.7-7.1 1.6-3.3 0-6.2.5-6.6 1.1s-3.7 1.2-7.4 1.3c-3.7.2-7 .8-7.4 1.3-1.2 2-6 3.1-11.1 2.5-3.4-.4-5-.2-5 .6 0 .6-.7 1.1-1.5 1.1-1.8 0-2 1.6-.2 2.4.6.3.2.3-1 0-1.8-.4-2.3-.1-2.3 1.3 0 1.5-.2 1.6-1 .3-.7-1.1-1.2-1.2-1.8-.3-.4.6-3.1 1.5-6 1.9-5 .6-7.3 2.4-3.1 2.4 1.2 0 1.7.4 1.4 1.1-.4.6-1.3.8-2.1.5s-1.4-.1-1.4.4c0 .6-.7 1-1.5 1s-1.5-.7-1.5-1.5c0-1.8-3.9-2-4.1-.3-.1.7-.2 2-.3 2.8-.2 2.1-4 2.4-5.6.5-1.4-1.6-5-2.1-5-.6 0 .5-1.3 1.2-3 1.6-1.6.4-3 1.1-3 1.6s-1.1.9-2.5.9-2.5.5-2.5 1q0 1.05-2.1 0c-1.6-.9-3.4-.7-8.2.9-3.3 1.2-7.6 2.1-9.4 2.1s-7 1.3-11.6 2.8c-4.5 1.6-8.8 2.7-9.4 2.5-.7-.3-1.3 0-1.3.6s-1.9 1.1-4.5 1.1c-2.5 0-4.5.3-4.5.8 0 .4-1.7.6-3.8.4-2.2-.2-5.8.5-8.9 1.7-2.9 1.1-8.1 2.3-11.5 2.6s-6.5 1-6.8 1.4c-.3.5-2.6 1.2-5.2 1.6-2.7.4-4.8 1.1-4.8 1.6s-3.4.9-7.5.9-7.5.4-7.5.9.8 1.1 1.8 1.3c.9.2-1 1-4.2 1.8-4.6 1.1-6.1 1.1-6.4.2-.4-1.4-4.2-1.6-4.2-.2 0 .5.8 1 1.8 1.1 1.4 0 1.4.2-.3.8-1.1.5-2.6.6-3.3.3-.7-.2-2.3 0-3.5.6s-6.9 2-12.6 3.1-12.9 3.2-16 4.7c-7 3.3-28.5 8.7-28.9 7.4-.2-.6-1.3-1-2.5-1-1.8 0-1.9.2-.7 1 2.1 1.3.5 2.4-7 4.4-3.6 1-7.4 2.2-8.5 2.6-2.6 1.1-6.1 2.1-8.8 2.5-1.2.2-5.3 1.3-9.2 2.4l-7 2h487.3l487.2.1v-144c0-79.2-.1-144-.2-143.9-.2 0-1.3.4-2.5.9m-1377.8 38c-.3.5-.1 1 .4 1 .6 0 1.1-.5 1.1-1 0-.6-.2-1-.4-1-.3 0-.8.4-1.1 1m1161.5 19c0 .5.7 1 1.5 1s1.5-.5 1.5-1c0-.6-.7-1-1.5-1s-1.5.4-1.5 1"/><path d="M4068 2636.5c0 .8.6 1.5 1.4 1.5 2.2 0 2.8-1.7 1-2.4-2.2-.9-2.4-.8-2.4.9m-192.5 45.5c-.3.5.3 1 1.4 1 1.2 0 2.1-.5 2.1-1 0-.6-.6-1-1.4-1s-1.8.4-2.1 1m-40.5 11c-2.4.8-2.3.8.8.9 1.7.1 3.2-.4 3.2-.9 0-1.1-.5-1.1-4 0"/></svg>