<svg xmlns="http://www.w3.org/2000/svg" version="1.0" viewBox="0 0 7680 4320"><path d="M3803.8 2090.5c-.3.3-8 .9-17 1.2-8.9.2-19.2 1.1-22.8 1.9-17.1 3.7-21.8 4.3-39 4.9-37.3 1.3-54.8 2.4-69.5 4.4-8.2 1.1-18.3 2.1-22.2 2.3-4 .2-7.3.6-7.3.9 0 .7-28.3.8-29.5.1-1.1-.7-2.2-.9-8.4-1.7-2.5-.4-4.8-.7-5.2-.8s-.7.2-.8.8c-.1.5.9 1.3 2.2 1.6 6.5 1.8 12 2.9 14.5 2.9l2.7.1-2.7 2c-1.6 1.2-2.8 3-2.8 4.3 0 5.1 5.7 7 26.5 8.6 6.1.5 13.8 1.4 17.3 1.9 3.4.6 13.1 1.3 21.5 1.5 8.3.2 16.8.9 18.7 1.5 4.9 1.5 8 1.4 10.1-.5 1.6-1.4 2.5-1.5 6.3-.5 2.5.6 6 1.2 7.8 1.2 2.3.1 2.6.3 1.1.6-1.3.2-2.3.9-2.3 1.5s2.4.9 6.4.6c3.9-.2 6.2 0 5.9.6-.3.5-.1.6.6.2 1.9-1.2 10-1.6 10.6-.6.4.6 1.1.7 1.8.3 1.2-.7 4.8-.9 68.7-2.3 25.6-.5 57.1-1 70-.9 12.9 0 24.6 0 26-.1s17.6-.2 36-.3c32.5-.2 43.6-1 42.4-2.8-.3-.5 1.1-.9 3-.9 2 0 3.6-.5 3.6-1.1 0-1.5-6.4-3.9-8.8-3.2-1.2.3-2.9 0-3.7-.7s-2.5-1-3.8-.6c-1.3.3-2.7.3-3.1-.1-.8-.8-2.5-1-16-1.7-6-.3-12.4-1-14.3-1.7-1.9-.6-3.7-.9-3.9-.6-.3.2-2.2.1-4.2-.4s-5.4-1.2-7.5-1.5-5-.9-6.5-1.5-2.8-1-2.9-1c-.2 0-2-.6-4-1.3-2.1-.7-6.5-1.1-9.8-1-3.3.2-7.6-.1-9.5-.6s-5-1.2-6.8-1.5c-4.3-.7-12.4-3.5-13.9-4.7-.7-.6-1.3-.8-1.3-.4 0 .3-1.6 0-3.5-.8s-3.5-1.3-3.5-1c0 .2-2.1-.6-4.7-2-7.6-3.8-19.3-6.5-31-7.2-5.9-.3-11.1-.3-11.5.1m-199.8 20c0 .3-.2.5-.5.5s-.5-.2-.5-.5.2-.5.5-.5.5.2.5.5m352 14.5c-.8.5-4.4.9-8 .8l-6.5-.2 7-.6c3.9-.4 7.5-.7 8-.8.6-.1.3.3-.5.8m5-.5c0 .3-.2.5-.5.5s-.5-.2-.5-.5.2-.5.5-.5.5.2.5.5m-388.5-21.5c.3.5 1 1 1.6 1 .5 0 .9-.5.9-1 0-.6-.7-1-1.6-1-.8 0-1.2.4-.9 1m4.1 1.1c.3.5 1.2.9 2.1.9 1.9 0 .9-1.3-1.2-1.6-.8-.1-1.3.2-.9.7m402.4 19.4c0 .3.2.5.5.5s.5-.2.5-.5-.2-.5-.5-.5-.5.2-.5.5"/><path d="M3915 2129.5c0 .3.2.5.5.5s.5-.2.5-.5-.2-.5-.5-.5-.5.2-.5.5m-191 3c0 .3.2.5.5.5s.5-.2.5-.5-.2-.5-.5-.5-.5.2-.5.5m55 1c0 .3.2.5.5.5s.5-.2.5-.5-.2-.5-.5-.5-.5.2-.5.5m121 2c0 .3.2.5.5.5s.5-.2.5-.5-.2-.5-.5-.5-.5.2-.5.5m3 0c0 .3.2.5.5.5s.5-.2.5-.5-.2-.5-.5-.5-.5.2-.5.5m22 0c0 .3.2.5.5.5s.5-.2.5-.5-.2-.5-.5-.5-.5.2-.5.5m2.3.2c.4.3 1 .3 1.4 0 .3-.4 0-.7-.7-.7s-1 .3-.7.7m3.7-.2c0 .3.2.5.5.5s.5-.2.5-.5-.2-.5-.5-.5-.5.2-.5.5m-16 1c0 .3.2.5.5.5s.5-.2.5-.5-.2-.5-.5-.5-.5.2-.5.5m18 1.5c0 .7.3 1 .7.7.3-.4.3-1 0-1.4-.4-.3-.7 0-.7.7"/></svg>