<svg xmlns="http://www.w3.org/2000/svg" version="1.0" viewBox="0 0 7680 4320"><path d="M4159 2101.6q-8.55 2.25-22.5 2.7c-16.3.7-19.9 1.7-22.1 6.1-.9 1.7-2.5 4.1-3.6 5.2l-2 2.2 11.5.7c6.4.4 12 .5 12.5.1 1.9-1.2 68.6-1.6 76.8-.5 10.5 1.4 85.2 3.6 93.4 2.7 4.5-.5 6.8-.4 7.9.5 1.6 1.4 1.3.5-1.4-4q-3.75-6.15-6.3-.3c-1.8 4.1-3.5 3.8-5.7-1-2.2-4.9-4.1-5.1-8.5-.5-1.9 1.9-4.2 3.5-5.2 3.5-2.9 0-9.8-4.8-10.8-7.5-1.2-3-6.1-4.5-15.5-4.5-4.4 0-11.3-1.1-18.5-2.9-13.9-3.5-24.1-4.4-51-4.5-17.7-.1-21.6.2-29 2"/></svg>