<svg xmlns="http://www.w3.org/2000/svg" version="1.0" viewBox="0 0 7680 4320"><path d="M3554.7 2102.7c-1 .9-.8 28.5.1 30 .8 1.3 24.1 1.7 57.2.9 10.7-.3 33.2-.8 50-1.1 28.3-.5 34.6-.8 35.7-1.8.4-.5-14.4-5.2-19.7-6.2-1.9-.4-7.5-2-12.4-3.7-9.1-3-25.9-6-28.3-5.1-.7.3-1.3-.1-1.3-.8 0-1-.2-1.1-.8-.3-.5.9-4.9 1-16.7.3-8.8-.5-17.8-1.1-20-1.5s-4.8-.7-5.7-.7c-.9-.1-1.4-.5-1.2-.9.3-.5-1-1.4-2.8-2.2-1.8-.7-4.2-1.7-5.3-2.1-1.1-.5-2.4-.9-3-1-1.1-.1-7.7-1.4-11.5-2.3-1.4-.3-3.6-.5-5-.4-1.4 0-2.8-.5-3.2-1.1-.6-.9-.8-.8-.8.1s-.5 1-1.9.2c-2.3-1.2-2.6-1.2-3.4-.3"/></svg>