<svg xmlns="http://www.w3.org/2000/svg" version="1.0" viewBox="0 0 7680 4320"><path d="M3569 2012.5c0 .3.2.5.5.5s.5-.2.5-.5-.2-.5-.5-.5-.5.2-.5.5m-3 80c-1.5 1.8-.6 4.5 1.5 4.5.8 0 1.5.3 1.5.7 0 .5 1.1 2.1 2.5 3.7s2.5 3.7 2.5 4.7.5 2.1 1 2.4c.6.3 1 1.9 1 3.6 0 1.6.5 2.9 1 2.9.6 0 1 1.4 1 3.1 0 3.4 2.7 9.9 4.1 9.9 1.2 0 1.1 3.7-.1 4.5-1.6 1-1.1 2.6.7 2.3 1.2-.2 1.9.7 2.4 3.1.4 1.9.5 4.1.1 4.9-.4 1.2-.1 1.4 1.3.9 1.4-.6 1.5-.4.8.5-1.7 2.1-2.6 7.8-1.3 7.8.7 0 1-.7.5-1.8-.4-1.1-.3-1.3.3-.7.6.5 1.2 4 1.4 7.6.3 5.2.1 6.6-.9 6.2-.8-.3-1.3.3-1.3 1.6 0 1.2.5 2.1 1 2.1.6 0 1 .9 1 1.9 0 1.1.6 2.1 1.3 2.4.8.2 1.2 3 1.2 8.9 0 6.7.4 8.8 1.8 10.2 2.2 2.2 2.2 3.7.1 2.9-1.2-.4-1.5-.2-1.2.8.3.8 1.1 1.4 1.9 1.4 1 0 1.3 1.1 1.2 3.5-.1 1.9.1 2.5.4 1.2.3-1.8 1.2-2.2 4.4-2.4 8.2-.3 9.6-.5 11-1.3.7-.5 14.1-.8 29.6-.6 26.3.2 28.4.1 29-1.5.4-1 .2-1.9-.5-2.2-.7-.2-1.2-.9-1.2-1.7 0-.7-.7-1.8-1.5-2.5-1-.8-1.5-3.1-1.5-7.1 0-3.3-.4-5.9-.9-5.9s-1.2-2-1.5-4.5c-.4-2.5-1.1-4.5-1.7-4.5-.5 0-.9-.7-.9-1.5s-.4-1.5-.8-1.5c-.5 0-1.7-1.9-2.8-4.3-1-2.3-2.1-4.4-2.4-4.7s-1.4-1.9-2.5-3.5c-1-1.7-2.9-3.8-4.2-4.8-1.8-1.4-2.3-2.8-2.3-6.2 0-2.4-.4-4.7-1-5-.5-.3-1-1.3-1-2.1 0-2.8-5.1-12.4-6.6-12.4-.8 0-1.4-.5-1.4-1 0-.6-.8-1-1.9-1-1 0-2.4-.7-3.1-1.5s-1.9-1.5-2.7-1.5c-1.9 0-7.3-4.1-7.3-5.6 0-2-6.3-6.5-7.4-5.4-1.3 1.3-4.6 1.3-4.6 0 0-.6-.7-1-1.5-1s-1.5-.5-1.5-1c0-.6-3.5-1-8.5-1-6.9 0-8.5-.3-8.5-1.5 0-1-1.1-1.5-3.5-1.5-1.9 0-3.5-.4-3.5-.9 0-.6-2-1.3-4.5-1.7-2.9-.4-4.9-1.3-5.6-2.5-1.2-2.3-2.2-2.4-3.9-.4m26.7 93.7c-.3.8-.6.5-.6-.6-.1-1.1.2-1.7.5-1.3.3.3.4 1.2.1 1.9"/><path d="M3583 2140.4c0 .9.5 1.6 1 1.6.6 0 1-.4 1-.9 0-.6-.4-1.3-1-1.6-.5-.3-1 .1-1 .9m50 58.1c0 .8.5 1.5 1 1.5.6 0 1-.7 1-1.5s-.4-1.5-1-1.5c-.5 0-1 .7-1 1.5m9-.5c0 .5.5 1 1.1 1 .5 0 .7-.5.4-1-.3-.6-.8-1-1.1-1-.2 0-.4.4-.4 1m-49.9 2.6c0 1.1.3 1.4.6.6.3-.7.2-1.6-.1-1.9-.3-.4-.6.2-.5 1.3"/></svg>