<svg xmlns="http://www.w3.org/2000/svg" version="1.0" viewBox="0 0 7680 4320"><path d="M3489 1985c-5.8 1.1-12 1.9-13.7 2-1.8 0-3.3.4-3.3.9s-1.8 1.2-3.9 1.6c-2.2.4-4.5 1.3-5.2 2.1-.6.8-1.7 1.4-2.4 1.4s-1.8.6-2.4 1.4c-.6.7-2.4 1.6-4 1.9s-3.5 1.2-4.2 1.9c-4.3 4-10.7 8.6-13 9.1-1.5.4-6.1 4-10.4 8.1-4.4 4.2-8.3 7.2-9.1 6.9s-2 .8-3 2.9c-1.7 3.6-5.7 5.8-10.7 5.8-1.9 0-2.7.5-2.8 1.7-.1 3.8-11.5 9.3-19.1 9.3-1.8 0-3.1.6-3.5 1.7-.4 1-2.6 3.8-5 6.3-2.3 2.5-4.3 5.1-4.3 5.7 0 .7-.4 1.3-.9 1.3-.4 0-2.1 1.9-3.7 4.1-1.6 2.3-4.6 5.2-6.7 6.6-2.1 1.3-4.1 3.2-4.4 4.1-.4.9-6 7-12.5 13.4-6.5 6.5-11.8 12-11.8 12.4s-3.8 4.3-8.5 8.8-8.5 8.5-8.5 8.9c0 .5-1.3 1.9-2.9 3.3-1.6 1.3-4.2 4.6-5.6 7.2-1.5 2.6-4.6 7.1-6.7 10.1-2.2 2.9-4.4 6.9-5 8.8-.5 1.9-1.8 4.3-2.8 5.3s-3.5 5.4-5.5 9.7c-2.8 6.1-3.7 9.5-4.2 15.8-.3 4.4-1.2 9-1.9 10.2-2 3.3-1.8 10 .4 11.2.9.5 5.3 1 9.7 1.2s8.3.8 8.8 1.4c.4.6 1 .5 1.6-.4s1.1-1 1.5-.2c.4.5 1.9 1 3.4 1 8.6 0 39.5 1.1 44.2 1.5 15.8 1.6 22.9 1.7 24.8.7 1.5-.8 2.3-.8 2.7 0 .5.7 4.4.8 11.8.4 6.2-.3 11.7-.6 12.2-.6 13.7-.1 22.1.4 22.8 1.4.6.8.7.7.4-.5-.4-1 .1-1.8 1.2-2.1 1.2-.3 1.8.1 1.7 1.1-.1 1.8 1.8 2 21.1 2.1 9.1.1 15.1-.3 16.8-1.1 1.9-.9 2.8-.9 3.3-.1.9 1.5 24.6 1.7 27.2.3 1.1-.6 2-.7 2-.2s2.4.7 5.2.6c3.2-.1 5.6.2 6 .9.6.9.8.9.8 0 0-.7.7-1 1.5-.7.8.4 2.2.1 2.9-.6 1.1-.8 2-.9 3.6 0 1.1.6 2.5.8 3 .5.6-.3 1-.2 1 .4s3 1 7.5 1c7 0 9.8-1.1 5.8-2.2-1-.3-.4-.4 1.2-.3 1.7.2 3.8.6 4.9 1.1s2.6.4 3.7-.3c1.5-1 1.7-.9 1.3.3-.5 1.2.2 1.5 3 1.5 2 0 3.6-.5 3.6-1 0-.6 1.1-.8 2.5-.4 1.4.3 2.5.2 2.5-.4s1.3-.7 3.8-.1c5.2 1.2 6.2 1.1 6.2-.6 0-1.8.4-1.8 20.4-1.5 13.3.2 14.8 0 14.3-1.4-.5-1.3.2-1.6 4.3-1.6 5 0 6.4-1.2 3.9-3.7-.6-.6-1.1-4-1-7.6 0-3.6-.7-9.9-1.5-13.9-.9-4-1.8-10.9-2-15.3-.3-4.4-1-8.4-1.5-8.9-.5-.6-.9-1.7-.9-2.5-.1-.9-.9-3.4-2-5.6s-1.9-5-2-6.3c0-3-3.5-9.8-5.6-11q-1.65-.9-1.8-5.4c-.1-3-.9-5.2-2.4-6.8-1.4-1.5-2.1-3.3-1.8-4.4.3-1-.5-3.2-1.8-5s-2.8-6-3.5-10.1c-2.1-12.2-1.9-11.8-4.5-11.1-2.6.6-3.6-1.2-3.6-6.6 0-1.7-1-3.4-2.7-4.8-4.3-3.3-7-9.1-7.8-16.5-.4-4.5-1.5-7.8-3.1-10.2-1.3-2-2.4-4.1-2.4-4.8 0-2.3-4.1-10.5-6.2-12.5-2.3-2.1-5.7-15.5-5.8-22.6 0-3.4-.6-4.6-3.2-6.8-1.7-1.4-3.7-2.6-4.4-2.6s-2.9-2-5-4.4l-3.9-4.5-14-.5c-11.2-.4-16.1-.1-24.5 1.4m-190 206.5c0 .3-.2.5-.5.5s-.5-.2-.5-.5.2-.5.5-.5.5.2.5.5m2 0c0 .3-.2.5-.5.5s-.5-.2-.5-.5.2-.5.5-.5.5.2.5.5m262.7 10.2c-.4.3-1 .3-1.4 0-.3-.4 0-.7.7-.7s1 .3.7.7m-15 .9c-.3.3-1.2.4-1.9.1-.8-.3-.5-.6.6-.6 1.1-.1 1.7.2 1.3.5m65.3-23.6c0 .5.5 1 1 1 .6 0 1-.5 1-1 0-.6-.4-1-1-1-.5 0-1 .4-1 1m-21 24c0 .5.5 1 1 1 .6 0 1-.5 1-1 0-.6-.4-1-1-1-.5 0-1 .4-1 1m8 0c0 .7.3 1 .7.7.3-.4.3-1 0-1.4-.4-.3-.7 0-.7.7m2.5 0c.3.5.8 1 1.1 1 .2 0 .4-.5.4-1 0-.6-.5-1-1.1-1-.5 0-.7.4-.4 1"/><path d="M3566 2204c0 .7.3 1 .7.7.3-.4.3-1 0-1.4-.4-.3-.7 0-.7.7m-137.7 1.7c.4.3 1 .3 1.4 0 .3-.4 0-.7-.7-.7s-1 .3-.7.7m29 0c.4.3 1 .3 1.4 0 .3-.4 0-.7-.7-.7s-1 .3-.7.7m-74.3 36.8c0 .3.2.5.5.5s.5-.2.5-.5-.2-.5-.5-.5-.5.2-.5.5"/></svg>