<svg xmlns="http://www.w3.org/2000/svg" version="1.0" viewBox="0 0 7680 4320"><path d="M4624 1621c0 .7.3 1 .7.7.3-.4.3-1 0-1.4-.4-.3-.7 0-.7.7"/><path d="M4626.6 1621.5c.4 1 0 1.5-1.5 1.5-1.2 0-2.1.4-2.1 1 0 .5.7 1 1.6 1 1.4 0 1.4.2-.1 1.7-1.3 1.3-1.9 1.3-2.5.4-.5-.9-1-1-1.4-.3-.4.6-.1 1.4.6 1.9.7.4 1.9 1.6 2.7 2.6 1.2 1.6 1.2 1.7-.5 1.1-1.9-.7-1.9-.7 0 1.4 1.7 2 1.8 2.4.4 3.9-1.5 1.8-1.4 4.8.2 3.8.5-.3 1.1.4 1.5 1.5s1 1.8 1.5 1.5c.4-.3 1 .2 1.3 1 .4.9.1 1.2-.7.9s-1.6-.1-2 .4c-.3.5.8.8 2.4.7 2.3-.1 3 .2 3 1.7 0 2.5 2.6 5.1 4.1 4.2.7-.4 1-.2.7.6-.4 1.3 5.2 7.6 6.5 7.2.4-.1.7.2.7.8 0 1.7-1.8 1.1-4-1.2-1.1-1.2-2.3-1.8-2.7-1.5-.3.4-.2.7.4.7s1.3.9 1.6 2 .9 2 1.4 1.9c2.1-.4 3.4.2 2.7 1.3-.5.7-.2.9.9.5s1.4-.2 1.1.8c-.5 1.1.3 1.4 3 1.3 1.9-.1 3.3-.5 3-.9-.2-.4 0-1 .5-1.3s1.1.4 1.4 1.5c.5 1.7.9 1.9 2.5 1 1.4-.7 2.1-.8 2.4 0 .2.5 1.3 1.1 2.6 1.2 2 .1 2.4.5 2.1 2.3 0 .4.5 1 1.1 1.4.8.5.7 1.1-.4 2.3-1.8 1.7-2.1 3.2-.6 2.2 1.3-.8 1.3-.2-.1 2.9-.7 1.4-1.6 2.3-2.2 1.9-.5-.3-1.3.1-1.8.8-.7 1.1-.9.9-.9-.6 0-1.6-.2-1.7-.9-.6-.5.8-.7 2-.4 2.8.3.7-.2 1.6-1.1 1.9s-1.3 1-1 1.5-.1.9-.9.9c-.9 0-1.4 1-1.4 2.5 0 1.4.3 2.5.8 2.5 1.2 0 4.9 3.8 4.9 5 0 .5-.5 1-1.1 1-.5 0-.7.4-.4 1 .3.5.1 1-.4 1-.6 0-1.1 1.1-1.1 2.5 0 1.9.4 2.3 1.8 1.8 1.5-.6 1.5-.5.3 1-.8 1.1-.9 1.7-.3 1.7.7 0 .9.7.5 1.7s-.2 1.4.4 1 1.3-.2 1.5.4 2.2 1.3 4.3 1.5c3 .3 4.7 1.3 6.7 3.6 1.5 1.8 2.4 3.4 2 3.7-1.3 1-.6 4.9 1.3 6.7 1.2 1.2 1.4 1.9.6 2.2-.9.3-.9.7 0 1.8.6.7.9 2.1.5 2.9-.3.8-.1 1.5.4 1.5s.9 1.1.8 2.4c-.1 1.4-.7 2.2-1.4 1.9-.9-.3-1.2.5-.9 2.7.3 1.8-.3 4.9-1.1 6.9-2.5 5.9-3.3 21.9-1.2 23.2.7.4.9 1.1.5 1.5s-.2 1.3.3 2c.8.8.6 1.6-.4 2.7-1.4 1.3-1.4 1.6 0 2.1.8.3 1.2 1 .9 1.6s.1.7 1 .4c1.1-.5 1.4-.2.9 1-.3.9-1.1 1.3-1.7.9q-.9-.45-.3.6c.4.6 1.2.9 1.7.6.5-.4.9.3.9 1.4 0 1.5-.4 1.9-1.7 1.4-1.1-.4-1.4-.3-.9.5.4.7 1.3 1.2 2.1 1.2s1.2.9 1 2.5c-.1 1.5.4 2.9 1.2 3.4 1.2.6.9 1.3-1.8 3.1-1.8 1.3-2.9 1.9-2.5 1.2s.3-1.2-.3-1.2c-2.3 0-2 2.1.3 3l2.6.9-2.7 2.7-2.6 2.6 2.1 1.2c1.5.8 1.9 1.5 1.2 2.6-.6.9-.4 2 .3 2.9 1 1.2.9 1.3-1 .3-1.6-.9-2.4-.9-2.9 0-.4.6-.3.8.3.5 1.8-1.1 2.6 7.2.8 8.9-.8.8-1.9 1.3-2.4.9-.6-.3-2.1-.3-3.5.1-1.8.4-2.3 1.1-1.9 2.2.4 1 .2 1.4-.2 1-.5-.5-1.3.2-2 1.5-.9 1.7-.8 2.7.2 4.4 1.3 2 1.3 2.1-.7 1.6-1.6-.4-1.9-.2-1.4 1.1.4 1.2-.7 2.9-3.5 5.6-2.2 2.2-4.1 3.6-4.1 3.2s-.7.1-1.4 1.1c-.8 1-2.4 2-3.6 2.2-3.6.7-5.2 2.6-4.7 5.8.2 1.8-.1 3.1-1 3.4-1.8.7-4.3-1.5-4.4-4.1-.1-1.7-.2-1.7-.6-.4-.5 2.1-4.3 2.4-6.1.6-.7-.7-1.2-2.2-1.2-3.5 0-1.6-.6-2.3-2-2.3-1.1 0-2 .4-2 1 0 .5-.7 1-1.5 1-1.9 0-1.9 1-.1 3.6 1.3 1.8 1.3 2.1 0 2.1-.8 0-1.4-.4-1.4-.9 0-1.4-3.2-.9-4.4.7-.6.8-3.1 1.7-5.6 1.9-7.3.7-11 1.8-12.3 3.6-1.6 2.3-5.4 4.2-6.1 3.1-.4-.5-1.4-.8-2.4-.6-.9.2-2.5.4-3.5.4-.9.1-1.6.7-1.5 1.3.2.7-.5 1.2-1.4 1.2-1.2-.1-2.7 1.9-4.8 6.2-1.7 3.5-3.3 6.4-3.5 6.4s-.2-.7.2-1.6c.5-1.4.3-1.5-1.4-.6-1.1.6-2.3.8-2.7.5-.3-.3-.6.1-.6 1 0 1-.8 1.7-2 1.7-1.9 0-9.1 5.6-8.8 6.8.1.4-.4 2.4-1.1 4.5-1.4 4-4 6.1-6.5 5.1-.9-.3-1.6-.1-1.6.5s-.7 1.1-1.5 1.1c-1.3 0-1.9 1.6-1.7 4.1.1.3-1.2.3-2.8.1-2.2-.3-3.5.2-5.4 2.3-1.6 1.7-2.6 2.2-2.6 1.4 0-1.2-.2-1.2-.9 0-.7 1.1-1.1 1-1.9-.5s-1.3-1.6-2.6-.5c-1.7 1.4-9.8 2.2-9 .9s-.9-.9-3 .7c-1.7 1.3-1.8 1.8-.6 4 .7 1.4 2 2.5 2.7 2.5.8 0 1.2.4.8 1-.3.5-1.2.7-2 .4-.9-.4-1.9.4-2.6 2-.7 1.4-1.7 2.6-2.3 2.6s.3 1.2 1.9 2.6c1.7 1.4 2.4 2.2 1.6 1.8-.9-.4-1.2-.2-.9.7.3.8 1.1 1.4 1.8 1.4s1.5.6 1.8 1.2c.2.7-.2 1.3-.9 1.3s-1 .3-.6.6c.6.7-1.9 6.4-2.9 6.4-.3 0-.2-.6.2-1.3.4-.6.3-.8-.1-.4-.5.4-1 2.7-1.1 5s-.3 5-.3 6c-.1 1-.5 1.6-.9 1.3-.4-.2-1.3.4-2 1.5-.7 1-.9 1.9-.5 1.8 2.7-.4 3.5.1 2.3 1.6-1.2 1.4-1.5 1.4-3 0-1.6-1.4-1.8-1.4-2.4.1-.4 1.2-.2 1.5.9 1 .8-.3 1.5-.1 1.5.3 0 .5-.6 1.1-1.4 1.4s-1.2 1.5-.9 3.1c.4 2 0 2.6-2 3.1-1.4.4-2.8 1.6-3 2.7-.4 1.3-1.1 1.9-2.1 1.5s-1.3-.1-1 .8c.4.8-.8 2.7-2.6 4.4-3 2.7-3.4 5.9-.7 4.5.7-.3.4.1-.7 1-1.4 1.2-2.2 1.2-3.7.3-2.1-1.3-3.1-.6-3.3 2.5-.1 2.8-3.6 3.9-3.6 1.1 0-1.5-.2-1.5-1-.3-.5.8-1.3 1.1-1.7.6-.8-.7-.9-1.1-1.2-3.9-.1-.9-.3-.9-1 .1-.6 1.1-1 1-1.5-.4-.4-1-.1-2.1.6-2.7.9-.6.6-.7-.8-.4-1.6.3-2.6-.2-3.5-2.2-2.2-4.1-3.3-5-5.2-3.9-1.3.7-1.7.5-1.7-.6 0-.8-.5-1.8-1.2-2.2s-.8-.3-.4.4.2 1.2-.4 1.2-.9.4-.5.9c.9 1.6-1.2 2.2-2.7.8-.7-.8-1.9-1.2-2.7-.9-.9.3-1.1-.2-.6-1.7.4-1.2.2-2.1-.4-2.1s-1.1.4-1.1 1c0 .5-.5 1-1.1 1-.5 0-.8-.4-.4-.9.3-.5-.4-1.2-1.5-1.6-1.2-.4-2-1.5-2-2.9 0-2.9 1-3.9 2.7-2.5.9.8 1.3.8 1.3.1 0-.6-.5-1.4-1.1-1.7-.6-.4-.8-1.3-.5-2.1s.1-1.4-.3-1.4c-.5 0-1.2.6-1.4 1.2q-.6 1.5-.6 0c-.1-.8-.6-1-1.3-.6-.9.5-.9.2.1-.9.7-.9 1-1.7.5-1.7-.5-.1.2-.7 1.6-1.5 2.1-1.2 2.2-1.4.5-1.2-1.1.1-2.2-.3-2.4-.8-.2-.6-1.1-1.5-1.9-2.1-.9-.7-1.3-1.8-.8-2.9.3-1 .1-2.4-.6-3.2-.7-.9-.8-1.7-.2-2.1 1.6-1.2 1.6-4.2 0-3.6-.9.3-2.2-.1-3-.9-1.3-1.2-1.3-1.7-.2-2.6.7-.6 1.7-.7 2.2-.3s0-.3-1-1.6c-1.1-1.2-2.5-2.1-3-1.9-.6.3-1.1-.8-1.2-2.4-.1-2.2.3-2.9 1.7-2.9 1.1 0 1.9-.7 1.9-1.5 0-2.2 2.7-3 4.7-1.4 1.2 1 1.5 1 .9.1-.4-.7-.2-1.2.4-1.2.8 0 1-.9.6-2.6-.7-2.6 1.3-5.3 3.9-5.4.6 0 .3.5-.5 1-1.3.9-1.3 1 .1 1 .8 0 1.9-.4 2.5-1 .5-.5 2.5-1.1 4.4-1.3 2-.2 3.4-.8 3.2-1.5-.1-.7.5-1.2 1.3-1.2s1.5-.6 1.5-1.4c0-.7.9-2 2.1-2.7l2.1-1.4-2.3-2-2.2-2 1.3 2.5c1.2 2.2 1.1 2.4-.2 1.3-.8-.7-1.7-1-2-.7s-.5-.2-.4-1.2c.1-1.2-.7-1.7-2.6-1.8-1.4-.1-2.4.2-2.2.6.3.4-.4.8-1.6.8-1.6 0-2-.4-1.5-1.9.3-1.1 0-2.1-.9-2.4-.9-.4-1.2-1.4-.9-2.8.5-1.7.3-2-.8-1.5-.8.4-.6.1.4-.7 1.7-1.4 2.5-4.3.8-3.3-.5.3-1.1-.1-1.5-.9-.3-.8-.1-1.5.4-1.5.6 0 1-.9 1-2 0-2.1-2.4-2.8-3.5-1-.3.5-1.1 1-1.6 1-.6 0-.3-.8.7-1.8 1-.9 2-1.6 2.2-1.4 1.1.8 2.8-4.4 1.9-5.6-.8-1-1.4-.6-2.8 1.5-1.5 2.2-1.9 2.4-1.9.9s-.3-1.6-1.5-.6c-.8.7-1.2 1.6-.9 2.1s-.2.9-1.1.9c-1.1 0-1.5.5-1.2 1.4.4.9-.2 1.7-1.4 2.1-2.6.9-4.4 4.4-3 5.8 1.5 1.5 1.4 2.7-.4 2.7-.8 0-1.4.5-1.3 1.1.2.6-.7 1.5-1.9 2-1.4.5-2.3.5-2.3-.1s-.5-1-1.1-1c-.5 0-.7.5-.4 1 .4.6-.8.9-2.9.8-2-.2-3.6-.6-3.6-1s-1-.4-2.2.1c-1.5.6-3.3.4-5.2-.6-1.5-.8-2.5-1-2.2-.4.4.6.3 1.1-.2 1.1-.4 0-1.9 1-3.2 2.2-1.4 1.3-2.8 2.2-3.2 2.1-.5-.2-.7.3-.5 1 .1.6-.4 1.1-1 1-.7-.2-1.3.1-1.3.7 0 .5-.7.7-1.5.4-.9-.4-1.5 0-1.5.9 0 1.9-2.6 4.1-3.4 2.8-.4-.5-1.8-.8-3.2-.5s-2.3.1-2-.5c.3-.5-.3-1.1-1.4-1.4-1.3-.3-2 0-2 1 0 .8-.4 1.2-.9.8-.5-.3-1.2-.1-1.5.3-.3.5-1.9.9-3.6 1-2.3 0-3-.4-3-1.8 0-.9.9-2 2.1-2.3 1.4-.4 1.9-.2 1.5.8-.2.7.1 1.6.8 1.8 1.6.7 1.6-2.4 0-4-1.5-1.5-2.8-1.7-1.9-.3.3.5 0 1-.8 1-1 0-1.3-.7-1-2 .4-1.4 0-2-1.2-2s-1.5.5-1 2.1.3 2-.6 1.6c-1.5-.5-1.5-.7-.5-5.1.6-2.5.5-2.8-.8-1.7-1.1.9-1.7.9-2.5-.1-.6-.7-2.2-2.6-3.6-4.1-2.7-3-3.3-7.3-1.3-7.9.8-.3.4-.9-1-1.7-1.2-.6-2.2-1.9-2.2-2.9 0-1.1-.3-1.3-.8-.6-.4.6-1.6.8-2.6.4-1.3-.4-1.6-.9-.8-1.4 1.5-.9.4-3.6-1.5-3.6-.8 0-1.1-.5-.8-1 .3-.6.1-1-.5-1s-.8-.5-.5-1c.3-.6.1-1-.4-1-.6 0-1.1.5-1.1 1.1 0 .8-.4.8-1.3 0-.8-.6-1.7-.7-2.3-.2-.5.5-3 .5-5.9 0-2.7-.5-5.5-1-6.2-1.1s-1-.5-.8-.9c1.2-1.9-.7-3.5-3.5-3.1-1.9.3-3 0-3-.7 0-.8-.4-.8-1.4.1-1.4 1.4-.7 5.8 1.4 8.3.9 1 .7 1.6-.8 2.4-1.1.6-2.1.8-2.4.6-.2-.2-.4.4-.4 1.5 0 1 .3 1.7.7 1.4.4-.2.9.6 1.1 1.8.2 1.5.9 2.2 2 2 2.3-.4 2.8.9 1.8 5.1-.6 2.7-.4 3.9.5 4.5.7.4 1.5 1.7 1.9 2.9.6 1.9.2 2.5-2.6 3.6-2.7 1.1-3.5 1.1-4.6 0-.7-.7-2.2-1.3-3.3-1.3-1 0-1.9-.4-1.9-.8 0-.5-.7-.9-1.5-.9s-1.5.4-1.5.9c0 .4.4.8.8.8 1.3 0 1 3.3-.4 4.8-1 1-1.5.9-2.2-.4-.9-1.5-1.1-1.5-2.2.6-.8 1.4-.8 2-.1 1.6.6-.4 1.1-.2 1.1.3 0 .6.7 1.1 1.7 1.1 1.4 0 1.4.2-.2 2-1.8 2-1.8 2.1.1 3.6 1 .8 1.4 1.3.7 1-.6-.4-1.4-.2-1.8.4-.3.6.1 1.3.9 1.6.9.3 1.6 1 1.6 1.6 0 .5-.4.7-.9.4s-1.2.1-1.5 1c-.3.8-1 1.2-1.6.9-.5-.3-1-.2-1 .4 0 .5.6 1.1 1.3 1.4.9.3.9.8-.2 2.1-1.2 1.4-1.2 1.6.3 1 1.1-.4 1.6-1.4 1.3-2.6-.4-1.4-.2-1.8 1-1.4.8.3 1.8.6 2.1.6.4 0 0 .5-.8 1-1.3.9-1.3 1 0 1s1.3.1 0 1c-1.1.7-1.1 1-.2 1 .7 0 1 .5.7 1-.4.6-1.1.8-1.6.5-.5-.4-.8.5-.7 1.9.1 1.5.8 2.6 1.5 2.6s1.7.9 2.3 2c.9 1.6.8 2-.5 2.1-2.8.3-3.3.4-4.2 1.2-.4.5-.3.8.2.7.6-.1 2-.2 3.3-.1 2.2.1 2.2.2.7 1.7s-1.5 1.8.1 3.5c2.1 2.3 3.6 2.5 2.7.3-.4-1.1-.2-1.5.6-1.3.7.3 1.2.8 1.2 1.2 0 .3.4 2 .9 3.7.5 1.6.5 3 .1 3s-.8.7-.8 1.5.9 1.5 2.1 1.5c2 .1 2 .1.3 1.4-1 .8-2.7 1.2-3.7.9-1.2-.3-2 0-2 .6 0 .8-.5.9-1.7.3-1.2-.7-2.1-.4-3.4 1.1-1.4 1.8-1.9 1.9-3.2.8-1.4-1.1-1.6-.9-1.4.8.1 1.1.7 2.3 1.5 2.6.7.3 1 1 .7 1.5-.5.8-1.1.7-2.1-.1-1.7-1.4-1.9-.3-.2 1.5.9.9 2 1.1 3.5.5 1.4-.5 2.3-.5 2.3.1s-.5 1-1.2 1c-.8 0-.9.3-.1 1.1 1.4 1.4.4 6.1-1.1 5.2-.6-.4-.3.6.8 2.1 1.7 2.6 1.7 3 .2 3.8-1 .6-1.6 2.2-1.6 4.5 0 3.2-.2 3.4-1.7 2.2-1-.8-.3.5 1.5 2.7 1.7 2.3 3.2 4.8 3.2 5.5-.1.8-.7.3-1.5-1.1s-1.5-2.3-1.5-2c-.7 3-.6 3.9.5 4.4.8.3 1.1 2 .9 5-.4 4.8.1 5.3 2.6 3.5 1.2-.9 1.1-1-.5-.4-1.5.5-1.7.3-.8-.6 1.6-1.6 4.3-.4 4.3 2.1 0 1.1.5 2 1 2h1.5c.3 0 1.3.8 2.3 1.7 1.9 1.9 2.5 4.3 1 4.3-.4 0-.8.8-.8 1.7 0 1.5-.2 1.6-1 .3-.9-1.3-1.4-.7-1.1 1.2.2 1.2-1.6.9-3.1-.5-1.6-1.5-7.8-2-7.8-.6 0 .6.4.8.9.5.5-.4.6.5.2 2.1-.5 1.9-1.5 2.9-3 3.1-1.6.3-2.1 0-1.6-.8.4-.6 1.2-.9 1.9-.7.7.3 1.3-.4 1.3-1.4.2-2-.4-2.2-4.7-2-2.4.2-2.4.1-.7-1.3 1.8-1.4 1.8-1.5-.2-2.5-2.5-1.4-3.4-1.4-2.6-.1.3.5.1 1-.5 1s-.9.4-.6.9 0 1.1-.8 1.4c-1.1.5-1.3 0-.6-2.4.5-1.7.5-3.1-.1-3.4-.5-.4-.9-1.5-.9-2.6 0-1-.5-1.9-1-1.9-1.1 0-1.4.7-2.5 5.3-.5 2.3-.8 2.7-2 1.7-1.5-1.2-.7-3.6 2.3-6.8.6-.7 1.2-1.8 1.2-2.3s.7-.9 1.5-.9 1.9-1.5 2.4-3.3c.5-1.7 1-2.6 1-2 .1 1.5 3.1 1.8 3.1.3 0-.9-3.1-3-4.4-3-.3 0-.6.7-.6 1.5 0 1.1-.7 1.4-2.5.9-1.6-.4-2.5-.2-2.5.5 0 .9-.5.9-2 .1-1.1-.6-2-.8-2-.4 0 .3-.7.1-1.5-.6s-1.5-.9-1.5-.4c0 1.3-6 1.1-6-.1 0-.6-.7-.2-1.4.7-.7 1-1.7 1.4-2.2 1-.4-.4-.3 0 .3.8 1 1.3.8 1.6-.9 1.7-2.9.3-3.3 1-1.7 3 .9 1.1 1 1.4.2.9-.7-.4-1.3-.4-1.3.1 0 .9 5.5 3.6 8.2 4 1.1.2 1.5-.2 1.2-1.1-.3-.7.1-1.6.9-1.9.9-.3 1.4.1 1.3 1.1-.1 1.3.7 1.7 3.1 1.7 3.8 0 2.8 1.9-1.3 2.3-1.5.1-3.3.7-4 1.3-1.1.9-1.4.8-1.4-.4 0-2.3-2.5-1.1-2.7 1.3-.1 1.1.7 2.6 1.7 3.3 1.3.9 1.6 1.7.9 2.7-.5.8-.8 2.2-.8 3 0 .9.3 1 .5.3.3-.7 1.4-.2 3.1 1.3 1.4 1.3 3 2.1 3.5 1.8s1.6 0 2.5.8q1.8 1.35.9 0c-.5-.8 0-1.2 1.3-1.2 1.2 0 2.1.4 2.1.9 0 1.3-7.6 3-9.2 2-.7-.5-2.2-.9-3.3-.9-1.9.1-1.9.1-.2 1.1.9.6 1.5 1.4 1.2 2-.3.5 0 .6.8.3s2 .3 2.8 1.2c1.2 1.6 1.2 1.7-.2 1.2-1.3-.5-1.5-.1-1.1 1.9.3 1.8-.1 3-1.3 4-1.1.7-1.5 1.3-.9 1.3.5 0 .3.4-.3.8-.7.4-1.4 2.1-1.6 3.8-.2 1.6-.6 3.4-.9 3.9-.3.6-.9 2.3-1.3 4-1.2 4.4-1.2 4.5-1.5 5-.1.3-.3.8-.5 1.2-.9 3.2-1.8 4.4-2.6 3.2-.6-1.1-1.2-1-2.7.4-1.4 1.3-2.1 1.4-3 .5s-1.2-.6-1.2 1.5c0 1.9-.7 3-2.2 3.6q-2.25.75-.9 1.5c.9.6.7 1.2-.8 2.3-2.6 1.7-2.8 3.4-.3 2.7 1.4-.5 1.4-.4-.2.6-1.4 1-2 1-2.6 0-.6-.9-.9-.9-1.5-.1-.5.9-1 .9-2.1 0s-1.4-.8-1.4.5-.5 1.6-2.2 1c-2-.6-2.1-.5-1 .9 1.1 1.2 1.9 1.3 4.3.5 2.2-.8 3.4-.7 4.2.1.9.9.8 1.1-.5.6-2.4-.9-4.6.5-2.6 1.6s1.2 5.5-1.9 9.5c-2.6 3.5-2.8 4.4-1.1 4.4.6 0 2.2 1 3.5 2.2 1.9 1.7 2.3 1.9 1.7.5-.4-1.2-.1-1.7 1-1.7.9 0 1.6.8 1.7 1.7.1 1.2.4.9.8-.7l.7-2.5 1.9 2.2c1.1 1.3 2.7 2.3 3.6 2.3s1.9-1 2.3-2.3c.5-1.7.8-1.9 1.5-.8s.9 1.1 1.3 0c.3-.9.6-.8 1.1.4.4 1.1.1 1.7-.8 1.7-.8 0-1.4.6-1.2 1.2.1.8-.7 1.2-2.3 1-2.4-.3-2.4-.2-.5 1.2 1.1.9 1.5 1.6 1 1.6-.6 0-1.1 1-1.2 2.1-.1 1.2-.4 2.4-.7 2.6-.7.7-6.6-1.7-6.6-2.7 0-.4-.7-1-1.5-1.4-.8-.3-1.4-.2-1.4.2.3 1.9-.3 2.1-2.4.7-2-1.3-2.4-1.3-2.4-.1 0 .8.6 1.2 1.4.9.7-.3 1.3-.1 1.3.5s-.6 1.2-1.2 1.5c-1 .3-.8.9.5 2.4 2.2 2.5 2.2 3.4 0 2.6-1.2-.5-1.5-.2-1 1 .4 1.2.1 1.5-1.4 1.2-1-.2-1.9.2-1.9.8 0 .7-.4.6-1-.3-.8-1.3-1.2-1.2-3.1.6-1.4 1.4-1.7 2.4-1 2.8.6.4 1.1.3 1.1-.3 0-.7.8-.7 2.3-.2 1.2.4 2.8.6 3.6.3 1-.3 1.2 0 .8 1.2-.5 1.2.1 1.9 1.9 2.6 1.4.6 2.3 1.4 2 1.8-.3.5.1.9.8.9.8 0 1.2-.6.9-1.4-.3-.7 0-1.3.6-1.3 2.1 0 2.4 3 .5 5.3-1.4 1.6-1.4 1.8-.2.9.9-.8 2.7-1 4.2-.6 2.2.5 2.6.3 2.6-1.6 0-1.6-.4-2-1.5-1.6-1.4.5-2-.7-1.5-2.9.1-.6.3-1.5.3-2.2s.5-1.1 1.1-1c.5.1 1.2-.6 1.4-1.5.2-1.2-.1-1.6-1-1.3-.8.3-1.3-.3-1.3-1.8 0-1.7.5-2.3 1.9-2.2 1.1.1 2.2.7 2.4 1.3.7 2.1 2.5 1.3 1.9-.8-.3-1.1-.1-1.8.4-1.4.5.3.9-.5.9-1.8 0-1.7.3-1.9.9-.9.6.9 1.1 1 1.5.2.4-.6 1.3-1.1 1.9-1.1.8 0 .8.3.2.8-1.6 1.1-1.6 3.2-.1 2.6 1.6-.6 2.9-3.2 2.1-4.3-.2-.4.2-.8 1-.8s1.5.4 1.5.9c0 .4.4.8.9.8s.7-.8.4-1.9c-.3-1.3-1.1-1.7-2.6-1.5-2.2.4-2.2.4.1-.7 1.2-.7 2.2-1.6 2.2-2.1 0-.4.4-.8.9-.8s.7.9.4 2 0 2 .6 2c1 0 1.6-2.1 1.2-4.3-.2-1.1 2.7-.9 3.4.3.3.5-.1 1-.9 1-.9 0-1.6.5-1.6 1.1s.7.8 1.6.5 2-.6 2.5-.6c.4 0 .6-.6.3-1.4s-.1-2.3.5-3.4c.8-1.5.8-2.1-.1-2.4-.7-.3-.2-.7 1-1 1.2-.4 2.2-.2 2.2.3 0 .4.6.6 1.4.3.9-.3 1.2-1.3.9-2.2-.4-.9-.4-1.5-.2-1.2s1.8 2 3.4 3.9c2.7 3.1 2.8 3.3.8 2.9-1.6-.4-2-.2-1.6 1 .4 1 .2 1.3-.5.8-.7-.4-1.2-.2-1.2.4 0 .7.6 1 1.4.7s2 .1 2.8 1c1.1 1.4 1 1.6-.9 1.1-1.3-.4-2.3-.2-2.3.3s.6.9 1.3.9c.8 0 .7.4-.3 1-2.1 1.4-3.3 1.2-2.4-.3.6-.9.5-.9-.8 0-.8.7-1.8 1-2.1.6-.4-.3-.7.1-.7 1.1 0 2.3 2.7 3.1 4.7 1.5 1.5-1.3 1.5-1.2.4.8-1.3 2.6-2.2 2.8-3.9 1.1-1.5-1.5-2.4-.6-1.6 1.6.5 1.2 1.4 1.6 3.1 1.3 1.4-.2 3.1.2 3.9 1.1 1.4 1.4 1.4 1.6-.1 2.4-1.3.8-1.4 1.2-.3 2.6.9 1.2.6 1.2-1-.2-1.9-1.7-2.2-1.7-2.2-.3 0 1 .3 1.7.8 1.7.4 0 1.3 1.2 1.9 2.8.7 1.5 2.5 3.5 4 4.5 1.6 1 2 1.6 1.1 1.3-2.5-.8-2.2.9.5 2.7 2.2 1.6 2.2 1.6.1 1.6-2.6.1-5 2.6-3.4 3.6.5.3 1 .1 1-.6s.2-1 .5-.8c.8.8-.7 4.9-1.6 4.3-.5-.3-.9.2-.9 1 0 .9.5 1.6 1.1 1.6.5 0 .8.4.5.9s.5 1.2 1.9 1.5c2.5.6 3.7 2.8 1.3 2.3-.8-.1-1.2.8-1 2.5.3 2.2 0 2.7-1.2 2.2-.9-.3-1.6-.1-1.6.5 0 .7-.8.7-2.6.1-1.4-.6-2.3-.6-2-.1s-.1 1.1-.8 1.4c-.8.3-1.6.2-1.8-.4-.4-1.3-5.8-2.2-5.8-.9 0 .5.5 1 1.2 1 .9 0 .9.3 0 1.2-.7.7-1.2 1.7-1.2 2.3 0 .5.4.4.9-.3.7-1.2 1.3-1.1 3.7.3l2.9 1.6-2.7-.6c-1.6-.3-2.8-.1-2.8.5 0 1 1.4 1.4 3.8 1.1.6-.1 1.2.2 1.2.8 0 .5-.6 1.2-1.2 1.4-1 .4-.9.8.2 1.6 1.2.9 1.3 1.2.1 2-1.5 1 .3 2.6 1.8 1.6.5-.3 1.3 0 1.7.6.4.8.3.9-.4.5-.8-.5-1.2.2-1.2 2 0 1.5-.3 2.5-.6 2.1-.4-.3-1.3.1-2.1.9-.9.8-1.2 1.8-.8 2.2s1 .1 1.2-.6c.3-.6.9-1.2 1.4-1.2.4 0 .6.7.3 1.5-.4.8-1.2 1.5-2 1.5s-1.4.7-1.4 1.5-.4 1.5-.8 1.5-.8.9-.9 2 .2 1.8.8 1.5c.5-.4 1 .1 1 .9.1.9.3 2 .4 2.6.1.5.3 1.2.4 1.6 0 .3 1.1-.5 2.4-1.8 1.7-1.8 3.1-2.2 6.3-2 3.8.3 4.1.5 3.7 3-.4 2.2-.2 2.4.7 1.2.7-1 1.3-1.1 1.6-.4.3.6 1.6.9 3.1.6 1.8-.3 2.4-.1 1.9.6-.5.8-.2 1 .8.6.9-.3 1.6-1 1.6-1.5s.4-.9 1-.9c.5 0 .7.7.4 1.5-.4.8.1 1.7 1 2.1.9.3 1.3 1 1 1.5-.5.8.9 1.3 2.9 1 .4 0 .7.6.7 1.4 0 1.5 1.8 1.5 5.2.1.9-.4 2.2-.5 2.8-.1.7.4 1.4-.2 1.7-1.4.3-1.1.9-1.8 1.4-1.5s.7.9.4 1.4.8.5 2.4 0c2.2-.6 3.3-.4 4.1.5 1 1.2 1.6 1 3.4-1 1.7-1.9 2.5-2.2 3.4-1.3.7.7 1.2.8 1.2.2 0-1.2 3.5-1.2 4.6-.1s2.6.8 1.9-.3c-.3-.6.1-1 1-1 .8 0 1.8-.6 2.1-1.4s1.5-1.3 2.7-1.3c1.2.1 3.2-.2 4.3-.6 1.4-.5 2.7-.2 3.7.7 1.3 1.4 1.6 1.4 2.1-.1.6-1.4.8-1.4 2 .2.8 1.2 1.8 1.5 2.7 1 1.1-.7 1.1-.5-.1 1-1.3 1.7-1.3 1.8.1 1.3 1.3-.5 1.6-.2 1.1 1.4-.3 1.3-.1 1.9.5 1.5s1.4 0 1.7.9c.3.8.9 1.3 1.3 1.1.5-.3.8 1.7.8 4.4 0 3.1-.4 4.9-1.2 4.9-.6 0-1.5.4-1.8 1s.1.7.9.4c.9-.3 1.6-.2 1.6.4s-.6 1.3-1.2 1.5c-.7.3-.3.6.8.6 2.7.1 4 2.9 1.8 3.8-1.1.4-1.4 1.4-1 3.4.3 1.6.1 3.1-.4 3.4-.6.4-.8 1.1-.5 1.6.4.5-.2 1.2-1.2 1.6-3.2 1.1-5.3 3.6-5.3 6.2 0 2 .2 2.3 1 1.1s1-1 1 .8c0 1.3-.4 2-1 1.7-.5-.3-1-.1-1 .5 0 .7.9 1.4 2 1.7 1.3.4 2 1.4 2.1 3.2 0 2.3.1 2.4.9.6.7-1.6.8-1.5.7 1.1-.2 2.2-.7 3-2.1 3-1-.1-2.1.5-2.3 1.1-.3.8.4 1.3 1.6 1.3 2.3 0 2.8 1.5.9 2.6-.7.4-.8.3-.4-.4s.2-1.2-.3-1.2c-.6 0-1.1 1.2-1.1 2.7 0 1.4.3 2.4.6 2 .9-.9 3.6 2.1 3 3.2-.4.5.1 1.6.9 2.4.8.9 1.5 2.2 1.5 2.9 0 1 .3.9 1-.2.6-1 1-1.1 1-.3 0 .7 1 1.3 2.3 1.3 1.7 0 1.9.2.8.9-.8.5-2.9.8-4.8.6-1.8-.1-3.6.2-3.9.6-.3.5-1.2.5-2.1 0-1.8-.9-5.3-.3-5.3 1 0 .5-.6.6-1.4.3s-1.7-.1-2.1.5c-.3.6-.1 1.1.5 1.1.7 0 .5.6-.4 1.5-.8.8-2.3 1.2-3.3.9-1.3-.4-1.4-.3-.5.3.9.7.6 1.3-1.4 2.1-1.7.8-2.4 1.8-2 2.7.3.8.1 1.5-.5 1.5s-.7.4-.4 1c.3.5.1 1-.5 1s-.8.5-.4 1.2c.4.6.3.8-.4.4-.6-.3-1.7.1-2.6.9-.8.8-1.7 1.1-2 .6-.9-1.3-4.6-.1-4.6 1.5 0 1.8 2.3 1.4 3.2-.6.6-1.1.7-1 .5.5s-1 2-3 2c-1.5 0-3.2.7-3.7 1.5-.8 1.3-1 1.2-1-.3 0-1.1-.5-1.6-1.2-1.2s-.5 0 .5-.8c1.5-1.2 1.5-1.6.3-2-1-.4-1.8.3-2.5 2.1-.5 1.5-1 2.1-1 1.4-.1-.7-.6-1-1.1-.7-.6.4-.8 1-.6 1.4.3.4-.8 1.2-2.4 1.8-2.5 1-3 .8-3.5-.8-.8-2.3-3.5-2.5-3.5-.3 0 1.2-.7 1.5-2.5 1.2-3-.6-4.3.7-1.5 1.5 2.6.7 2.6 2.7 0 2.7-1.3 0-1.8.5-1.4 1.5.4.8.2 1.5-.2 1.6-.5 0-1.7.2-2.6.4-1 .2-1.8-.1-1.8-.6s-.4-.9-1-.9c-.5 0-1 .5-1 1.1 0 2.1-3 4.2-4.3 3-1-.7-2.1-.4-4.1 1.4-1.6 1.4-3.3 2.2-3.8 1.9-.6-.4-.8.7-.5 2.8.3 2.2 0 3.5-.7 3.5-3.7-.1-5.6.5-5.6 1.6 0 .8-1.2 2-2.7 2.8-1.6.8-3.4 2-4.2 2.7-1 1-1.6 1-2.7.1s-1.4-.9-1.4 0c0 .7-.4 1-.9.6-.6-.3-1.4.3-2 1.2-.8 1.4-1.1 1.5-1.1.3-.1-1.2-.3-1.2-1.4.2-.7 1-1.6 1.5-1.9 1.1-.4-.3-.7-.1-.7.5 0 .7-.6 1.2-1.3 1.2s-1.8.9-2.5 2.1c-1.3 2-1.4 2-4.6-1.3-1.7-1.8-3.5-4.1-3.9-5.1-.3-.9-1.4-1.7-2.4-1.7-1.5 0-1.6-.2-.3-1 1.2-.7.8-1-1.5-1-3.3 0-5.4 2.3-4.9 5.3.2 1.2-.3 1.7-1.4 1.4-.9-.2-1.6-.9-1.4-1.6.1-.7-.2-1-.8-.6-.6.3-.8 1.1-.5 1.6.4.5.3 1.4-.1 2-.4.8-.9.7-1.5-.2-.6-1-.9-1.1-.9-.2 0 2.1-.3 2.7-1.7 4.1-1.1 1.1-1.6 1.2-2.9.1-1.1-.9-1.8-.9-2.6-.1-.9.9-.9 1.2 0 1.2.7 0 1.2.5 1.2 1.2 0 .6-.3.8-.7.5-.3-.4-1.5.1-2.6 1-1.1 1-1.7 1.2-1.3.6.5-.9.2-1.1-.9-.7-.9.4-1.4 1.3-1.1 2.1.4 1-.4.8-2.3-.6-2.7-1.9-3.1-2-4.5-.5-.9.8-1.6 2.1-1.6 2.8s-.9 2.1-2 3.1-2 1.4-2 1c0-1.4-4.8 4.3-5.5 6.5-.4 1.1-1 1.8-1.5 1.5-.4-.3-.7.2-.6 1 0 .7-.3 1.4-.8 1.4-.5-.1-1.3.5-1.7 1.3-.7 1.1-1.1 1-1.9-.2-.7-1.2-1.1-.8-1.6 1.7-.3 1.7-1.3 3.4-2.1 3.7s-1.1 1.1-.7 1.7c.4.8.3.9-.4.5-.6-.4-2 .2-3.1 1.3-1.6 1.6-2.1 1.7-2.5.5-.6-1.6-3.6-.8-3.6 1.1 0 .7-1.3 1.6-3 2-1.6.4-3.6 1.5-4.2 2.4-.7 1-2.3 2.1-3.5 2.5-1.3.4-2.3 1.1-2.3 1.6s-.6.7-1.4.4c-.9-.3-1.3.1-1.3 1.3.1 1.1-.4 1.8-1.4 1.7-.9-.1-1.6.5-1.6 1.2s.3 1.2.6 1.1.7.2.9.7c.3 1.2-2.6 1.7-3.3.5-.7-1-4.4 2.3-3.8 3.3.7 1.4-3.5 5.1-4.8 4.2-.9-.5-1-.2-.6.9s.1 1.7-.9 1.7c-.8 0-1.2.4-.9 1 .3.5.1 1-.4 1-.6 0-1.1.6-1.1 1.4 0 .7-.7 1.9-1.5 2.6s-1.3 1.6-1 2c.7 1.2-.6 4.1-1.5 3.5-.5-.3-.3 1.1.3 3.1.9 2.8.8 3.7-.3 4.4-.9.6-1.8.4-2.3-.3-.6-.8-.7-.6-.3.5.4 1.2 0 1.8-1.2 1.9-1 0-1.2.3-.4.6.6.2 1.2.9 1.2 1.5s-.6.8-1.3.5c-1.7-.6-1.9 2.2-.4 4.3.9 1.2.9 1.3-.3.2-2-1.8-2.5-1.5-2.8 1.5-.1 1.9.1 2.4.7 1.4.6-.9 1-1 1.6-.2.4.7.2 1.8-.4 2.5s-.8 1.6-.4 1.9c.3.4-.1 1.5-.9 2.4-2.1 2.4-3.1 6-2.1 7.5 1.2 2.1 1.2 3.8-.1 3.8-.7 0-1.3.6-1.3 1.2-.1 2.5-.8 4.3-2.3 5.6-.8.8-.9 1.1-.2.7s1.2 0 1.2.9c0 1.2-.5 1.3-3.1.4-2.3-.8-2.7-1.3-1.7-1.9.7-.5.8-.9.3-.9-.6 0-1.6.5-2.2 1.1-.9.9-1.6.8-2.8-.5-1.9-1.9-3.1-2-4.1-.5-.3.6.6 2.2 2.2 3.6l2.9 2.4-2.6-.4c-2-.3-2.5.1-2.5 1.7.1 1.6-.5 2.1-2.1 2-1.3 0-2.4.5-2.4 1.3-.3 2.7-.4 3.1-1.1 3.9-.8.8-1-.3-1.2-6.9-.1-3.2-.6-4-4-5.8-2.3-1.2-4.5-1.7-5.5-1.3-1.8.8-5.1.5-6.6-.5-.5-.5-1.8-1.1-2.7-1.4-1.2-.4-1.5-.2-1.1 1 .5 1.3.3 1.4-1.7.3-1.5-.8-2-.8-1.6-.1.4.6 0 1.1-.9 1.1-2.4 0-5.6 2-5 3.1.4.5 1.3.3 2.1-.6 1.8-1.8 5.8-1.4 6.2.7.3 1.7-3.5 3.2-4.4 1.7-.3-.5-.9-.7-1.3-.5-.4.3-2 .7-3.6 1-3.8.7-5.2 2.2-4 4.2 1 1.5 5.2 3.3 12 4.9 1.9.5 2.5.9 1.5 1.3-1.8.6-3 2.2-3 3.9 0 1.5 3.6 1.7 4.5.3.3-.5 1.6-.9 2.9-.8 1.8.2 2.3.8 2.2 2.5 0 1.3-.5 2.3-1.1 2.3-.5 0-.4.4.4.9.8.6 1 1.4.5 2.2-1.3 2.1-1.3 3.8-.2 4.5.5.3.2 1.4-.7 2.4s-1.4 2.4-1 2.9c.3.6.1 1.1-.5 1.1s-.8.4-.5 1c.3.5 0 1-.7 1-1.7 0-4.8 3.6-4 4.6.4.4-.1.4-1 .1-1.4-.5-1.8-.1-1.8 1.8 0 1.3-.5 2.7-1 3-.6.4-.7 1.1-.4 1.7.4.7.2.8-.4.4-.7-.4-1.2-.2-1.2.4s-.5.8-1.1.4c-.7-.4-.9.2-.7 1.7.2 1.8-.1 2.3-1.4 2.1-1.2-.2-1.6.3-1.4 1.5.3 1.3-.3 1.8-2.1 2-1.4 0-2.9.6-3.3 1.2-.3.7-1.9 1.4-3.4 1.7-4 .7-7.6 3.3-6.9 5 .4 1 0 1.2-1.1.8-1-.4-1.6-.1-1.6.7 0 1.5-8.8 7.9-10.8 7.9-2.8 0-9.2 2.6-9.2 3.7 0 .7-.5 1.3-1.1 1.3-.5 0-.8-.4-.4-.9.3-.6-.3-.9-1.4-.8-1.1 0-1.7.5-1.5.9.3.4-.6.8-2.1.8-1.4 0-2.8.7-3.2 1.6-.5 1.3-.7 1.3-1.4.2-.6-.8-.9-.9-.9-.1 0 .6-.9.9-2 .6s-1.7-.9-1.4-1.4 0-.9-.5-.9c-.6 0-1.1.4-1.1.9 0 .4-2.5.8-5.5.8s-5.5-.4-5.5-.8c0-.5-1.2-.9-2.6-.9-1.5 0-3.3-.8-4-1.8-1-1.3-1.3-1.4-1.4-.3 0 1.1-.4.9-1.5-.5-1.2-1.6-1.4-1.7-1.5-.3 0 1.6-1.9 2.9-4.1 2.9-.6 0-.8-1.5-.5-3.3.4-2.6.3-2.9-.7-1.6-1.3 1.8-4.1 1.4-3-.4.4-.7-.1-.6-1 .2-1.4 1.1-1.8 1.1-2.3-.2-.3-.9-1.2-1.3-1.9-1.1-.7.3-1.6-.4-2-1.5-.3-1.2-1.1-2.1-1.6-2.1-.6 0-.8.4-.5.8.2.4-.4 1.3-1.4 2-1.5.9-1.8.9-1.4-.1.5-1.3-6.2-4.4-7.3-3.4-.2.3-2-.1-4-.9-1.9-.8-3.2-1-2.8-.5.3.6.2 1.1-.4 1.1-.5 0-1.1-.6-1.4-1.3-.3-.9-.7-.9-1.8-.1-1.6 1.3-5.1 1.5-4.3.3.2-.5 1.2-.5 2.2-.2 1.4.6 1.5.4.5-.9-.7-.8-1-1.7-.7-2.1.3-.3-.3-.3-1.5 0-1.1.3-1.8.9-1.5 1.4s0 .9-.6.9-.8.5-.4 1.2.3.8-.4.4-1.2-.3-1.2.2-1.3 1.2-3 1.4c-1.6.3-3 .1-3-.2 0-.4-1.1-.6-2.5-.5-1.4.2-2.7-.1-3.1-.6-.3-.5-1.1-.9-1.7-.9-.7 0-.6.4.3 1.1 1.2.9 1.1.9-.5.4-1.1-.4-2.4-.7-3-.7-3.2.3-5.2.8-6.4 2-.7.7-2.1 1-3.2.7-1-.3-2.8-.1-4 .6-1.8.9-2.4.8-3.1-.5-1-1.8-3.2-1.1-2.2.7.3.7 0 .5-.8-.4-2-2.4-5-3.6-8.3-3.2-1.6.2-3.9.3-5 .2-1.1 0-3.8-.1-6-.2s-4.4-.8-5-1.4c-.5-.7-3.2-2.3-5.8-3.7-4.2-2.1-5-2.2-6.2-.9-.9.9-1.5 1-1.5.3 0-.6-1.2-.2-2.9.9-1.5 1.1-3.1 1.8-3.5 1.4-.3-.3-.6.3-.6 1.5 0 2-1.5 2.8-4.3 2.3-.4-.1-1 .6-1.3 1.4s-1 1.2-1.5.9-2.5.4-4.3 1.6l-3.4 2.1-.2-19.8c-.3-22.4-.4-25-1.3-25.9-.3-.4-.2-1.5.3-2.5.7-1.2.6-2.2-.5-3.2-.8-.8-1.1-1.8-.7-2.3s0-.3-1 .4c-1 .8-1.8.9-2.2.3s-1.3-.8-2.1-.4c-1.1.4-1.3.1-.9-1.1.4-1.1.1-1.6-1.2-1.6-1.5 0-1.9.8-2 3.5 0 2 .4 3.1.9 2.8.6-.4.7-.1.2.6-.4.8-1.8 1.1-3.3.8-2.6-.5-2.6-.5-.7 1s1.9 1.5-.4.8c-1.3-.4-3-.8-3.7-.9s-1.6-.5-2-.9-1.2.1-1.9 1c-1 1.3-1.5 1.4-3.1.4-1.7-1.1-1.7-1.1.6-.6 2.2.5 2.3.4.7-.5-1.4-.9-1.6-1.5-.6-2.6 1-1.3 1.5-1.2 3.5.1 3.2 2.1 4.1 1.9 2-.4-1.8-1.9-2.7-2-5.9-.6-2 .8-3.7-.2-2.1-1.3.6-.4 1.4-1.6 1.7-2.7.7-1.9.7-1.9-.8-.1-.8 1.1-2.8 2-4.9 2.1-3 .1-3.4-.1-3-2.1.3-1.8 0-2.1-1.6-1.7-1.4.4-2 0-2-1.1 0-1-.5-1.4-1-1.1-.6.4-1.7.1-2.5-.5s-1.8-.9-2.3-.6c-.6.3-1.5-.1-2.2-.9s-1.6-1.2-2.1-.9-.9 0-.9-.5c0-.6-1.3-1.1-2.9-1.1-1.7 0-3.2-.4-3.5-.9-.7-1.1-9.5-.9-11.3.2-.8.5-2.4-.4-4.3-2.1-2.3-2.3-2.7-3.1-1.6-3.5s1.2-1.4.6-4.1c-.4-1.9-.5-3.7-.2-4 .3-.4-.2-.6-1.1-.6-1.1 0-1.7-.8-1.7-2.3 0-1.7-.6-2.3-2.6-2.5-1.7-.1-2.3.2-1.8 1 .5.7.3.8-.7.2-1.9-1.2-4-1.4-3.4-.4.3.5 0 1-.6 1.2s-1.1 1.6-1.1 3.1c0 2.5-.2 2.6-1.4 1-1.3-1.7-1.3-1.7-1.4-.1 0 1-.5 1.8-1.1 1.8s-.8-.7-.5-1.6c.5-1.4.4-1.5-.8-.5-.8.7-1.9 1-2.4.7-.6-.3-1.6.2-2.3 1.1-1 1.2-1 1.4-.1.9.6-.4 1.2-.5 1.2-.1 0 .3-1.2 1-2.6 1.5-1.4.6-2.3 1.4-2 1.8.7 1.1-3.5.9-5.3-.2-.9-.6-1.2-.5-.7.2.3.6.2 1.4-.4 1.7-.6.4-1 .3-.9-.2.3-1.8-.2-3.3-1-3.3-.6 0-.8 1-.6 2.1.6 2.8-.5 4.5-1.6 2.8-.7-1.1-.9-1-.9.4s.5 1.7 2 1.2c2.3-.7 2.9 1.9.6 3.2-.7.4-1.6 1.5-1.9 2.3-.3 1-.6.7-.6-.8-.1-1.3-1-3.3-2.1-4.5s-1.8-2.7-1.6-3.4c.5-1.2-3.1-3.9-4.5-3.6-1 .3-5.1-7.6-4.5-8.6.3-.5-.1-1.1-.9-1.5-.8-.3-1.5-1.3-1.5-2.3 0-1.5-.2-1.6-1-.3-.5.8-1 1.1-1 .6s-.6-.3-1.4.3c-1 .8-1.6.9-2.1.1-.3-.6-1.1-.7-1.7-.4-.7.5-.8.2-.4-.5.5-.7 1.4-1 2.2-.7.7.3 1.6.1 1.9-.5.4-.5-.6-.8-2.4-.7-2.5.2-3.1.7-3.1 2.5 0 1.3-.3 2.2-.7 2.2-.5-.1-1.5-.1-2.3 0-1.3.1-1.3.3 0 1 .8.6 1.7.8 2.1.5.4-.2.6.9.5 2.5-.1 1.7.1 2.8.5 2.5.4-.2.7.5.6 1.7s-1.1 2.5-2.5 3c-1.6.6-2.2 1.4-1.8 2.5.4 1 .2 1.3-.6.8-.7-.5-.9-.2-.5.9s.2 1.4-.9 1c-.7-.3-1.4-1.2-1.4-2s-.6-1.3-1.2-1c-.7.2-1.2 1.2-1.2 2.1.1.9-.4 1.6-1.2 1.6-1 0-1 .5.2 2.7 2 3.9 1.8 4.6-1.3 4-2.9-.5-8 .9-6.9 2 .3.3 0 1.3-.7 2.1-1 1.3-.9 1.4 1 .4 1.2-.7 3.2-1.1 4.5-1.1 1.7.1 1.8.3.5.6-1.2.3-1.6 1.2-1.3 2.9s0 2.4-1.2 2.4-1.3-.3-.5-1.1c.6-.6.9-1.8.6-2.6-.4-1.1-1.2-1-3.9.6-3.4 2-3.4 2-4.6.1-1.4-2.2-3.8-2.7-3.8-.8 0 .6-.3.8-.6.5-.4-.4-.1-1.3.5-2.1.9-1.1.9-1.6 0-2.2-.8-.5-.9-.3-.4.6.6 1 .4 1.2-.9.7-1.1-.4-1.5-.3-1 .4.4.7-.1.7-1.5-.1-1.2-.6-2.5-1.8-2.8-2.6-.3-.7-.9-1.2-1.3-.9s-1.1-.2-1.4-1.1c-.3-.8-1.1-1.2-1.7-.8-.8.4-.7.9.2 1.5 1.1.7.9.9-.6.9-2 0-2.4-.8-2.5-6.4-.1-1-.4-1.5-.7-1.2-.4.3-1.6 0-2.8-.8-1.9-1.3-2.3-1.2-3.4.6s-1 1.9.8 1.3q2.1-.6 2.1.6c0 .7-.3 1-.6.6-.8-.8-3.4 1.8-3.4 3.3 0 .6-.4.8-1 .5-.5-.3-1-.2-1 .4 0 .5.7 1.1 1.6 1.3 1.2.2 1.7 1.6 1.9 4.5.1 2.4-.2 4.3-.7 4.3-.6 0-.8.7-.4 1.5.3.8.1 1.5-.4 1.5-.6 0-1 .5-1 1.1 0 .5.4.7 1 .4s.7.1.4 1c-.4.9-.9 1.4-1.1 1.1-.3-.3-1.2.2-2 1-1.7 1.6-3.7.9-2.9-1.1.7-1.8-3.4-3.1-4.4-1.5-.4.7-1.3.9-1.9.5-.9-.5-.9-1 0-2.2 1-1.1 1-1.6.1-2.2-2.9-1.8-1.2-10.1 2.4-11.5 1-.4 1.4-1.4 1.1-2.6-.3-1.1-.1-1.8.4-1.4.5.3.9 0 .9-.5 0-.6-.5-1.1-1.1-1.1-.5 0-.7-.5-.4-1 .8-1.3-.8-1.3-2.1 0-.6.6-1.5.6-2.4 0-1-.7-1.1-1-.2-1 .6 0 1.2-.8 1.2-1.8s.7-1.9 1.5-1.9 1.5.6 1.5 1.3c0 3.3 8.5 4.5 8.7 1.3.1-1.2-.4-1.6-1.5-1.3-.9.3-.4-.2 1.1-1.1s2.5-2 2.3-2.4c-.3-.5.3-1.6 1.4-2.6 2-1.8 2.8-4.1 1-3-.5.3-1-.8-1-2.7 0-4.8-.5-7.7-1.5-8.5-.4-.5-.5-.2 0 .6.5.9.4 1.2-.2.8-1.4-.9.7-8.9 3-11.1 1.6-1.7 1.6-1.9-.3-4.3-1.1-1.4-2-3.3-2-4.2-.1-5.5-10-9-10-3.6 0 1.9-3.7 1.9-7 0-1.4-.8-3.8-1.4-5.3-1.5-1.9 0-4.1-1.3-6.7-3.9-2.8-2.8-4.6-3.8-6-3.4-1.2.3-2.2-.1-2.6-1-.3-.9-1.2-1.3-2-1-1.3.5-1.2.9.3 2.7 1.1 1.2 1.2 1.6.3.9-1.6-1.2-4.4-1.1-7.3.2-2.2.9-2.9.2-4.7-4.5-3.5-8.9-12-15.5-18.7-14.4-2.1.3-4 .9-4.3 1.4-.3.4-1.8.8-3.5.9-6.3.2-12.1.8-13.7 1.6-1 .4-2.3.5-3 .3-.7-.3-2 .5-3 1.6-1 1.2-1.7 1.6-1.8.8 0-.6.5-1.2 1.1-1.2.5 0 .7-.5.3-1.1-.4-.8-1.1-.3-2 1.2-.7 1.3-1 2.7-.8 3.1.3.5 0 .8-.6.8s-.9.3-.7.7c.3.5-.5 1.7-1.6 2.8-1.1 1.2-1.7 1.4-1.3.5.4-.8-.2-.4-1.4.9-1.1 1.3-1.8 3.1-1.6 3.8.3.8.1 1.1-.4.8-.6-.3-1-.1-1 .4 0 .6.4 1.1.8 1.1s.8.9.9 2.1c.1 1.5-.3 1.9-1.3 1.5-.9-.3-1.2-.1-.9.4.5.9-.7 1.4-2.7 1.1-.4 0-1 .8-1.3 1.9-.4 1.1-1.4 2-2.3 2-2 0-8.2-5.3-8.2-7 0-.6-.4-.9-.9-.6-.5.4-2.2-.5-3.8-1.8-2.7-2.3-4.2-2.5-11.8-1.4-1.2.2-2-.3-2-1.2 0-1-.9-1.4-2.5-1.3-1.8.1-2.9-.6-3.8-2.5-1.4-3.1-1.6-5.6-.3-4.7 1.8 1 2.2-1.5.7-3.7-.9-1.2-1.6-3.4-1.6-4.7 0-2.8-2.9-11.1-3.9-11.1-.3 0-.7-3.2-.8-7-.3-6.7-.1-7.1 2.2-8 2.9-1.1 4.5-3.9 4.5-7.8 0-1.8.6-3.2 1.6-3.6 2-.8 3.5.1 2.8 1.8-.9 2.2 2.5 3.9 7.9 3.9 2.8-.1 5.8-.2 6.6-.4s2.1.9 2.9 2.5l1.4 2.8 2-2c2.2-2.2 4-9.6 2.7-10.9-.5-.5-.6-2.5-.3-4.5.5-2.9 1.2-3.8 3.3-4.3 2.2-.6 3.1 0 5.9 3.2 1.8 2.1 4 5.1 4.8 6.6 1.3 2.5 1.6 2.6 3 1.2.9-.8 1.9-1.5 2.4-1.5.4 0 1.1-1.2 1.4-2.6.4-1.6 1.2-2.4 2-2.1s1.8.1 2.2-.3c.5-.5 4-1.1 7.8-1.4 5.8-.4 7.2-.2 8.2 1.2 1.1 1.6 1.4 1.5 3.3-.2 1.2-1.1 2.1-3.1 2.1-4.6 0-3.3 2.1-8 3.6-8 .6 0 1.7-1.2 2.3-2.8.9-2.1 1.8-2.7 4.2-2.7 1.6 0 3.4.6 3.8 1.4 1 1.6 3.1.6 3.1-1.5 0-.9.5-2.4 1.1-3.5.8-1.6 1.3-1.8 2.5-.8 1.1.9 1.4.8 1.4-.4 0-2.3-2.7-8.2-4.4-9.7-.9-.7-1.6-2.1-1.6-3.2 0-3.8-1.9-5.7-6.5-6.4-2.5-.3-4.8-1-5.1-1.5-.9-1.4-5.6-1-7.4.6-4 3.6-14.1 4.1-19.1.9-5.7-3.6-10.9-5.4-16.4-5.9-2.7-.2-6.1-.7-7.5-1q-2.4-.45-6.3 2.1c-3.5 2.3-4.4 2.5-11 1.8-4-.3-8.5-1.2-10.1-2-4.8-2.3-9.1-2.7-10.8-1-1.4 1.3-1.8 1.3-3.7-.1-3.7-2.5-5.4-1-4.8 4.2.5 4.1.4 4.5-1.8 5.1-3.3.8-5 3.1-4.7 6.5.2 2.8-1.1 3.9-2.3 1.9-.3-.6-1.3-1-2.1-1-1.9 0-7.4 5-7.4 6.7 0 .7-1 1.8-2.3 2.4-2 .9-3 .6-6.3-1.6-2.3-1.5-4.6-2.4-5.8-2.1-1.1.3-2.6 0-3.3-.5-1.7-1.5-3.5-.1-2.8 2.1.5 1.5-.3 2.4-3.2 3.9-2.1 1.1-3.5 2-3.1 2.1 1.4 0-3.4 8-4.8 8.1-2.2.2-2.8.4-3.9 1.1-2.2 1.4-10.8.5-12.6-1.3-1.6-1.6-2.3-1.7-4.6-.7-1.6.6-3.5 2-4.5 3-1.2 1.3-2.4 1.6-4.7 1.2-1.7-.4-3.4-1.1-3.7-1.5-.3-.5-1.8-.9-3.4-.9-2.1 0-3.3-.8-4.9-3.5-1.1-1.9-1.6-3.7-1.1-4 1.4-.9-1.2-4.5-3.1-4.5-.9 0-2.9-.6-4.5-1.4-5.3-2.5-7.1-2.7-8.8-1-1.2 1.1-1.4 2-.7 2.8 1.3 1.5.7 8.9-.7 9.4-.5.1-1.8-.8-2.9-2.1-1-1.3-2.4-2.2-3.2-1.9-1 .3-1.2-.2-.7-2.1.5-2.1.2-2.6-1.9-3.1-1.4-.4-2.5-1.1-2.5-1.6 0-.6-.5-1-1.1-1s-1.7-.7-2.5-1.5c-1.7-1.6-6-2-6.8-.7-.3.5-3 .7-6.1.4-5.5-.4-13.5 1.3-13.5 2.9 0 .4-.9 1.1-2 1.4-4.6 1.5-5.1 3.1-2.8 9.1 2.1 5.4 2.1 5.5.2 6.9-1.3 1-3.4 1.3-6.2 1-3.2-.3-4.4-.1-4.8 1-.7 1.8 1.3 4.5 3.3 4.5.8 0 2.4 1.1 3.7 2.5 2.4 2.6 5.6 2.5 5.6-.1 0-.8.5-1.4 1-1.4.6 0 1 .7 1 1.5s.8 2.9 1.8 4.7c1.4 2.5 1.6 4.1 1 6.3-.6 2.4-.4 3.3 1.2 4.7 1.3 1.1 2 2.8 2 5.4 0 2.3.6 4.1 1.7 4.9 1 .7 1.4 1.9 1 2.9-.4.9-.6 1.9-.6 2.1 0 2.1-3.9 6.4-6.3 6.9-1.8.4-2.7 1-2.2 1.7.3.6.1 2.8-.6 4.8-1.3 3.9-5.5 7.1-9.5 7.1-1.3 0-3.8.8-5.7 1.7-1.8.9-4.1 2-5.1 2.5-2.2 1.1-8.7-1.6-8.7-3.5 0-1.8-4-3-5.6-1.6-.7.5-2.5.8-4.1.5-1.5-.2-3.4-.5-4-.5-.7-.1-1.3-.5-1.3-1.1 0-1.7-4.1-5.8-7.1-7-1.9-.8-4.5-1-7.6-.5-2.7.5-6.2.9-8 .9-1.8.1-3.4.4-3.6.6-1.4 1.7-3.5 7.3-3.1 8.4.8 2.1-3.1 4.9-5.3 3.8-1.7-.9-4-.9-9.3.1-4.4.8-5.4 1.2-6.9 2.5-1 1-1.6 1.1-2.1.2-.6-.9-.9-.9-1.3.1-.3 1.1-.8 1.1-1.7.3-1.8-1.8-4.3-.6-6.4 2.9-1.1 1.8-2 3.5-2 3.9-.2 1.7-4.8 5.8-5.8 5.2-.6-.4-.8-.3-.5.3 1.1 1.8 1.6 6.3.7 6.8-.5.3-.7-.4-.5-1.6.3-1.5 0-1.9-1-1.5-.8.3-1.5.1-1.5-.4s-.8-1.1-1.7-1.3c-1.6-.4-1.6-.5.1-.6 1.5-.1 1.7-.6 1.2-2.9-.4-1.5-.8-3.6-.9-4.7s-.6-2.3-1.1-2.7c-.5-.3-.2-1.7.7-3.1 1.5-2.3 1.5-2.5-.1-2.2-.9.1-1.6 1-1.6 1.9.1.9-.3 1.6-.8 1.6-.6 0-.4.8.3 1.7 1.2 1.4 1.2 1.6-.2 1.1-.8-.3-2.6.3-4 1.3-1.3 1.1-1.9 1.8-1.4 1.7 1.2-.4 5.5 3.8 5.5 5.3 0 .5-.5.7-1 .4-1.5-.9-4.1 1.5-3.3 2.9.3.6-.4.2-1.6-.8-1.7-1.6-2.1-1.7-1.6-.4s.2 1.5-1.5 1.1c-1.9-.5-2.1-.3-1.2 1.3 1 1.8.7 1.9-2.5 1.6-2.3-.3-3.1-.7-2.2-1.3.9-.5.5-1-1.4-1.4-1.5-.4-2.7-1.4-2.7-2.2s.5-1.1 1.2-.7.8.3.4-.4c-.4-.6.1-2.3 1-3.7s1.2-2.5.6-2.5c-1.2 0-1-4.3.3-5.2.6-.5.6-.8-.2-.8-.6 0-1.5.5-1.8 1-.4.6-1.1.8-1.6.5s-.6.1-.3.9c.3.9.9 1.6 1.3 1.6.3 0 .7 1.1.7 2.5.2 2.7-1.3 3.4-2.2 1.1-.4-1.1-1.2-1.3-2.9-.6-1.3.5-2.6.6-2.9.2-.4-.3-.9.3-1.2 1.5-.5 1.7-1 2-3.2 1.4-4.5-1.3-10.2.2-10.2 2.6 0 .9-.6 1.3-1.4 1-1-.4-1.3-.1-.9 1 .5 1.3.3 1.3-2.5-.1-1.7-.9-4.3-1.6-5.7-1.6-2.4 0-2.5.2-1.4 2.2 1.1 2.1 1.1 2.2-.4 1-1.3-1.1-2-1.1-4.1.3-1.4 1-3.5 1.5-4.6 1.2-1.4-.4-2 0-2.1 1.1 0 1.1-.2 1.3-.6.4-.4-1-.8-1-1.9-.1-.8.6-1.4.7-1.4.2s-1.3-.8-3-.5c-1.7.2-3 1-3 1.8s-.8 1.4-1.7 1.4c-1.5 0-1.6-.2-.3-1 1.3-.9 1.3-1 0-1-3.6 0-6.1 1.4-6.6 3.7-.5 1.9-.9 2.1-1.5 1.1-.7-1-.9-.9-.9.4 0 1.5-3.5 3.5-5.3 3-.5-.1-.6.2-.3.7.8 1.2-2.6 2.3-7.9 2.6-4.1.3-9.5 2-9.5 3 0 .4.5.3 1.2-.1.6-.4.8-.3.5.4-.8 1.2-4.7.4-4.7-1 0-.7-.4-.7-1.3 0-1.6 1.4-4.7-.8-4.7-3.4 0-1.5-.2-1.6-.9-.5-.9 1.4-5.6 1.9-6.8.7-.3-.3-.1-1.7.5-3 1-2.1 2.5-2.6 5.2-1.6.3.1 1.2.2 2.1.1 1.2-.1 1.5.4 1.2 2.2-.3 1.4-.1 2.7.4 3 .4.3.8-1.6.7-4.1 0-2.6.4-5.5.9-6.5.6-1.4.4-2.2-1-3.2-1-.7-2.1-1.1-2.4-.9-.4.2-1.2-.3-1.9-1.1-.7-.9-2.9-1.5-5.1-1.5s-3.9-.5-3.9-1c0-.6-1.5-.8-4-.4s-4.5.2-5.4-.6c-.8-.6-2.4-.9-3.4-.6-1.4.5-2.7-.2-4.5-2.4-1.4-1.6-3.8-3.5-5.2-4-3.8-1.4-5-1.3-3.5.5 1 1.2 1 2.1.1 4.1-1.3 3-1.4 4.7-.2 3.9 1.8-1 2.2 1.4 1 5.7-1.3 4.6-1.3 7.7.1 9.2.5.5.2 1.9-.6 3.1-1.1 1.6-1.1 2.2-.2 2.2.7 0 2.2.4 3.2.9 1.4.5 1.7.4 1.2-.4-.4-.7-.1-1.2.8-1.2 2.2 0 2 1.9-.1 2.8-1.6.6-1.6.9.6 3.2 2.1 2.2 2.3 2.3 1.2.3-1.4-2.8.1-3.8 3.1-2.1 1.3.7 2.4 1.4 2.6 1.5.2 0 .5.9.7 2 .2 1 .4 1.8.5 1.8s.3.8.5 1.7c.2 1.2-.2 1.5-1.3 1.1-.9-.4-1.3-.2-.9.4.9 1.4-2.6 2.3-4.7 1.1-.9-.5-1.6-1.5-1.6-2.2 0-1.7-2.7-2.9-3.6-1.5-.3.5-1.3.9-2.2.8-3.4-.3-4.4.1-3.8 1.6.8 2.2-.2 1.8-1.5-.6-.8-1.5-.8-1.9 0-1.5.6.4 1.1 0 1.1-.8 0-.9-.4-1.6-1-1.6h-1.5c-.3 0-.4.3-.2.6.1.3-.6 1-1.6 1.6-1.4.7-2.2.6-3.2-.9-.8-1-1.4-2.5-1.4-3.3-.1-1 .6-.6 1.9 1l1.9 2.5 1-2.8c1.4-3.6 1.4-4.7 0-4.7-.6 0-.9-.6-.6-1.4.9-2.4-3.1-.6-6.7 3s-5.2 4.3-4.2 1.9c.3-.8.1-1.5-.3-1.5-.5 0-1.1.5-1.3 1.2-.3.7-1.2.9-2.4.4-1.8-.7-1.8-.8-.2-2 1.1-.8 1.4-1.7.7-2.7-.5-.8-.9-1-.9-.4 0 .5-.5.2-1.1-.7-.5-.9-3.5-2.5-6.7-3.5-5.5-1.7-10.9-4.6-14.4-7.7-.9-.8-1.9-1.2-2.2-.9-.3.4-.6.2-.6-.4s-1.1-.8-2.4-.6c-1.7.4-3.4-.5-6-2.9-2-1.8-3.6-3.8-3.6-4.3 0-1.1 5.7-4.9 7.5-5.1.6 0 3.4-2.4 6.4-5.2 2.9-2.9 6.1-5.2 7.1-5.2.9 0 3.1-.7 4.9-1.6s6.6-2.1 10.7-2.8c8.9-1.3 10.7-3.1 7.7-7.3-1-1.4-2.2-3.3-2.8-4.1-2.5-3.8-3.9-5.1-4.9-4.3-1.7 1.3-13.1 3.2-15 2.5-1-.4-1.6-1.7-1.6-3.5 0-2-.5-2.9-1.7-2.9-.9 0-2.4-.7-3.4-1.6-1.8-1.6-4.8-1.4-7.8.5-1.2.7-1.2 1.3-.3 2.4 1 1.1.9 1.7-.3 2.7-.8.7-1.5 1.7-1.5 2.2 0 1.5-7.2 8.8-8.7 8.8-2 0-7.6-4-10.7-7.8-1.5-1.7-2.5-3.2-2.1-3.2s.2-.6-.4-1.4c-.6-.7-.8-2.7-.5-4.5.4-1.7.3-3.2-.2-3.2-2.8-.4-5.1-.9-6.9-1.3-1.1-.2-2.5-.5-3.2-.5-.6-.1-1.4-1.5-1.8-3.2-.7-3.3-4.2-5.3-6.2-3.7-1.8 1.4-3.6-.1-2.9-2.5.3-1.2 0-2.7-.6-3.4-.6-.8-1.1-2.7-1-4.3.1-2.9 0-2.9-5.9-2.9-3.3 0-7.3.4-8.9.9-1.8.5-3 .5-3 0s-.7-.7-1.6-.3c-1.5.6-9-2.3-11.1-4.3-1.6-1.5-5.3-8.6-5.3-10.1 0-1.4-.9-1.6-5-1.4-1.8.1-2.1-.1-1.2-.7 1.1-.7.9-1.1-.8-1.5-1.4-.4-2.1-1.1-1.7-2 .3-.8 0-1.4-.6-1.4-3.9.1-6.7-.4-6.3-1.1.3-.5 0-.9-.7-1-.7 0-2.2-.4-3.4-.7-1.6-.5-2.4-.1-3.2 1.4-1.2 2.1-4.1 2.9-4.1 1.1 0-.6-1.4-1-3.1-1-1.9 0-2.8-.4-2.3-1.1.4-.7-.1-.7-1.6.1-4.5 2.4-8.1 3-8.7 1.5-.3-.8-.9-1.3-1.3-1-1.1.7-4.1-3.5-3.4-4.7.3-.4-.2-.8-1.1-.8-1.1 0-1.5-.5-1.1-1.6.3-.8.2-1.2-.4-.9-.9.6-2.6-4-2.2-6.1.1-.7-.6-1.4-1.7-1.7-1.6-.4-1.9-1.4-1.9-5.1 0-2.5.3-4.6.8-4.6 1.2 0 1.9-5.4.9-6.7-.7-.7-.6-1.4.1-1.8.5-.3 1-1.1 1-1.7s-1.1.2-2.5 1.8-2.3 2.1-1.9 1.1c.3-1 .1-1.7-.5-1.7s-1.1-.5-1.1-1.1c0-.5.5-.7 1-.4.6.3 1 .2 1-.3s1.5-1.3 3.3-1.7c5.1-1.2 6.7-1.2 6.7-.3 0 .5 1 .8 2.3.6 1.2-.2 2.1-.8 2-1.5-.2-.7.9-.8 3.5-.2 5.4 1.2 11.5.7 12.9-1.1 1.6-1.9 1.7-4.3.2-3.4-.9.5-1-.1-.5-2.2.4-1.7.3-2.4-.2-1.6-1 1.5-4.5.5-3.6-1 .4-.6 1-.5 1.6.3.7 1.1.8.9.6-.6-.4-2.3-4.8-3.5-4.9-1.3 0 .7-.4.4-.8-.7-.8-1.9-.9-1.8-2.1.7-1 2-1.6 2.5-2.5 1.8-.9-.8-1.4-.6-1.8.5-.5 1.1-1.2 1.3-3.2.5-1.4-.5-2.5-.7-2.5-.4 0 .4-.7.1-1.5-.6s-1.5-.9-1.5-.4c-.1.5-.7-.2-1.4-1.6-.8-1.3-1.2-3.4-1-4.7.4-2-.1-2.4-3.6-2.9-2.7-.5-4-1.2-4-2.3 0-1.4-.2-1.4-1-.1-1.5 2.3-1.2 3 1.3 3 1.6 0 1.8.3.9.9-.8.4-1.4 1.2-1.4 1.7s-.4 1.6-.9 2.4c-.7 1.3-.8 1.2-.9-.3 0-.9.5-1.7 1.1-1.7.5 0 .7-.5.4-1.1-.4-.6-1.3-.8-2.1-.5s-1.3.1-1.1-.3c.2-.9-.3-1.1-2.5-1.1-.6 0-.8.3-.5.6.6.6-4.4 5.2-5 4.6-.7-.6 0-1.7.9-1.4.5.1.8-.3.6-1-.8-2.3-3.8-2.2-3.8.2 0 1.2-.4 1.8-1 1.5-1.9-1.2-1-4.5 2.1-7.2 1.8-1.6 3.8-3.4 4.5-4.1 2-1.9 3.9-1.6 2.3.5-1.1 1.3-1.1 1.7-.1 2 .6.3 1 .9.7 1.3-.3.5.4.8 1.5.7 1-.1 2.2-.7 2.4-1.4.7-1.7 3.5-1.7 4.2.1.7 1.7 2.9 2.7 4.7 2 1.5-.6 2-4.4.7-5.9-.5-.6-.8-2.2-.5-3.5.5-2.9 1.5-3.9 1.5-1.6 0 1.4.2 1.5 1.4.4.8-.7 1-1.6.5-1.9-1.1-.6 4.4-4.9 6.4-4.9 1.4 0 1.5-5 .3-11-.4-2 .1-2.8 2.5-4.3l3.1-1.7-1.9-3.3c-1-1.7-1.8-4.5-1.6-6.2.1-1.6-.1-2.4-.5-1.8-.5.8-1.7.2-3.6-2.2-1.8-2.1-3.4-3.1-4.4-2.8-.8.4-1.3.2-1-.3.9-1.4-1.9-4.7-3.3-3.8-.8.4-1 .3-.5-.4.4-.7.1-1.2-.8-1.2s-1.6-.9-1.6-2-.4-2-.9-2-1.2-.9-1.6-1.9c-.3-1.2-1.2-1.8-2-1.5-1.3.6-4.2-3.3-3.7-5 .6-1.8-2.9-5.7-4.6-5.2-.9.3-3-.1-4.6-.9-1.6-.9-3.1-1.3-3.4-1-.3.2-1-.2-1.7-1.1-1-1.4-2.6-.9-13.8 4.4l-12.7 6.1V2700h1920V1620h-87c-76.9 0-86.9.2-86.4 1.5m2.4 3c0 .3-.2.5-.5.5s-.5-.2-.5-.5.2-.5.5-.5.5.2.5.5m-1.3 3.2c-.4.3-1 .3-1.4 0-.3-.4 0-.7.7-.7s1 .3.7.7m3.3.8c0 .3-.2.5-.5.5s-.5-.2-.5-.5.2-.5.5-.5.5.2.5.5m-4.6 2.1c.3.8.2 1.2-.4.9s-1-1-1-1.6c0-1.4.7-1.1 1.4.7m-2.4 8.9c0 .3-.2.5-.5.5s-.5-.2-.5-.5.2-.5.5-.5.5.2.5.5m11 1c0 .3-.2.5-.5.5s-.5-.2-.5-.5.2-.5.5-.5.5.2.5.5m4 14c0 .3-.2.5-.5.5s-.5-.2-.5-.5.2-.5.5-.5.5.2.5.5m3 4c0 .3-.2.5-.5.5s-.5-.2-.5-.5.2-.5.5-.5.5.2.5.5m11.7 9.2c-.4.3-.7 0-.7-.7s.3-1 .7-.7c.3.4.3 1 0 1.4m8.3-.2c0 .3-.2.5-.5.5s-.5-.2-.5-.5.2-.5.5-.5.5.2.5.5m2 14c0 .3-.2.5-.5.5s-.5-.2-.5-.5.2-.5.5-.5.5.2.5.5m-10 10c0 .3-.2.5-.5.5s-.5-.2-.5-.5.2-.5.5-.5.5.2.5.5m23 38c-.4.5-1 1.7-1.4 2.5-.3.8-.4.3-.1-1.3s.1-2.7-.5-2.7-.8-.4-.5-1c.4-.6 1.1-.5 2 .3.7.6 1 1.6.5 2.2m1-3c0 .3-.2.5-.5.5s-.5-.2-.5-.5.2-.5.5-.5.5.2.5.5m0 8c0 .3-.2.5-.5.5s-.5-.2-.5-.5.2-.5.5-.5.5.2.5.5m-5 46c0 .3-.2.5-.5.5s-.5-.2-.5-.5.2-.5.5-.5.5.2.5.5m5 7c0 .8-.7 1.5-1.5 1.5-2.6 0-1.8-2 1.3-2.9.1-.1.2.6.2 1.4m-.3 5.2c-.4.3-1 .3-1.4 0-.3-.4 0-.7.7-.7s1 .3.7.7m-4.7 15.8c0 .3-.2.5-.5.5s-.5-.2-.5-.5.2-.5.5-.5.5.2.5.5m0 14c0 .3-.2.5-.5.5s-.5-.2-.5-.5.2-.5.5-.5.5.2.5.5m-8 7c0 .3-.2.5-.5.5s-.5-.2-.5-.5.2-.5.5-.5.5.2.5.5m-20.3 24.2c-.4.3-1 .3-1.4 0-.3-.4 0-.7.7-.7s1 .3.7.7m-2.7 2.8c0 .3-.2.5-.5.5s-.5-.2-.5-.5.2-.5.5-.5.5.2.5.5m-295 8.9c0 .3-.5.8-1.2 1.2s-.8.3-.4-.4c.7-1.2 1.6-1.6 1.6-.8m-3.3 2.3c-.4.3-.7 0-.7-.7s.3-1 .7-.7c.3.4.3 1 0 1.4m6.3-1.2c0 .3-.2.5-.5.5s-.5-.2-.5-.5.2-.5.5-.5.5.2.5.5m2 2.5c0 .5-.2 1-.4 1-.3 0-.8-.5-1.1-1-.3-.6-.1-1 .4-1 .6 0 1.1.4 1.1 1m6 .5c0 .3-.2.5-.5.5s-.5-.2-.5-.5.2-.5.5-.5.5.2.5.5m12 2c0 .3-.2.5-.5.5s-.5-.2-.5-.5.2-.5.5-.5.5.2.5.5m89 1c0 .3-.2.5-.5.5s-.5-.2-.5-.5.2-.5.5-.5.5.2.5.5m-111 4c0 .3-.2.5-.5.5s-.5-.2-.5-.5.2-.5.5-.5.5.2.5.5m105 1c0 .3-.2.5-.5.5s-.5-.2-.5-.5.2-.5.5-.5.5.2.5.5m-78 3c0 .3-.2.5-.5.5s-.5-.2-.5-.5.2-.5.5-.5.5.2.5.5m83 0c0 .3-.2.5-.5.5s-.5-.2-.5-.5.2-.5.5-.5.5.2.5.5m-12 4c0 .3-.2.5-.5.5s-.5-.2-.5-.5.2-.5.5-.5.5.2.5.5m-99 2c0 .3-.2.5-.5.5s-.5-.2-.5-.5.2-.5.5-.5.5.2.5.5m101 2c0 .3-.2.5-.5.5s-.5-.2-.5-.5.2-.5.5-.5.5.2.5.5m-26.5 4.5c.3.5.1 1-.4 1-.6 0-1.1-.5-1.1-1 0-.6.2-1 .4-1 .3 0 .8.4 1.1 1m22.5-.5c0 .3-.2.5-.5.5s-.5-.2-.5-.5.2-.5.5-.5.5.2.5.5m-60.5 1.5c.3.5.4 1 .1 1s-.8-.5-1.1-1c-.3-.6-.4-1-.1-1s.8.4 1.1 1m35.5 1.5c0 .3-.2.5-.5.5s-.5-.2-.5-.5.2-.5.5-.5.5.2.5.5m-86 3c0 .3-.2.5-.5.5s-.5-.2-.5-.5.2-.5.5-.5.5.2.5.5m129.5.5c.3.5.4 1 .1 1s-.8-.5-1.1-1c-.3-.6-.4-1-.1-1s.8.4 1.1 1m2.5.5c0 .3-.2.5-.5.5s-.5-.2-.5-.5.2-.5.5-.5.5.2.5.5m-4 3c0 .3-.2.5-.5.5s-.5-.2-.5-.5.2-.5.5-.5.5.2.5.5m6 0c0 .3-.2.5-.5.5s-.5-.2-.5-.5.2-.5.5-.5.5.2.5.5m90 0c0 .3-.2.5-.5.5s-.5-.2-.5-.5.2-.5.5-.5.5.2.5.5m-155.3 1.2c-.4.3-1 .3-1.4 0-.3-.4 0-.7.7-.7s1 .3.7.7m-21.7.8c0 .3-.2.5-.5.5s-.5-.2-.5-.5.2-.5.5-.5.5.2.5.5m85.7.2c-.4.3-1 .3-1.4 0-.3-.4 0-.7.7-.7s1 .3.7.7m62.8 5.3c.3.5.1 1-.4 1-.6 0-1.1-.5-1.1-1 0-.6.2-1 .4-1 .3 0 .8.4 1.1 1m6.5.5c0 .3-.2.5-.5.5s-.5-.2-.5-.5.2-.5.5-.5.5.2.5.5m-3 1c0 .3-.2.5-.5.5s-.5-.2-.5-.5.2-.5.5-.5.5.2.5.5m-144 2c0 .3-.2.5-.5.5s-.5-.2-.5-.5.2-.5.5-.5.5.2.5.5m139 0c0 .3-.2.5-.5.5s-.5-.2-.5-.5.2-.5.5-.5.5.2.5.5m-2 1c0 .3-.2.5-.5.5s-.5-.2-.5-.5.2-.5.5-.5.5.2.5.5m14 0c0 .3-.2.5-.5.5s-.5-.2-.5-.5.2-.5.5-.5.5.2.5.5m-12 1c0 .3-.2.5-.5.5s-.5-.2-.5-.5.2-.5.5-.5.5.2.5.5m3.7 1.2c-.4.3-.7 0-.7-.7s.3-1 .7-.7c.3.4.3 1 0 1.4m-196.7-.2c0 .3-.2.5-.5.5s-.5-.2-.5-.5.2-.5.5-.5.5.2.5.5m189.5 1.4c.3.5.2 1.2-.3 1.5s-.9-.1-.9-.9c0-1.7.3-1.9 1.2-.6m-4 3.1c.3.5.4 1 .1 1s-.8-.5-1.1-1c-.3-.6-.4-1-.1-1s.8.4 1.1 1m-131.5 1.5c0 .3-.2.5-.5.5s-.5-.2-.5-.5.2-.5.5-.5.5.2.5.5m4.7.2c-.4.3-1 .3-1.4 0-.3-.4 0-.7.7-.7s1 .3.7.7m-3 1.6c0 .8-.6 1.4-1.4 1.4-.9 0-1-.4-.2-1.4.6-.7 1.2-1.3 1.4-1.3.1 0 .2.6.2 1.3m51.3 1.2c.7.8 1 1.5.6 1.5h-1.1c-.3 0-.5-.3-.4-.6 0-.4-.5-1.1-1.3-1.5-.8-.5-.9-.9-.2-.9.6 0 1.7.7 2.4 1.5m93 1c0 .3-.2.5-.5.5s-.5-.2-.5-.5.2-.5.5-.5.5.2.5.5m-5 4c-1 1.2-1 1.5.3 1.5.8 0 1.8.7 2.1 1.5.5 1.4.1 1.3-2.4-.2-3.4-2-3.8-3-1.2-3.6.9-.3 1.9-.5 2.1-.6.2 0-.2.6-.9 1.4m-193 0c0 .3-.2.5-.5.5s-.5-.2-.5-.5.2-.5.5-.5.5.2.5.5m2.2 1.2c-.6.2-1 .9-.6 1.4.3.5 0 .9-.5.9-1.2 0-1.4-1.3-.4-2.3.3-.4 1.1-.7 1.7-.6.6 0 .5.3-.2.6m52.5 0c-.4.3-1 .3-1.4 0-.3-.4 0-.7.7-.7s1 .3.7.7m-50.7 2.8c0 .3-.2.5-.5.5s-.5-.2-.5-.5.2-.5.5-.5.5.2.5.5m48 0c0 .3-.2.5-.5.5s-.5-.2-.5-.5.2-.5.5-.5.5.2.5.5m3 1c0 .3-.2.5-.5.5s-.5-.2-.5-.5.2-.5.5-.5.5.2.5.5m.7 3.2c-.4.3-.7 0-.7-.7s.3-1 .7-.7c.3.4.3 1 0 1.4m126 1c-.4.3-.2 1.2.4 2 .7.8.8 1.3.1 1.3-1.2 0-2.3-2.6-1.5-3.4.4-.3.9-.6 1.1-.6.3 0 .2.3-.1.7m-176.7 1.8c0 .3-.2.5-.5.5s-.5-.2-.5-.5.2-.5.5-.5.5.2.5.5m-1 3c0 .3-.2.5-.5.5s-.5-.2-.5-.5.2-.5.5-.5.5.2.5.5m178 1c0 .3-.2.5-.5.5s-.5-.2-.5-.5.2-.5.5-.5.5.2.5.5m-130 1c0 .3-.2.5-.5.5s-.5-.2-.5-.5.2-.5.5-.5.5.2.5.5m-57 9c0 .3-.2.5-.5.5s-.5-.2-.5-.5.2-.5.5-.5.5.2.5.5m6 2c0 .3-.2.5-.5.5s-.5-.2-.5-.5.2-.5.5-.5.5.2.5.5m174 5c0 .3-.2.5-.5.5s-.5-.2-.5-.5.2-.5.5-.5.5.2.5.5m-179.3 2.2c-.4.3-.7 0-.7-.7s.3-1 .7-.7c.3.4.3 1 0 1.4m3.3-1.2c0 .3-.2.5-.5.5s-.5-.2-.5-.5.2-.5.5-.5.5.2.5.5m13.1 5.3c.9 2.5-.8 3-3.1.9-1.2-1-1.2-.9-.3.3.5.8 1.2 2.5 1.5 3.6.5 1.8.2 2.1-1.5 1.6-1.4-.3-1.8-.1-1.3.6.4.7.3 1.2-.3 1.2-1.5 0-2.6-2.3-1.3-2.8.7-.2 1.2-.8 1.2-1.3 0-.6-.4-.7-1-.4-1.8 1.1-1.5-4 .3-6 1.6-1.7 4.8-.4 5.8 2.3m27.9.7c0 .3-.2.5-.5.5s-.5-.2-.5-.5.2-.5.5-.5.5.2.5.5m-36 5c0 .3-.2.5-.5.5s-.5-.2-.5-.5.2-.5.5-.5.5.2.5.5m35.7.2c-.4.3-1 .3-1.4 0-.3-.4 0-.7.7-.7s1 .3.7.7m-12 3c-.4.3-.7 0-.7-.7s.3-1 .7-.7c.3.4.3 1 0 1.4m11.6 2.5c-.2.5-1.3.8-2.3.8s-2 .6-2.2 1.4c-.3 1.3-.6 1.3-2.8.1-2.4-1.4-2.4-1.4-.4-1.5 1.5 0 2.4-.8 2.8-2.5.6-2.5.7-2.5 3-.8 1.3 1 2.2 2.1 1.9 2.5m3.7-3.7c0 .3-.2.5-.5.5s-.5-.2-.5-.5.2-.5.5-.5.5.2.5.5m1 2.1c0 .3-.5 1.5-1.1 2.6-.8 1.5-.8 1.9 0 1.4.6-.4 1.1-.3 1.1.3 0 1.6-1.8 2.2-2.6.9-.5-.8-.9-.7-1.4.6-.5 1.6-.7 1.6-2.4-.3-1.9-2.1-1.9-2.1 0-2.1 2.7-.1 5.9-2.6 4.2-3.3-.8-.4-.7-.6.5-.6.9-.1 1.7.2 1.7.5m99-.1c0 .3-.2.5-.5.5s-.5-.2-.5-.5.2-.5.5-.5.5.2.5.5m-149 2c0 .3-.2.5-.5.5s-.5-.2-.5-.5.2-.5.5-.5.5.2.5.5m24.8 7.2c.9.9 2 .9 3.8.3 2-.8 2.9-.6 4.7 1.1l2.2 2.2-2.2-.6c-2.4-.5-3.1.7-1.2 1.8.6.4.8 1.3.5 2-.2.7.2 2.2 1 3.3 1.1 1.6 1.1 2.1 0 2.5-.7.3-1.9.1-2.7-.5-1.1-.8-1-.9.4-.4 2.4.8 2.1-.1-.4-1.5-2-1-2.1-.9-1.7 2 .2 1.7.1 3.1-.4 3.1-.4 0-.8-.5-.8-1 0-.6-.5-1-1.1-1-.5 0-.7.4-.4 1 .3.5.1 1-.4 1-.6 0-1.1-.5-1.1-1 0-.6-.8-1-1.7-1-1.5-.1-1.4-.4.6-2 1.9-1.7 2-2 .6-2-1 0-2.3.7-3 1.7-.8 1.1-1.8 1.4-3.1.8-1.2-.5-1.5-.9-.6-1.2.6-.3 1.2-.9 1.2-1.4 0-.6-.5-.7-1.1-.3-.7.4-1 .1-.7-.7s1-1.3 1.5-1.2.9-1.3.8-3c-.1-1.8 0-3.7.2-4.3.5-1.5 3.4-1.3 5.1.3m2.2-.2c0 .3-.2.5-.5.5s-.5-.2-.5-.5.2-.5.5-.5.5.2.5.5m-9.3 2.2c-.4.3-.7 0-.7-.7s.3-1 .7-.7c.3.4.3 1 0 1.4m-45.7 1.4c0 .6-.4.7-1 .4-.5-.3-1-1.1-1-1.6 0-.6.5-.7 1-.4.6.3 1 1.1 1 1.6m-3.4 2.7c-.4.3-1.1 0-1.6-.8-1.5-2.4-1.1-3.3.6-1.5.9.9 1.3 1.9 1 2.3m7.4-1.8c-1.9 1.2-3 1.2-3 .1 0-1 3.1-2 4-1.4.2.2-.2.8-1 1.3m8-.6c0 .2-.7.7-1.6 1-.8.3-1.2.2-.9-.4.6-1 2.5-1.4 2.5-.6m34 .1c0 .3-.2.5-.5.5s-.5-.2-.5-.5.2-.5.5-.5.5.2.5.5m-18 1c0 .3-.2.5-.5.5s-.5-.2-.5-.5.2-.5.5-.5.5.2.5.5m36.5.6c1.1 1.7 0 2-2.1.4-1.7-1.3-1.7-1.4-.2-1.5.9 0 2 .5 2.3 1.1m-59.2 3.1c-.9 1.5-2.3.8-2.3-1.2 0-1.7.2-1.9 1.4-.8.8.7 1.2 1.6.9 2m-3.6-.5c-.4.3-.7 0-.7-.7s.3-1 .7-.7c.3.4.3 1 0 1.4m61.3.8c0 .3-.2.5-.5.5s-.5-.2-.5-.5.2-.5.5-.5.5.2.5.5m-62 2c0 .3-.2.5-.5.5s-.5-.2-.5-.5.2-.5.5-.5.5.2.5.5m64 0c0 .3-.2.5-.5.5s-.5-.2-.5-.5.2-.5.5-.5.5.2.5.5m0 2c0 .3-.2.5-.5.5s-.5-.2-.5-.5.2-.5.5-.5.5.2.5.5m-10.1 5.2c-1.2 1.4-1.2 1.6.1 1.1 1.1-.4 1.5.2 1.6 1.8.1 1.3-.3 2.4-1 2.4-.6 0-.4.5.4 1 1.1.7 1.1 1 .2 1-.8 0-1 .5-.6 1.2.5.8.2.9-.9.5-1.9-.7-5 2-4.1 3.5.4.6-.2.5-1.5-.1-3-1.7-2.6-3.7 1.1-5.2 1.7-.7 2.6-1.5 2-1.7-1.8-.6-1.4-2.6.8-5 2.4-2.6 3.9-3 1.9-.5m-55.9-.2c0 .3-.2.5-.5.5s-.5-.2-.5-.5.2-.5.5-.5.5.2.5.5m10.5 1.5c.3.5.1 1-.4 1-.6 0-1.1-.5-1.1-1 0-.6.2-1 .4-1 .3 0 .8.4 1.1 1m37.7 1.2c-.7.7-1.2.8-1.2.2 0-1.4 1.2-2.6 1.9-1.9.2.3-.1 1.1-.7 1.7m-36.2 1.3c0 .3-.2.5-.5.5s-.5-.2-.5-.5.2-.5.5-.5.5.2.5.5m-11.3 2.2c-.4.3-.7 0-.7-.7s.3-1 .7-.7c.3.4.3 1 0 1.4m17.3-.7c0 .5-.5 1-1.1 1-.5 0-.7-.5-.4-1 .3-.6.8-1 1.1-1 .2 0 .4.4.4 1m10-.5c0 .3-.2.5-.5.5s-.5-.2-.5-.5.2-.5.5-.5.5.2.5.5m-22 .9c0 .3-.4.8-1 1.1-.5.3-1 .1-1-.4 0-.6.5-1.1 1-1.1.6 0 1 .2 1 .4m14 1.6c0 .5-.5 1-1.1 1-.5 0-.7-.5-.4-1 .3-.6.8-1 1.1-1 .2 0 .4.4.4 1m28-.5c0 .3-.2.5-.5.5s-.5-.2-.5-.5.2-.5.5-.5.5.2.5.5m-22.3 3.2c-.4.3-.7 0-.7-.7s.3-1 .7-.7c.3.4.3 1 0 1.4m21 0c-.4.3-.7 0-.7-.7s.3-1 .7-.7c.3.4.3 1 0 1.4m-34.7.8c0 .3-.2.5-.5.5s-.5-.2-.5-.5.2-.5.5-.5.5.2.5.5m-12 3c0 .3-.2.5-.5.5s-.5-.2-.5-.5.2-.5.5-.5.5.2.5.5m1 16.1c0 .8.7 1.4 1.5 1.4 2 0 1.9 3.9 0 4.7-2.1.7-4.4-2.4-4.5-5.9 0-2 .4-2.6 1.5-2.2.8.4 1.5 1.2 1.5 2m2-2.1c0 .3-.2.5-.5.5s-.5-.2-.5-.5.2-.5.5-.5.5.2.5.5m8.5 3.5c.3.5.1 1-.4 1-.6 0-1.1-.5-1.1-1 0-.6.2-1 .4-1 .3 0 .8.4 1.1 1m3.5.5c0 .3-.2.5-.5.5s-.5-.2-.5-.5.2-.5.5-.5.5.2.5.5m-4 8c0 .3-.2.5-.5.5s-.5-.2-.5-.5.2-.5.5-.5.5.2.5.5m6.5 2.5c-1.7 1.9-3.5 1.9-3.5-.2 0-.5.7-.8 1.5-.4.8.3 1.5.1 1.5-.4 0-.6.5-1 1.2-1 .6 0 .3.8-.7 2m3.2.7c-.4.3-.7 0-.7-.7s.3-1 .7-.7c.3.4.3 1 0 1.4m2 1c-.4.3-.7 0-.7-.7s.3-1 .7-.7c.3.4.3 1 0 1.4m-37.7 8.8c0 .3-.2.5-.5.5s-.5-.2-.5-.5.2-.5.5-.5.5.2.5.5m4 2c0 .3-.2.5-.5.5s-.5-.2-.5-.5.2-.5.5-.5.5.2.5.5m4 .5c0 .5-.2 1-.4 1-.3 0-.8-.5-1.1-1-.3-.6-.1-1 .4-1 .6 0 1.1.4 1.1 1m-5 3.1c0 .6-.4.7-1 .4-.5-.3-1-1.1-1-1.6 0-.6.5-.7 1-.4.6.3 1 1.1 1 1.6m2-1.6c0 .3-.2.5-.5.5s-.5-.2-.5-.5.2-.5.5-.5.5.2.5.5m-10 5c0 .3-.2.5-.5.5s-.5-.2-.5-.5.2-.5.5-.5.5.2.5.5m7.7 2.1c-.3.3-1.2.4-1.9.1-.8-.3-.5-.6.6-.6 1.1-.1 1.7.2 1.3.5m-8.7.9c0 .3-.2.5-.5.5s-.5-.2-.5-.5.2-.5.5-.5.5.2.5.5m10.5 3.2c0 1.6-.8 3.4-1.8 4.1-1.5 1.2-2.2 1.1-4.5-.5-1.5-1-3.2-2-3.9-2.3-.8-.3-.9-1-.3-1.9.7-1.3 1.1-1.3 2.5-.1 1.5 1.2 1.8 1.2 2.6-.3.6-.9 2-1.7 3.2-1.7 1.8 0 2.3.6 2.2 2.7m-12.5-.2c0 .3-.2.5-.5.5s-.5-.2-.5-.5.2-.5.5-.5.5.2.5.5m-1.3 3.2c-.4.3-.7 0-.7-.7s.3-1 .7-.7c.3.4.3 1 0 1.4m45.3 3.8c0 .3-.2.5-.5.5s-.5-.2-.5-.5.2-.5.5-.5.5.2.5.5m-48 2c0 .3-.2.5-.5.5s-.5-.2-.5-.5.2-.5.5-.5.5.2.5.5m-2 1c0 .3-.2.5-.5.5s-.5-.2-.5-.5.2-.5.5-.5.5.2.5.5m20 0c0 .3-.2.5-.5.5s-.5-.2-.5-.5.2-.5.5-.5.5.2.5.5m28 0c0 .3-.2.5-.5.5s-.5-.2-.5-.5.2-.5.5-.5.5.2.5.5m-44.3 1.2c-.4.3-1 .3-1.4 0-.3-.4 0-.7.7-.7s1 .3.7.7m29.8 3.2c-.6.5-2.5-1-2.5-2 0-.5.6-.4 1.4.3s1.2 1.5 1.1 1.7m-18.5-.4c0 .3-.2.5-.5.5s-.5-.2-.5-.5.2-.5.5-.5.5.2.5.5m21 0c0 .3-.2.5-.5.5s-.5-.2-.5-.5.2-.5.5-.5.5.2.5.5m-12 4c0 .3-.2.5-.5.5s-.5-.2-.5-.5.2-.5.5-.5.5.2.5.5m-9 8c0 .3-.2.5-.5.5s-.5-.2-.5-.5.2-.5.5-.5.5.2.5.5m-7.3 2.2c-.4.3-1 .3-1.4 0-.3-.4 0-.7.7-.7s1 .3.7.7m.3 3.8c0 .3-.2.5-.5.5s-.5-.2-.5-.5.2-.5.5-.5.5.2.5.5m41 2c0 .3-.2.5-.5.5s-.5-.2-.5-.5.2-.5.5-.5.5.2.5.5m-45 2.5c0 .5-.5 1-1.1 1-.5 0-.7-.5-.4-1 .3-.6.8-1 1.1-1 .2 0 .4.4.4 1m45 2.5c0 .3-.2.5-.5.5s-.5-.2-.5-.5.2-.5.5-.5.5.2.5.5m2.5.5c.3.5.4 1 .1 1s-.8-.5-1.1-1c-.3-.6-.4-1-.1-1s.8.4 1.1 1m-38.5 3.5c0 .3-.2.5-.5.5s-.5-.2-.5-.5.2-.5.5-.5.5.2.5.5m33.6 31.2c-1 1.1-3.6 1.2-3.6.2 0-.5 1-.9 2.2-.9s1.8.3 1.4.7m.4 2.8c0 .3-.2.5-.5.5s-.5-.2-.5-.5.2-.5.5-.5.5.2.5.5m-2 4c0 .3-.2.5-.5.5s-.5-.2-.5-.5.2-.5.5-.5.5.2.5.5m2 1c0 .3-.2.5-.5.5s-.5-.2-.5-.5.2-.5.5-.5.5.2.5.5m1 4.6c-.7 1.2-.5 1.9.7 2.3 2.2.9 3.1-.3 1.3-1.5-1.1-.8-1-.9.8-.4 1.2.3 2.2.2 2.2-.3 0-.6.7-1.3 1.6-1.6 1.2-.5 1.4-.1.9 1.5-.4 1.3-.3 1.9.2 1.6.5-.4 1 .1 1 .9 0 1.1-.7 1.4-2.3 1s-2.2-.2-2 .6c.1.7.1 1-.1.6s-1-.5-1.8-.2c-.7.3-2.3-.4-3.4-1.5-2.2-2.2-2.5-2.2-1.5.3.3.9 1.4 1.6 2.3 1.6 1.4.1 1.4.2-.1 1.4-1 .7-1.8 1.9-1.8 2.5 0 .7-.4 1-.9.6-1-.6-.9-8.4.2-10.1.3-.6 1.3-1.1 2.1-1.1 1.1 0 1.3.5.6 1.8m-5 7.4c0 .3-.2.5-.5.5s-.5-.2-.5-.5.2-.5.5-.5.5.2.5.5m7 1c0 .3-.2.5-.5.5s-.5-.2-.5-.5.2-.5.5-.5.5.2.5.5m1.3 3c-.3.9-.8 1.4-1 1.1-.3-.3-.2-.9.2-1.5.9-1.6 1.5-1.3.8.4m2.7-1c0 .3-.2.5-.5.5s-.5-.2-.5-.5.2-.5.5-.5.5.2.5.5m-10 1c0 .3-.2.5-.5.5s-.5-.2-.5-.5.2-.5.5-.5.5.2.5.5m5 0c0 .3-.2.5-.5.5s-.5-.2-.5-.5.2-.5.5-.5.5.2.5.5m-2 1c0 .3-.2.5-.5.5s-.5-.2-.5-.5.2-.5.5-.5.5.2.5.5m10 .5c.4 0 1 .6 1.3 1.3q.6 1.5-1.8.9c-1.3-.2-2.6-1.1-2.9-1.9-.5-1.1-.2-1.3 1-.9.8.3 1.9.6 2.4.6m64.5 3c.3.5.1 1-.4 1-.6 0-1.1-.5-1.1-1 0-.6.2-1 .4-1 .3 0 .8.4 1.1 1m-20.8 2.7c-.4.3-1 .3-1.4 0-.3-.4 0-.7.7-.7s1 .3.7.7m2.3-.2c0 .3-.2.5-.5.5s-.5-.2-.5-.5.2-.5.5-.5.5.2.5.5m-18 1c0 .3-.2.5-.5.5s-.5-.2-.5-.5.2-.5.5-.5.5.2.5.5m5 0c0 .3-.2.5-.5.5s-.5-.2-.5-.5.2-.5.5-.5.5.2.5.5m-17.3 4.2c-.4.3-1 .3-1.4 0-.3-.4 0-.7.7-.7s1 .3.7.7M2934 2196.5c0 .3-.2.5-.5.5s-.5-.2-.5-.5.2-.5.5-.5.5.2.5.5m4 3c0 .3-.2.5-.5.5s-.5-.2-.5-.5.2-.5.5-.5.5.2.5.5m1465 4c0 .3-.2.5-.5.5s-.5-.2-.5-.5.2-.5.5-.5.5.2.5.5m-1467 28c0 .3-.2.5-.5.5s-.5-.2-.5-.5.2-.5.5-.5.5.2.5.5m1459.7 2.2c-.4.3-1 .3-1.4 0-.3-.4 0-.7.7-.7s1 .3.7.7m4.3 1.8c0 .3-.2.5-.5.5s-.5-.2-.5-.5.2-.5.5-.5.5.2.5.5m-1 3c0 .3-.2.5-.5.5s-.5-.2-.5-.5.2-.5.5-.5.5.2.5.5m-1510 .9c0 .3-.5.8-1.2 1.2s-.8.3-.4-.4c.7-1.2 1.6-1.6 1.6-.8m1513.4 2.1c.3.8.1 1.5-.4 1.5-.6 0-1-.7-1-1.5s.2-1.5.4-1.5.6.7 1 1.5m2.6 1.5c-.6 1.1-1.2 2-1.4 2s-.2-.9.1-2 .9-2 1.5-2c.5 0 .4.9-.2 2m-1516-.5c0 .3-.2.5-.5.5s-.5-.2-.5-.5.2-.5.5-.5.5.2.5.5m24 1c0 .3-.2.5-.5.5s-.5-.2-.5-.5.2-.5.5-.5.5.2.5.5m-21.8 4.7c1.4-.3 1.9-.1 1.4.6-.4.7-.3 1.2.3 1.2 1.9 0 2.2-2 .7-3.6-2.2-2.1-2-3 .2-1.3 2.4 1.9 4.1 4.2 4.1 5.4 0 .5-.3.4-.6-.3-.4-1-.8-1-1.8-.2-1.6 1.4-.9 4 1.1 4 .8 0 1.4.5 1.4 1.1 0 .7-1 .5-2.5-.5-1.4-.9-2.9-1.5-3.4-1.2-1.5 1-5.1-3.4-4.7-5.7.8-4.1.9-4.2 1.3-1.6.3 2.2.8 2.6 2.5 2.1m29.8-3.7c0 .3-.2.5-.5.5s-.5-.2-.5-.5.2-.5.5-.5.5.2.5.5m1489 0c0 .3-.2.5-.5.5s-.5-.2-.5-.5.2-.5.5-.5.5.2.5.5m-1480 2c0 .3-.2.5-.5.5s-.5-.2-.5-.5.2-.5.5-.5.5.2.5.5m1479-.1c0 .2-.7.7-1.6 1-.8.3-1.2.2-.9-.4.6-1 2.5-1.4 2.5-.6m-1480 5.1c0 .3-.2.5-.5.5s-.5-.2-.5-.5.2-.5.5-.5.5.2.5.5m1.7 1.2c-.4.3-.7 0-.7-.7s.3-1 .7-.7c.3.4.3 1 0 1.4m-33.7-.2c0 .3-.2.5-.5.5s-.5-.2-.5-.5.2-.5.5-.5.5.2.5.5m1496.5 1.5c.3.5.1 1-.4 1-.6 0-1.1-.5-1.1-1 0-.6.2-1 .4-1 .3 0 .8.4 1.1 1m-1493.5.5c0 .3-.2.5-.5.5s-.5-.2-.5-.5.2-.5.5-.5.5.2.5.5m30 1c0 .8-.6 1.4-1.2 1.2-.7-.1-1.2.4-1 1 .1.7-.2 1.3-.8 1.3-1.5 0-1.2-1.1.7-3.2 2-2.2 2.3-2.2 2.3-.3m-9 1.5c0 .5-.4 1.2-1 1.5-.5.3-1 .4-1 .1 0-.2-.3-1.2-.6-2-.5-1.2-.2-1.5 1-1 .9.3 1.6 1 1.6 1.4m-4.3 2.7c-1.1 1.1-1.7 1.3-1.7.5 0-.7.4-1.2 1-1.2.5 0 .7-.8.3-1.8-.5-1.4-.3-1.5.8-.4 1.1 1 1 1.5-.4 2.9m1490-3c-.4.3-1 .3-1.4 0-.3-.4 0-.7.7-.7s1 .3.7.7m7.2 3c-.7.7-1.8 1.2-2.5.9s-1.8.2-2.4 1c-1.4 1.6-3.6 1.8-4.5.5-.3-.6.3-.8 1.4-.6q1.95.3 1.5-.9c-.6-1.6 2.3-3 3.1-1.5.4.5 1.1.7 1.6.3.5-.3.7-1 .4-1.5s.1-.6 1-.3c1.2.5 1.3.9.4 2.1m-1516.9-1.2c0 .3-.2.5-.5.5s-.5-.2-.5-.5.2-.5.5-.5.5.2.5.5m15.5 1.4c-1.1.5-2.3.7-2.7.4-.5-.2-.8.5-.8 1.6 0 1.2-.4 2.1-.9 2.1-.4 0-.6-1.1-.3-2.5.3-2.1 1-2.5 3.6-2.4 2.6 0 2.8.2 1.1.8m17.5-.4c0 .3-.2.5-.5.5s-.5-.2-.5-.5.2-.5.5-.5.5.2.5.5m1455 0c0 .3-.2.5-.5.5s-.5-.2-.5-.5.2-.5.5-.5.5.2.5.5m17.7 2.2c-.4.3-.7 0-.7-.7s.3-1 .7-.7c.3.4.3 1 0 1.4m-1489 1.2c-.1 1.5-.4 1.7-1.9.8-1.3-.8-1.4-1.3-.5-1.9 1.9-1.2 2.6-.9 2.4 1.1m31.3-1.4c0 .3-.2.5-.5.5s-.5-.2-.5-.5.2-.5.5-.5.5.2.5.5m1436 0c0 .3-.2.5-.5.5s-.5-.2-.5-.5.2-.5.5-.5.5.2.5.5m33.7 2c-.9.8-1.8 1.1-2.2.6-.3-.6.3-1.4 1.2-2 2.4-1.3 2.9-.6 1 1.4m-1484.7-1.1c0 .2-.7.7-1.6 1-.8.3-1.2.2-.9-.4.6-1 2.5-1.4 2.5-.6m1487.7 2.3c-.4.3-.7 0-.7-.7s.3-1 .7-.7c.3.4.3 1 0 1.4m-1493 0c-.4.3-1 .3-1.4 0-.3-.4 0-.7.7-.7s1 .3.7.7m-19.4 1.8c-.3.9-.8 1.4-1 1.1-.3-.3-.2-.9.2-1.5.9-1.6 1.5-1.3.8.4m5.7-1c0 .3-.2.5-.5.5s-.5-.2-.5-.5.2-.5.5-.5.5.2.5.5m6.7 2.2c-.4.3-.7 0-.7-.7s.3-1 .7-.7c.3.4.3 1 0 1.4m1462.8-.7c.3.5.1 1-.4 1-.6 0-1.1-.5-1.1-1 0-.6.2-1 .4-1 .3 0 .8.4 1.1 1m32.5-.5c0 .3-.2.5-.5.5s-.5-.2-.5-.5.2-.5.5-.5.5.2.5.5m3.7.1c-.3.3-1.2.4-1.9.1-.8-.3-.5-.6.6-.6 1.1-.1 1.7.2 1.3.5m-1501.2 2.4c-.9 1.5 1.5 2.2 3 1 1.1-.9 1.5-.9 1.5-.1 0 .6-.5 1.1-1.1 1.1-.5 0-.8.4-.4.9.3.5.1 1.2-.5 1.6-1.1.7-5.5-1.4-4.6-2.2.3-.4 0-1.3-.7-2.1-.9-1.3-.9-1.4.1-.8.7.4 1.2.2 1.2-.4s.5-.8 1-.5c.6.4.8 1 .5 1.5m8.5 1.8c0 1.5-.2 1.5-1 .2-1.3-2-1.3-3.3 0-2.5.6.3 1 1.4 1 2.3m-14-.3c0 .3-.2.5-.5.5s-.5-.2-.5-.5.2-.5.5-.5.5.2.5.5m0 2c0 .3-.2.5-.5.5s-.5-.2-.5-.5.2-.5.5-.5.5.2.5.5m12 1.5c0 .5-.5 1-1.1 1-.5 0-.7-.5-.4-1 .3-.6.8-1 1.1-1 .2 0 .4.4.4 1m2.5 4c.3.5.4 1 .1 1s-.8-.5-1.1-1c-.3-.6-.4-1-.1-1s.8.4 1.1 1m1431.5-.5c0 .3-.2.5-.5.5s-.5-.2-.5-.5.2-.5.5-.5.5.2.5.5m4 1c0 .3-.2.5-.5.5s-.5-.2-.5-.5.2-.5.5-.5.5.2.5.5m-29 8c0 .3-.2.5-.5.5s-.5-.2-.5-.5.2-.5.5-.5.5.2.5.5m0 3c0 .3-.2.5-.5.5s-.5-.2-.5-.5.2-.5.5-.5.5.2.5.5m-5 4c0 .3-.2.5-.5.5s-.5-.2-.5-.5.2-.5.5-.5.5.2.5.5m-673 4.9c0 .8-1.8 1.8-4 2.4-3.6.9-4 .8-4-.8 0-2.1 1.3-2.8 5.3-2.9 1.7-.1 2.7.4 2.7 1.3m663.7 2.3c-.4.3-1 .3-1.4 0-.3-.4 0-.7.7-.7s1 .3.7.7m-5.7 3.8c0 .3-.2.5-.5.5s-.5-.2-.5-.5.2-.5.5-.5.5.2.5.5m-9 4c0 .3-.2.5-.5.5s-.5-.2-.5-.5.2-.5.5-.5.5.2.5.5m-1333 2c0 .3-.2.5-.5.5s-.5-.2-.5-.5.2-.5.5-.5.5.2.5.5m3.7.2c-.4.3-1 .3-1.4 0-.3-.4 0-.7.7-.7s1 .3.7.7m1281.9 7.5c.5.7.3.8-.6.3-.8-.5-1.8-.1-2.7 1-1 1.5-1.3 1.6-1.3.4 0-2.9 3.2-4 4.6-1.7m-663.6 11.3c0 .3-.2.5-.5.5s-.5-.2-.5-.5.2-.5.5-.5.5.2.5.5m0 2c0 .3-.2.5-.5.5s-.5-.2-.5-.5.2-.5.5-.5.5.2.5.5m623 19c0 .3-.2.5-.5.5s-.5-.2-.5-.5.2-.5.5-.5.5.2.5.5m-1140.6 7.8c-.3.9-1.2 1.3-2.1 1-1.4-.5-1.3-.8.2-2 2.2-1.5 2.8-1.2 1.9 1m-31.4 3.2c0 .3-.2.5-.5.5s-.5-.2-.5-.5.2-.5.5-.5.5.2.5.5m9.7 14.6c-.3 1.1 0 1.9.6 1.9s.8.3.5.6c-.4.3-1.6.1-2.7-.5-1.7-1-1.9-1.5-.9-3.1 1.4-2.3 3.2-1.5 2.5 1.1m344.3-2.6c0 .3-.2.5-.5.5s-.5-.2-.5-.5.2-.5.5-.5.5.2.5.5m217 10.9c0 .2-.8 1-1.7 1.7-1.6 1.3-1.7 1.2-.4-.4s2.1-2.1 2.1-1.3m-356 2.1c0 .3-.2.5-.5.5s-.5-.2-.5-.5.2-.5.5-.5.5.2.5.5m431.7 2.2c-.4.3-1 .3-1.4 0-.3-.4 0-.7.7-.7s1 .3.7.7m-414.2 1.3c.3.5.4 1 .1 1s-.8-.5-1.1-1c-.3-.6-.4-1-.1-1s.8.4 1.1 1m-149.5.5c0 .3-.2.5-.5.5s-.5-.2-.5-.5.2-.5.5-.5.5.2.5.5m486.7 3.8c-.1.7.4 1.1 1.1.9.6-.1 1.2.5 1.2 1.3s-.5 1.5-1.1 1.5c-.5 0-.7.4-.4 1 .9 1.5-2.4 1.2-4-.4-1.1-1-1.1-1.6-.2-2.6s.9-1.1-.1-.6c-.7.4-1.5.1-1.8-.8-.3-.8-1.2-1.2-2-.9s-1.4 0-1.4-.5c0-1.1 3.1-.9 5.2.4.8.5.9.2.5-1-.6-1.4-.3-1.5 1.3-.6 1.1.6 1.9 1.6 1.7 2.3m-336.7-1.8c0 .3-.2.5-.5.5s-.5-.2-.5-.5.2-.5.5-.5.5.2.5.5m907 0c0 .3-.2.5-.5.5s-.5-.2-.5-.5.2-.5.5-.5.5.2.5.5m-927.6 1.4c.3.5-.2 1.5-1.2 2.2-1.5 1.2-1.6 1.2-.5-.2.7-.9 1-1.9.6-2.2-.3-.4-.4-.7 0-.7.3 0 .8.4 1.1.9m-12.7 1.8c-.4.3-.7 0-.7-.7s.3-1 .7-.7c.3.4.3 1 0 1.4m-1.7.7c0 .3-.5.8-1.2 1.2s-.8.3-.4-.4c.7-1.2 1.6-1.6 1.6-.8m32 1.1c0 .3-.2.5-.5.5s-.5-.2-.5-.5.2-.5.5-.5.5.2.5.5m-46 1c0 .3-.2.5-.5.5s-.5-.2-.5-.5.2-.5.5-.5.5.2.5.5m364 0c0 .3-.2.5-.5.5s-.5-.2-.5-.5.2-.5.5-.5.5.2.5.5m-317 1c0 .3-.2.5-.5.5s-.5-.2-.5-.5.2-.5.5-.5.5.2.5.5m-145 1c0 .3-.2.5-.5.5s-.5-.2-.5-.5.2-.5.5-.5.5.2.5.5m3 0c0 .3-.2.5-.5.5s-.5-.2-.5-.5.2-.5.5-.5.5.2.5.5m147 1.1c0 .2-.7.4-1.5.4s-1.5-.4-1.5-1c0-.5.7-.7 1.5-.4.8.4 1.5.8 1.5 1m-11-.1c0 .3-.2.5-.5.5s-.5-.2-.5-.5.2-.5.5-.5.5.2.5.5m-137 1c0 .3-.2.5-.5.5s-.5-.2-.5-.5.2-.5.5-.5.5.2.5.5m25 0c0 .3-.2.5-.5.5s-.5-.2-.5-.5.2-.5.5-.5.5.2.5.5m-95 1c0 .3-.2.5-.5.5s-.5-.2-.5-.5.2-.5.5-.5.5.2.5.5m3 0c0 .3-.2.5-.5.5s-.5-.2-.5-.5.2-.5.5-.5.5.2.5.5m156.7.2c-.4.3-1 .3-1.4 0-.3-.4 0-.7.7-.7s1 .3.7.7m40.3-.2c0 .3-.2.5-.5.5s-.5-.2-.5-.5.2-.5.5-.5.5.2.5.5m-113 1c0 .3-.2.5-.5.5s-.5-.2-.5-.5.2-.5.5-.5.5.2.5.5m-73 4c0 .3-.2.5-.5.5s-.5-.2-.5-.5.2-.5.5-.5.5.2.5.5m620 2.5c0 .5-.2 1-.4 1-.3 0-.8-.5-1.1-1-.3-.6-.1-1 .4-1 .6 0 1.1.4 1.1 1m4-.5c0 .3-.2.5-.5.5s-.5-.2-.5-.5.2-.5.5-.5.5.2.5.5m-568 2c0 .3-.2.5-.5.5s-.5-.2-.5-.5.2-.5.5-.5.5.2.5.5m42.7 5.2c-.4.3-.7 0-.7-.7s.3-1 .7-.7c.3.4.3 1 0 1.4m8.3-1.2c0 .3-.2.5-.5.5s-.5-.2-.5-.5.2-.5.5-.5.5.2.5.5m-5.3 1.2c-.4.3-1 .3-1.4 0-.3-.4 0-.7.7-.7s1 .3.7.7m-65.7.8c0 .3-.2.5-.5.5s-.5-.2-.5-.5.2-.5.5-.5.5.2.5.5m657 1c0 .3-.2.5-.5.5s-.5-.2-.5-.5.2-.5.5-.5.5.2.5.5m-659 1c0 .3-.2.5-.5.5s-.5-.2-.5-.5.2-.5.5-.5.5.2.5.5m608 1c0 .3-.2.5-.5.5s-.5-.2-.5-.5.2-.5.5-.5.5.2.5.5m50 0c0 .3-.2.5-.5.5s-.5-.2-.5-.5.2-.5.5-.5.5.2.5.5m-659 1c0 .3-.2.5-.5.5s-.5-.2-.5-.5.2-.5.5-.5.5.2.5.5m609 2c.7.9.8 1.5.2 1.5-.5 0-1.2-.7-1.6-1.5-.3-.8-.4-1.5-.2-1.5s.9.7 1.6 1.5m99-1c0 .3-.2.5-.5.5s-.5-.2-.5-.5.2-.5.5-.5.5.2.5.5m-48 3c0 .3-.2.5-.5.5s-.5-.2-.5-.5.2-.5.5-.5.5.2.5.5m-642 1c0 .3-.2.5-.5.5s-.5-.2-.5-.5.2-.5.5-.5.5.2.5.5m699 0c0 .3-.2.5-.5.5s-.5-.2-.5-.5.2-.5.5-.5.5.2.5.5m-57.3 2.2c-.4.3-.7 0-.7-.7s.3-1 .7-.7c.3.4.3 1 0 1.4m-651.7-.2c0 .3-.2.5-.5.5s-.5-.2-.5-.5.2-.5.5-.5.5.2.5.5m589 0c0 .3-.2.5-.5.5s-.5-.2-.5-.5.2-.5.5-.5.5.2.5.5m4.5.4c.3.5.2 1.2-.3 1.5s-.9-.1-.9-.9c0-1.7.3-1.9 1.2-.6m440.5.6c0 .3-.2.5-.5.5s-.5-.2-.5-.5.2-.5.5-.5.5.2.5.5m13.7 1.2c-.4.3-.7 0-.7-.7s.3-1 .7-.7c.3.4.3 1 0 1.4m-381.7-.2c0 .3-.2.5-.5.5s-.5-.2-.5-.5.2-.5.5-.5.5.2.5.5m-71 1c0 .3-.2.5-.5.5s-.5-.2-.5-.5.2-.5.5-.5.5.2.5.5m52 0c0 .3-.2.5-.5.5s-.5-.2-.5-.5.2-.5.5-.5.5.2.5.5m21.7.2c-.4.3-1 .3-1.4 0-.3-.4 0-.7.7-.7s1 .3.7.7m20.3-.2c0 .3-.2.5-.5.5s-.5-.2-.5-.5.2-.5.5-.5.5.2.5.5m-48 2c0 .3-.2.5-.5.5s-.5-.2-.5-.5.2-.5.5-.5.5.2.5.5m42 0c0 .3-.2.5-.5.5s-.5-.2-.5-.5.2-.5.5-.5.5.2.5.5m3 0c0 .3-.2.5-.5.5s-.5-.2-.5-.5.2-.5.5-.5.5.2.5.5m360 0c0 .3-.2.5-.5.5s-.5-.2-.5-.5.2-.5.5-.5.5.2.5.5m-398 3c0 .3-.2.5-.5.5s-.5-.2-.5-.5.2-.5.5-.5.5.2.5.5m31 1c0 .3-.2.5-.5.5s-.5-.2-.5-.5.2-.5.5-.5.5.2.5.5m2 0c0 .3-.2.5-.5.5s-.5-.2-.5-.5.2-.5.5-.5.5.2.5.5m-78 3c0 .3-.2.5-.5.5s-.5-.2-.5-.5.2-.5.5-.5.5.2.5.5m42 1c0 .3-.2.5-.5.5s-.5-.2-.5-.5.2-.5.5-.5.5.2.5.5m26.7 1.2c-.4.3-.7 0-.7-.7s.3-1 .7-.7c.3.4.3 1 0 1.4m363.3-1.2c0 .3-.2.5-.5.5s-.5-.2-.5-.5.2-.5.5-.5.5.2.5.5m-304 2c0 .3-.2.5-.5.5s-.5-.2-.5-.5.2-.5.5-.5.5.2.5.5m-93 1c0 .3-.2.5-.5.5s-.5-.2-.5-.5.2-.5.5-.5.5.2.5.5m3.5 1.5c.3.5.4 1 .1 1s-.8-.5-1.1-1c-.3-.6-.4-1-.1-1s.8.4 1.1 1m101.5-.5c0 .3-.2.5-.5.5s-.5-.2-.5-.5.2-.5.5-.5.5.2.5.5m-128 1c0 .3-.2.5-.5.5s-.5-.2-.5-.5.2-.5.5-.5.5.2.5.5m24 0c0 .3-.2.5-.5.5s-.5-.2-.5-.5.2-.5.5-.5.5.2.5.5m1 2c0 .3-.2.5-.5.5s-.5-.2-.5-.5.2-.5.5-.5.5.2.5.5m-1.6 2c.3.8.1 1.5-.4 1.5-.6 0-1-.7-1-1.5s.2-1.5.4-1.5.6.7 1 1.5m107.6-1c0 .3-.2.5-.5.5s-.5-.2-.5-.5.2-.5.5-.5.5.2.5.5m6 2c0 .3-.2.5-.5.5s-.5-.2-.5-.5.2-.5.5-.5.5.2.5.5m-167.3 4.2c-.4.3-.7 0-.7-.7s.3-1 .7-.7c.3.4.3 1 0 1.4m60.3-.2c0 .3-.2.5-.5.5s-.5-.2-.5-.5.2-.5.5-.5.5.2.5.5m-17 1c0 .3-.2.5-.5.5s-.5-.2-.5-.5.2-.5.5-.5.5.2.5.5m16 1c0 .3-.2.5-.5.5s-.5-.2-.5-.5.2-.5.5-.5.5.2.5.5m128.7.2c-.4.3-1 .3-1.4 0-.3-.4 0-.7.7-.7s1 .3.7.7m-111.3 1.4c-.4.8.1.9 1.7.3 2.1-.8 4.6-.8 11.1-.4 1 .1 2.1.6 2.4 1.2.4.6 1 .5 1.6-.3.6-1 .7-.7.3.8-.4 1.6-.2 2.3.7 2.3 1 0 .9.3-.2 1-1.2.8-1.2 1.2-.3 1.8s1 1.7.3 4.2-.6 3.6.3 4.2c.6.4.7.8.2.8-.6 0-1.1.9-1.2 1.9-.1 1.3.3 1.8 1.2 1.4 1.2-.4 1.3 0 .3 2.8-.9 2.5-.8 3.4 0 3.7.7.2 1.2.8 1.2 1.3 0 .6-.4.8-.9.4-.5-.3-1.2-.1-1.6.5-.3.5.3 1 1.4 1s2.3.5 2.6 1c.4.6 1.2.7 1.8.3.7-.4.6 0-.2 1-.7.9-2 1.7-2.8 1.7-.7 0-1.6.7-1.9 1.5-.4.8-1.2 1.5-2 1.5-1.3 0-1.8 1.2-1.5 3.2 0 .5-.7.8-1.6.8-1.1 0-1.4.3-.7.8 2.4 1.6 3.3 4.7 1.8 6.7-.8 1-1.4 1.5-1.4 1.1s-.5-.4-1-.1c-.8.5-.8 1.1-.1 1.9.6.7.8 1.6.4 1.9-.3.4 0 .7.7.7s1 .3.7.6c-.4.4-1.3.1-2.1-.5-.8-.7-2-1-2.7-.6-.8.6-.7 1 .2 1.6 1.1.8 1.1 1.1-.3 1.9-1 .7-1.5 1.7-1.1 2.8.4 1.3.2 1.3-1-.3-1-1.3-1.2-2.2-.5-2.6.6-.4.1-1-1-1.4-1.2-.3-3-.1-3.9.5-1.5.8-1.3.9 1.2.5 1.7-.3 2.4-.2 1.7.1-.6.3-1 1-.6 1.5 1 1.7-1.2.9-4.5-1.5-2-1.5-4-2.2-5.3-1.8-1.5.3-1.9.1-1.4-.7.4-.6 1.1-.9 1.5-.7 1.2.8 5.1-3.3 6.7-6.8.7-1.7 1.3-2.5 1.4-1.9 0 .7.9 1.3 2.1 1.3 1.6 0 1.9-.4 1.4-2-.4-1.1-.2-2 .4-2s1.1.4 1.1 1c0 .5.5 1 1 1 .6 0 1-.7 1-1.5s-.5-1.5-1.2-1.5-.5-.5.4-1.3c.9-.6 1.9-2.2 2.3-3.5.5-1.9.3-2.2-1.9-2.2-1.4 0-2.6.4-2.6 1 0 .5.5 1 1.1 1 .5 0 .8.4.5.8-.7 1.2-5.2.8-4.6-.4.3-.5.8-.8 1.3-.7.4.2.7-.4.7-1.2s-.9-1.5-2-1.5-2-.5-2-1c0-.6.5-1 1-1 .6 0 1-.8 1-1.8 0-1.1 1.2-2.4 2.7-3.1 2.6-1.2 2.7-1.3.8-2.4-2.7-1.6-3.8-1.5-5.1.2s-3.5.6-2.8-1.4c.6-1.4-3.3-4.1-4.4-3.1-.3.3-1.6-.1-2.9-.9-2.1-1.4-2.7-1.2-2.4.7.1.8-1.2 1-2.6.5-.5-.1-.6-.8-.5-1.6.2-.7-.1-1-.7-.6-.6.3-1.1-.1-1.1-1s-.7-2.3-1.5-3.2c-.8-.8-1.3-1.9-1-2.4.8-1.2-2.2-1.2-4.5.1-1.3.7-2.1.7-2.6-.2q-.75-1.05.6-.3c.9.6 1.1 0 .5-2.4-.5-2.5-.3-3.1 1-3.1.9 0 1.3-.5 1-1-.3-.6-.1-1.1.4-1.1.6-.1 1.7-.2 2.4-.3.6-.1 1.5.3 1.9.8.4.6 1.3.5 2.2-.3 1.8-1.5 2-.8.6 1.9-.9 1.6-.7 1.8 1.5 1.6 1.4-.1 2.8-.6 3.2-.9.3-.4 1.5-.7 2.5-.7 1.1 0 1.6-.5 1.3-1-.3-.6.1-1 1-1s2.3-.7 3.1-1.5c1.8-1.7 3.8-2 2.8-.4m-16.4.4c0 .3-.2.5-.5.5s-.5-.2-.5-.5.2-.5.5-.5.5.2.5.5m-44 1c0 .3-.2.5-.5.5s-.5-.2-.5-.5.2-.5.5-.5.5.2.5.5m81 3c0 .5-.5.3-1-.5s-1-2-1-2.5c0-.6.5-.3 1 .5s1 1.9 1 2.5m-81-1.1c0 .2-.7.6-1.5 1-.8.3-1.5.1-1.5-.4 0-.6.7-1 1.5-1s1.5.2 1.5.4m28 1.2c0 1.4-.3 1.4-1.5.4-.8-.7-1.5-1.4-1.5-1.6s.7-.4 1.5-.4 1.5.7 1.5 1.6m-4-.2c0 .3-.5.8-1.2 1.2s-.8.3-.4-.4c.7-1.2 1.6-1.6 1.6-.8m396 .1c0 .3-.2.5-.5.5s-.5-.2-.5-.5.2-.5.5-.5.5.2.5.5m-386 3c0 .3-.2.5-.5.5s-.5-.2-.5-.5.2-.5.5-.5.5.2.5.5m-1 5c0 .3-.2.5-.5.5s-.5-.2-.5-.5.2-.5.5-.5.5.2.5.5m378 1c0 .3-.2.5-.5.5s-.5-.2-.5-.5.2-.5.5-.5.5.2.5.5m0 3c0 .3-.2.5-.5.5s-.5-.2-.5-.5.2-.5.5-.5.5.2.5.5m-364 5c0 .3-.2.5-.5.5s-.5-.2-.5-.5.2-.5.5-.5.5.2.5.5m-.3 3.2c-.4.3-.7 0-.7-.7s.3-1 .7-.7c.3.4.3 1 0 1.4m-14.7-.1c0 .4-.8 1.2-1.7 1.9-1.8 1.3-4.7.9-3.8-.6.3-.4 1.2-.6 2-.2.8.3 1.5 0 1.5-.6s.5-1.1 1-1.1c.6 0 1 .3 1 .6m175.7 8.1c-.4.3-.7 0-.7-.7s.3-1 .7-.7c.3.4.3 1 0 1.4m-145.2 5.3c.3.5.1 1-.4 1-.6 0-1.1-.5-1.1-1 0-.6.2-1 .4-1 .3 0 .8.4 1.1 1m218.5 1.5c0 .3-.2.5-.5.5s-.5-.2-.5-.5.2-.5.5-.5.5.2.5.5m-5 1c0 .3-.2.5-.5.5s-.5-.2-.5-.5.2-.5.5-.5.5.2.5.5m26 1c0 .3-.2.5-.5.5s-.5-.2-.5-.5.2-.5.5-.5.5.2.5.5m-114 1c0 .3-.2.5-.5.5s-.5-.2-.5-.5.2-.5.5-.5.5.2.5.5m-110 4c0 .5-.5.3-1-.5s-1-2-1-2.5c0-.6.5-.3 1 .5s1 1.9 1 2.5m228.7-2.8c-.4.3-1 .3-1.4 0-.3-.4 0-.7.7-.7s1 .3.7.7m-226.7.8c0 .3-.2.5-.5.5s-.5-.2-.5-.5.2-.5.5-.5.5.2.5.5m231.7 1c0 1.1-.4 1.2-1.4.4-.7-.6-1.3-1.3-1.3-1.5s.6-.4 1.3-.4c.8 0 1.4.7 1.4 1.5m-127.7-.1c0 .3-.4.8-1 1.1-.5.3-1 .1-1-.4 0-.6.5-1.1 1-1.1.6 0 1 .2 1 .4m131 1.1c0 .3-.2.5-.5.5s-.5-.2-.5-.5.2-.5.5-.5.5.2.5.5m10 3.5c0 .5-.4 1-1 1-.5 0-1-.5-1-1 0-.6.5-1 1-1 .6 0 1 .4 1 1m-3.3.7c-.4.3-1 .3-1.4 0-.3-.4 0-.7.7-.7s1 .3.7.7m9.8 1c.5 1.4.3 1.5-.6.6-.6-.6-1.9-.9-2.8-.6-1.4.4-1.4.3-.1-.6 2.1-1.5 2.7-1.4 3.5.6m-255.5-.2c0 .3-.2.5-.5.5s-.5-.2-.5-.5.2-.5.5-.5.5.2.5.5m-22 4c0 .3-.2.5-.5.5s-.5-.2-.5-.5.2-.5.5-.5.5.2.5.5m2.7 1.2c-.4.3-.7 0-.7-.7s.3-1 .7-.7c.3.4.3 1 0 1.4m18.3-.2c0 .3-.2.5-.5.5s-.5-.2-.5-.5.2-.5.5-.5.5.2.5.5"/><path d="M4440 1926.5c0 .3.2.5.5.5s.5-.2.5-.5-.2-.5-.5-.5-.5.2-.5.5m-68.7 53.2c.4.3 1 .3 1.4 0 .3-.4 0-.7-.7-.7s-1 .3-.7.7m-85 98c.4.3 1 .3 1.4 0 .3-.4 0-.7-.7-.7s-1 .3-.7.7M3610 2397.5c0 .3.2.5.5.5s.5-.2.5-.5-.2-.5-.5-.5-.5.2-.5.5m162.2 67.2c.4 2.6 3 4.4 4.5 3.1 1.5-1.2.5-4.1-1.3-3.4-.8.3-1.4.1-1.4-.4 0-.6-.5-1-1-1-.6 0-1 .8-.8 1.7m-15.2 2.8c0 .3.2.5.5.5s.5-.2.5-.5-.2-.5-.5-.5-.5.2-.5.5m2 3c0 .3.2.5.5.5s.5-.2.5-.5-.2-.5-.5-.5-.5.2-.5.5m33 0c0 .3.2.5.5.5s.5-.2.5-.5-.2-.5-.5-.5-.5.2-.5.5m-1 2c0 .3.2.5.5.5s.5-.2.5-.5-.2-.5-.5-.5-.5.2-.5.5m0 2c0 .3.2.5.5.5s.5-.2.5-.5-.2-.5-.5-.5-.5.2-.5.5m-19 1c0 .3.2.5.5.5s.5-.2.5-.5-.2-.5-.5-.5-.5.2-.5.5m-3 2c0 .3.2.5.5.5s.5-.2.5-.5-.2-.5-.5-.5-.5.2-.5.5m17 14c0 .3.2.5.5.5s.5-.2.5-.5-.2-.5-.5-.5-.5.2-.5.5m11 0c0 .3.2.5.5.5s.5-.2.5-.5-.2-.5-.5-.5-.5.2-.5.5m-5 1c0 .3.2.5.5.5s.5-.2.5-.5-.2-.5-.5-.5-.5.2-.5.5m-3.7 4.2c.4.3 1 .3 1.4 0 .3-.4 0-.7-.7-.7s-1 .3-.7.7m-2.3 3.3c0 .7.3 1 .7.7.3-.4.3-1 0-1.4-.4-.3-.7 0-.7.7m3 4.5c0 .3.2.5.5.5s.5-.2.5-.5-.2-.5-.5-.5-.5.2-.5.5m-11 8c0 .3.2.5.5.5s.5-.2.5-.5-.2-.5-.5-.5-.5.2-.5.5m-3 1c0 .3.2.5.5.5s.5-.2.5-.5-.2-.5-.5-.5-.5.2-.5.5m846-883c0 .3.2.5.5.5s.5-.2.5-.5-.2-.5-.5-.5-.5.2-.5.5m1 14.5c0 .5.5 1 1.1 1 .5 0 .7-.5.4-1-.3-.6-.8-1-1.1-1-.2 0-.4.4-.4 1m6.6 16.3c.3 1 .9 1.5 1.2 1.2s0-1.1-.7-1.8c-1-.9-1.1-.8-.5.6m5.4-.8c0 .3.2.5.5.5s.5-.2.5-.5-.2-.5-.5-.5-.5.2-.5.5m-4 5c0 .3.2.5.5.5s.5-.2.5-.5-.2-.5-.5-.5-.5.2-.5.5m-5 4c0 .3.2.5.5.5s.5-.2.5-.5-.2-.5-.5-.5-.5.2-.5.5m4 .6c0 .5.5.7 1 .4.6-.3 1-.8 1-1.1 0-.2-.4-.4-1-.4-.5 0-1 .5-1 1.1m-75.7 11.6c.4.3 1 .3 1.4 0 .3-.4 0-.7-.7-.7s-1 .3-.7.7m-5.3 2.3c0 .7.3 1 .7.7.3-.4.3-1 0-1.4-.4-.3-.7 0-.7.7m5-.5c0 .3.2.5.5.5s.5-.2.5-.5-.2-.5-.5-.5-.5.2-.5.5m-5 3.5c0 .6.5.8 1 .5.9-.6 1.4.8 1.1 2.7 0 .5.6.8 1.5.8 1.2 0 1.4-.3.6-1.3-.6-.6-1-1.7-1.1-2.2 0-1.4-3.1-1.9-3.1-.5m102 9c0 .7.3 1 .7.7.3-.4.3-1 0-1.4-.4-.3-.7 0-.7.7m2-.5c0 .3.2.5.5.5s.5-.2.5-.5-.2-.5-.5-.5-.5.2-.5.5m-158 12.2c0 .7-.8 1.3-1.7 1.3-1.2 0-1.4.3-.7.8.9.5.8 1.1-.2 2-.8.7-1.4.8-1.4.2 0-.5-.4-1-1-1-.5 0-1 .9-1 2 0 1.2-.7 2-1.7 2-1.4 0-1.5.2-.5.9 1.8 1.1-1.3 1.9-6.4 1.6-3.6-.2-3.7-.1-1.4.9 1.8.8 2.4 1.7 2.2 3.3-.2 1.3-1 2.3-1.8 2.3-1.3 0-1.5.5-1.8 4.2-.1 1.6-2.1 3.8-3.4 3.8-1 0-2.2 2.3-2.2 4.1 0 .6.5.7 1.2.3.6-.4 2.8-.8 4.8-.8l3.6-.1-1.5 2.7c-1.5 2.7-4.1 3.8-4.1 1.9 0-.5.6-1.1 1.3-1.4.6-.3.2-.4-1-.4-2.8.2-2.8 0 .2 3.3 2.5 2.7 2.7 4.5.3 2.7-.7-.5-1.9-.8-2.5-.7-.7.1-1.9.2-2.5.3-.9.1-.8.4.2 1.1 1.3.8 1.2 1-.2 1-1 0-1.7.3-1.6.7.1.5-.3 1.8-1 3-.7 1.3-.8 2.3-.3 2.3s1.1-.5 1.3-1.2c.3-.8.7-.6 1.1.5.3.9-.1 2.3-.9 3.2-1.2 1.1-1.2 1.5-.2 1.5q1.2.15-.6 1.5c-1.1.8-1.5 1.5-.9 1.5.7 0 1.5-.5 1.9-1.1.3-.6 1.5-.9 2.5-.6s1.7 0 1.6-.5c-.1-.6.4-1.3 1.2-1.6 1-.3 1.2 0 .8 1.1-.3.9-.2 1.9.3 2.2.6.4 1 0 1-.7.1-.9.5-.7 1.4.4.7 1 1.2 2.6 1.1 3.6-.2 2.6-4.7 8-6.3 7.4-.7-.2-1.2.2-1.2.9s-.6.5-1.5-.7c-1.3-1.7-1.4-1.7-1.5-.2 0 1-.7 1.8-1.5 1.8s-1.7 1.1-2.1 2.5c-.3 1.4-1.3 2.5-2.3 2.5-.9 0-2.1 1.2-2.8 2.6-1 2.1-.9 2.5.1 2.1.7-.3 1.9-.1 2.7.4 1.2.8 1.2 1-.1.8-2.8-.3-6.5.3-5.2.8 1.5.6 1.6 3.3.1 3.3-.5 0-.7.5-.3 1.1.5.8-.1 1-2.1.7-2.1-.4-2.9-.1-3.2 1.3-.3 1.1-.9 1.9-1.3 1.9-1.1 0-2.1-3-1.4-4.1.5-.9-.9-1.3-3.5-1-.7.2-1-.2-.7-.7 1-1.6-.5-4.4-1.8-3.4-1.8 1.4-4.6 1-4.6-.7 0-1.1-.3-1.1-1.4.4-1.2 1.7-1.2 2.1.3 3.2 1.4 1.1 1.4 1.2-.5.8-1.8-.3-2.1 0-1.6 1.7.3 1.4.1 1.9-.6 1.4-.7-.4-1.2-.2-1.2.4 0 .7-.6 1-1.4.7s-2 .1-2.7.9c-1 1.2-.9 1.3.3.9 1.3-.5 1.5.1 1.3 3.4-.2 2.3.1 3.8.6 3.5s.9-.1.9.5c0 .5-.8 1.5-1.7 2.1-1.5.9-1.1 1 1.7.6 1.9-.2 3-.2 2.4 0-.9.4-.8 1.3.3 3.4 1.1 2.3 1.2 3.4.3 5-1.4 2.5-.5 5.4 1.2 4.5.7-.4.5 0-.5.8-1.4 1.1-1.5 2-.8 4 1.2 3.1 3.1 4.4 3.1 2.1 0-2.5.8-1.3 1.4 2 .6 3.4 1.6 4.7 1.6 2 0-1.6.2-1.7 1-.4.7 1 1 1.1 1 .2 0-.7-.7-1.5-1.6-1.9-1.2-.4-1.3-.8-.3-1.4.8-.4 2-.3 2.8.4 1 .9.9.3-.3-2.2-1.4-2.7-1.5-3.3-.4-2.8.8.3 2.1.1 2.9-.4 1.2-.8 1.2-1.1-.1-2-1.3-1-1.3-1 .1-.6 1.7.6 6.3-3.8 5.5-5.2-1-1.5 1.3-2.4 2.8-1.1 1.1.8 1.5.8 1.9-.2.3-1.1.8-1.1 2.6 0 1.8 1 2.1 1 2.1-.4 0-.8-.4-1.3-.9-1s-1.1 0-1.4-.8c-.7-1.7 3-2.9 3.7-1.2.2.6.5.3.5-.7.1-1-.6-2-1.4-2.3-.8-.4-1.2-1-.9-1.5s-.2-.9-1-.9c-.9 0-1.6-.4-1.6-.8s.9-.8 1.9-.8c1.1 0 1.8.3 1.5.7-.8 1.4 2.9 4.1 5 3.5 2-.5 2-.4.3.9-1.2.8-1.4 1.5-.8 2 1.5.9 3.1-.3 3.1-2.3 0-1.1.3-1.3.8-.6 1.2 1.9 4.5 1.2 8.6-1.7 2.1-1.6 4.3-2.6 4.9-2.2s.3 1-.9 1.4c-1.8.7-1.7.8.3.8 1.2.1 2.5.6 2.9 1.2.3.6 1.4.9 2.4.6 1.4-.4 1.7 0 1.5 1.5-.3 1.5 0 1.8 1.3 1.3 1.4-.5 1.5-.4.5.6-1.9 1.9-1.6 2.4 1.2 2.7 2.2.2 2.4 0 1.5-2.6-1-2.7-1-2.7.6-.5 2.1 2.9 3.8 3 2.3.2-.8-1.5-.8-1.9 0-1.5.6.4 1.1.2 1.1-.5 0-.9.4-.9 1.5.1.8.6 1.9.9 2.5.5.9-.5 1.4.7 1.1 2.7 0 .4.5.5 1.3.2s1.6.4 1.9 1.7c.4 1.6 1.1 2 2.6 1.6 1.2-.3 1.9-.1 1.6.4-.7 1.1 3 1.9 7.9 1.6 4.1-.2 5.2-1.2 3.7-3.6-.7-1-1.3-1.1-3.2-.1-2.4 1.3-2.7 1.1-6.8-4.8-.8-1.2-1.8-1.9-2.2-1.6-1.1.6-3.2-6.3-2.3-7.7.4-.7.7-2.7.6-4.6-.1-3.4.6-3.9 5.2-3.4 1.1.1 1.7-.2 1.3-.5-1.1-1.1 1.4-4.6 2.8-4 .9.3 1.2 0 .8-1-.3-1 .2-1.4 1.8-1.4 1.9 0 2.1.2.9 1-1.2.7-1.2 1-.1 1 .9 0 1.1.8.6 2.7-.6 2.6-.5 2.7.8.9 1-1.4 2.1-1.7 4-1.2 1.4.3 3.4.3 4.4-.1 1.5-.6 1.3-.8-1.2-1.3-2.6-.5-3-.9-3-3.8s.5-3.6 4.3-5.5c4.5-2.2 6.2-3.7 4.2-3.7-.8 0-.8-.6 0-2 .6-1.1 1.5-1.8 2.1-1.5.8.5 1.4-1.5 1-3.8 0-.4.4-.7 1-.7s.9-.7.5-1.5c-.3-.9 0-1.5 1-1.5 1.4 0 1.4-.2 0-1.6-1.8-1.7-2-3-.7-3.8 1-.7.9-2.5-.3-4.4-.4-.7-.5-1.6-.1-2s1-.1 1.2.5c.7 2 1.8 1.5 1.9-1 .3-3.8.8-5.2 2.7-6.5 1.5-1.2 2.2-1.1 4.2.2 1.4.9 2.5 1.2 2.5.7s-.7-1.1-1.5-1.5c-2.2-.8-1.8-2.5.5-1.9 1.4.4 2 0 2-1 0-1.8.5-2.2 4.3-3.1 2.6-.6 2.7-.5 1.7 1.4-.9 1.7-.8 2 .7 2.1 1.1 0 1.3.3.5.6-.6.2-1 .9-.6 1.4.3.5-.2.9-1 .9-.9 0-1.6.5-1.6 1.1s.7.8 1.7.5c1.6-.6 1.6-.6 0 1.2-2 2.2-2.2 3.3-.4 2.9.6-.1 1.1.4 1 1-.2.7.1 1.3.6 1.3s1.2.7 1.5 1.6c.5 1.2.2 1.5-1.1 1s-1.5-.4-.7.4c1.2 1.2 4.4.3 4.4-1.2 0-.5.5-.6 1-.3.6.3 1.3-.1 1.6-.9.3-.9 1.3-1.6 2.1-1.6s1.2-.4.8-.9c-.3-.5.2-1.7 1.1-2.5.8-.9 1.1-1.6.5-1.6s-1.1-.4-1.1-1c0-.5.7-.7 1.5-.4 1.2.5 1.3.2.6-1.7-.4-1.3-1.8-2.5-3-2.7-1.7-.3-1.9-.7-1.1-2.2.7-1.3.6-2.1-.4-2.9-1.1-.9-1.5-.9-1.8.1-.3.7-.7.2-1-1-.6-2-.3-2.2 1.5-1.7 1.3.4 1.7.3 1-.2-.6-.4-1.5-2-1.8-3.6-.4-1.5-1.1-2.4-1.6-2.1s-.6-.2-.3-1c.3-.9-.2-1.7-1.4-2-1.1-.4-2.2-1.6-2.5-2.8-.5-1.9-.8-2-2.3-.7-1.5 1.2-1.6 1.2-1-.9.6-1.7.3-2.2-.9-2.2-1.1 0-1.5-.5-1.1-1.5.3-.8.1-1.5-.4-1.5-.6 0-1 .4-1 1 0 .5-.4 1-1 1-.5 0-.7-.6-.4-1.4.3-.7-.2-1.6-1-1.9-1.8-.7-3.1.8-1.6 1.8.5.3 1 1.2 1 1.8 0 .7-.4.6-1-.3-.9-1.3-1.1-1.3-1.9 0-.5.8-.7 1.8-.5 2.2 1.2 1.9-2.6.6-4.3-1.5-2.1-2.6-3.6-2.8-5.5-.8-1 1-1 1.2 0 .7.6-.4 1.2-.2 1.2.3 0 .6-.7 1.1-1.6 1.1-1 0-1.4.5-1 1.5.4 1.2 0 1.2-2.1-.2-2.4-1.6-2.6-1.6-2.1-.1 1 2.5-3 3.1-4.3.6-1-1.9-1.2-1.9-2.9-.3-1.8 1.6-2.2 1.6-6 .1-4.8-1.9-6-2-6-.5 0 .6.7.9 1.5.5.8-.3 1.5-.2 1.5.3 0 1.3-4.4 2.2-4.9 1-.1-.5-1-.2-1.8.8s-1.1 1.2-.7.4c.5-1 .1-1.1-1.3-.7-3.3 1-5.3-.3-5.3-3.6 0-1.7-.4-2.7-1-2.3-.9.6-1.4-.8-1.1-2.8.2-1.1-2.7-.8-3.5.4-.4.8-.9.7-1.5-.2-.6-1-.9-1.1-.9-.2m3.7 2c-.4.3-.7 0-.7-.7s.3-1 .7-.7c.3.4.3 1 0 1.4m46 6c-.4.3-1 .3-1.4 0-.3-.4 0-.7.7-.7s1 .3.7.7m-3.7.8c0 .3-.2.5-.5.5s-.5-.2-.5-.5.2-.5.5-.5.5.2.5.5m-2.3 2.2c-.4.3-.7 0-.7-.7s.3-1 .7-.7c.3.4.3 1 0 1.4m4.1 2.3c-.7 1-1.4 1.8-1.5 1.6-.6-.6.9-3.6 1.8-3.6.5 0 .4.9-.3 2m-5.3 0c.3.5.1 1-.4 1-.6 0-1.1-.5-1.1-1 0-.6.2-1 .4-1 .3 0 .8.4 1.1 1m9.5.5c0 .3-.2.5-.5.5s-.5-.2-.5-.5.2-.5.5-.5.5.2.5.5m14 9c0 .3-.2.5-.5.5s-.5-.2-.5-.5.2-.5.5-.5.5.2.5.5m-77 6c0 .3-.2.5-.5.5s-.5-.2-.5-.5.2-.5.5-.5.5.2.5.5m2 2c0 .3-.2.5-.5.5s-.5-.2-.5-.5.2-.5.5-.5.5.2.5.5m78 0c0 .3-.2.5-.5.5s-.5-.2-.5-.5.2-.5.5-.5.5.2.5.5m-79 2.7c0 .4-.4.8-.9.8-.6 0-1.2-.4-1.5-.8-.3-.5.1-.9.9-.9s1.5.4 1.5.9m79 1.3c0 .3-.2.5-.5.5s-.5-.2-.5-.5.2-.5.5-.5.5.2.5.5m-20 1.5c0 .5-.5 1-1.1 1-.5 0-.7-.5-.4-1 .3-.6.8-1 1.1-1 .2 0 .4.4.4 1m-69 8.5c0 .3-.2.5-.5.5s-.5-.2-.5-.5.2-.5.5-.5.5.2.5.5m-2 2c0 .3-.2.5-.5.5s-.5-.2-.5-.5.2-.5.5-.5.5.2.5.5m27.6 3.3c-.3.2-.1 1.3.5 2.3.7 1.3.6 1.9-.1 1.9-.6 0-.8.5-.3 1.2 1.7 2.9 1.1 4.2-.9 1.8-1.1-1.4-2.5-2.4-2.9-2.3-1.6.5-.9-1.7.7-2.4.9-.3 1.4-1.3 1.1-2.4-.3-1.2 0-1.6 1-1.2.7.3 1.2.8.9 1.1m38.1 5.9c-.4.3-.7 0-.7-.7s.3-1 .7-.7c.3.4.3 1 0 1.4m-56.7 2.8c0 .3-.2.5-.5.5s-.5-.2-.5-.5.2-.5.5-.5.5.2.5.5m17 0c0 .3-.2.5-.5.5s-.5-.2-.5-.5.2-.5.5-.5.5.2.5.5m14.7 12.2c-.4.3-.7 0-.7-.7s.3-1 .7-.7c.3.4.3 1 0 1.4m1.8 4.3c-.3.5-1.2 1-1.8 1-.7 0-.6-.4.3-1 1.9-1.2 2.3-1.2 1.5 0m-70.8 1.7c-.4.3-1 .3-1.4 0-.3-.4 0-.7.7-.7s1 .3.7.7m3.3 3.8c0 .3-.2.5-.5.5s-.5-.2-.5-.5.2-.5.5-.5.5.2.5.5m39 3c0 .3-.2.5-.5.5s-.5-.2-.5-.5.2-.5.5-.5.5.2.5.5m-34.3 1.2c-.4.3-1 .3-1.4 0-.3-.4 0-.7.7-.7s1 .3.7.7m2 2c-.4.3-.7 0-.7-.7s.3-1 .7-.7c.3.4.3 1 0 1.4m33.7 1.4c-.8 1.3-2.4.1-2.4-1.8 0-1.3.3-1.3 1.5-.3.8.7 1.2 1.6.9 2.1m-28.4-.7c0 .3-.5.8-1.2 1.2s-.8.3-.4-.4c.7-1.2 1.6-1.6 1.6-.8m5 .1c0 .3-.2.5-.5.5s-.5-.2-.5-.5.2-.5.5-.5.5.2.5.5m32.7 3.2c-.4.3-1 .3-1.4 0-.3-.4 0-.7.7-.7s1 .3.7.7m7.3-.2c0 .3-.2.5-.5.5s-.5-.2-.5-.5.2-.5.5-.5.5.2.5.5m-3 1c0 .3-.2.5-.5.5s-.5-.2-.5-.5.2-.5.5-.5.5.2.5.5m-47.6 1.3c.3.5-.1.9-.9.9s-1.2-.4-.9-.9c.3-.4.7-.8.9-.8s.6.4.9.8m6.3-.1c-.4.3-1 .3-1.4 0-.3-.4 0-.7.7-.7s1 .3.7.7m35.3-.3c0 .3-.5.8-1.2 1.2s-.8.3-.4-.4c.7-1.2 1.6-1.6 1.6-.8m7 1.1c0 .3-.2.5-.5.5s-.5-.2-.5-.5.2-.5.5-.5.5.2.5.5m-51 2c0 .3-.2.5-.5.5s-.5-.2-.5-.5.2-.5.5-.5.5.2.5.5m5 2c0 .3-.2.5-.5.5s-.5-.2-.5-.5.2-.5.5-.5.5.2.5.5m-17 6.6c0 .6-.4.7-1 .4-.5-.3-1-1.1-1-1.6 0-.6.5-.7 1-.4.6.3 1 1.1 1 1.6m3 7.5c0 .2-.9 0-2-.6s-2-1.3-2-1.6c0-.2.9 0 2 .6s2 1.3 2 1.6m-4 .9c0 .3-.2.5-.5.5s-.5-.2-.5-.5.2-.5.5-.5.5.2.5.5"/><path d="M4509 1708c0 .5.5 1 1.1 1 .5 0 .7-.5.4-1-.3-.6-.8-1-1.1-1-.2 0-.4.4-.4 1m-2.5 2.1c-.4.6-.4 1.3-.1 1.6.3.4.6.1.6-.6s.5-.9 1.2-.5.8.3.4-.4c-.9-1.5-1.3-1.5-2.1-.1m29.5-.6c0 .3.2.5.5.5s.5-.2.5-.5-.2-.5-.5-.5-.5.2-.5.5m8.5.5c-.4.6-.3 1.6.3 2.2s1.2.6 1.7-.2c.4-.6.3-1.6-.3-2.2s-1.2-.6-1.7.2m-34.5.5c0 .3.2.5.5.5s.5-.2.5-.5-.2-.5-.5-.5-.5.2-.5.5m1.5 1.6c-.4.6-.5 1.2-.2 1.5.2.3.7-.2 1-1.1.7-1.7.1-2-.8-.4m22.8-.4c.4.3 1 .3 1.4 0 .3-.4 0-.7-.7-.7s-1 .3-.7.7m-25.3 1.8c0 .3.2.5.5.5s.5-.2.5-.5-.2-.5-.5-.5-.5.2-.5.5m20 1.5c0 .7.3 1 .7.7.3-.4.3-1 0-1.4-.4-.3-.7 0-.7.7m-56 1.5c0 .3.2.5.5.5s.5-.2.5-.5-.2-.5-.5-.5-.5.2-.5.5m186 0c0 .3.2.5.5.5s.5-.2.5-.5-.2-.5-.5-.5-.5.2-.5.5m-192 2.5c-1.3.9-1.3 1.1 0 2 2.7 1.7 4.2 1.2 3-1-1.2-2.3-1.1-2.3-3-1m9 1c0 .7.3 1 .7.7.3-.4.3-1 0-1.4-.4-.3-.7 0-.7.7m2 .5c0 .3.2.5.5.5s.5-.2.5-.5-.2-.5-.5-.5-.5.2-.5.5m-3 4c0 .3.2.5.5.5s.5-.2.5-.5-.2-.5-.5-.5-.5.2-.5.5m95 3c0 .3.2.5.5.5s.5-.2.5-.5-.2-.5-.5-.5-.5.2-.5.5m99.3 1.2c.4.3 1 .3 1.4 0 .3-.4 0-.7-.7-.7s-1 .3-.7.7m-199.3 1.8c0 .3.2.5.5.5s.5-.2.5-.5-.2-.5-.5-.5-.5.2-.5.5m2 10c0 .3.2.5.5.5s.5-.2.5-.5-.2-.5-.5-.5-.5.2-.5.5m75 1c0 .3.2.5.5.5s.5-.2.5-.5-.2-.5-.5-.5-.5.2-.5.5m-159 1c0 .3.2.5.5.5s.5-.2.5-.5-.2-.5-.5-.5-.5.2-.5.5m-2.5 4.5c.3.5.8 1 1.1 1s.2-.5-.1-1c-.3-.6-.8-1-1.1-1s-.2.4.1 1m61.5 1.2c0 .4.7.8 1.5.8s1.5-.4 1.5-.8c0-.5-.7-.9-1.5-.9s-1.5.4-1.5.9m-5 .3c0 .3.2.5.5.5s.5-.2.5-.5-.2-.5-.5-.5-.5.2-.5.5m-56.3 1.6c.7.7 1.5 1 1.8.7s-.2-.9-1.2-1.2c-1.4-.6-1.5-.5-.6.5m56.5.8c-2.3 2-2.1 5.6.4 4.7.8-.3 1.3 0 1.1.7-.3 1.6-2.3 3.7-3.6 3.7-.6 0-1.5.9-2 1.9-1 1.7-.7 1.8 2.9 1.5 2.3-.2 4 0 4 .6s-.8 1-1.7 1c-1.3 0-1.4.3-.6 1.1s1.9.4 4-1.5c2.2-2.1 3.4-2.5 5.7-2 1.8.4 2.6.2 2.2-.4-.3-.6.1-.9 1.1-.7s2.1.4 2.4.4c.4.1 1 1.7 1.3 3.6.4 1.9 1.1 3.5 1.6 3.5 1.2 0 2.3-3.7 1.5-5-.3-.5.3-1 1.4-1 1.2 0 2.1.5 2.1 1.2 0 .6.3.8.7.4.5-.4-.1-1.4-1.1-2.2-1.7-1.2-1.7-1.4-.3-1.4 2.2 0 1.1-2.7-1.3-3.3-1-.3-2.2-.2-2.5.1-.9.9-13.5 1-13.5.1 0-.5.8-1.3 1.8-1.8.9-.6 1.1-1.1.5-1.1-.7 0-1.3-.5-1.3-1.1 0-.5.5-.7 1.1-.3.8.5.8.1 0-1.4-.9-1.8-3.2-3.3-4.9-3.2-.4.1-1.7.9-3 1.9m5.8 2.6c0 .3-.2.5-.5.5s-.5-.2-.5-.5.2-.5.5-.5.5.2.5.5m-5 7.9c0 1.1-1.9 1.5-2.5.6-.3-.5.1-1 .9-1 .9 0 1.6.2 1.6.4m-3-10.9c0 .3.2.5.5.5s.5-.2.5-.5-.2-.5-.5-.5-.5.2-.5.5m-57 1c0 .3.2.5.5.5s.5-.2.5-.5-.2-.5-.5-.5-.5.2-.5.5m0 2c0 .3.2.5.5.5s.5-.2.5-.5-.2-.5-.5-.5-.5.2-.5.5m3 .5c.8.5 1.1 1 .7 1s.1 1 1.3 2.2c1.1 1.2 2 2.9 2.1 3.7q0 1.65.6.3c.3-.7 0-1.9-.7-2.6-1.6-2 .6-3.2 2.7-1.4 1.4 1.1 1.5 1.1 1.1-.2-.2-.8-1.6-1.5-2.9-1.5s-2.8-.6-3.2-1.3c-.4-.6-1.3-1.2-2-1.2s-.6.4.3 1m9-.5c0 .3.2.5.5.5s.5-.2.5-.5-.2-.5-.5-.5-.5.2-.5.5m3 1c0 .3.2.5.5.5s.5-.2.5-.5-.2-.5-.5-.5-.5.2-.5.5m64 .5c0 .7.3 1 .7.7.3-.4.3-1 0-1.4-.4-.3-.7 0-.7.7"/><path d="M4459.5 1755.9c-.3.5-.1 1.2.5 1.6.5.3 1-.1 1-.9 0-1.8-.6-2.1-1.5-.7m4.5-.4c0 .3.2.5.5.5s.5-.2.5-.5-.2-.5-.5-.5-.5.2-.5.5m2 1c0 .3.2.5.5.5s.5-.2.5-.5-.2-.5-.5-.5-.5.2-.5.5m-56 2c0 .3.2.5.5.5s.5-.2.5-.5-.2-.5-.5-.5-.5.2-.5.5m63.3 1.2c.4.3 1 .3 1.4 0 .3-.4 0-.7-.7-.7s-1 .3-.7.7m-63.3 1.8c0 .3.2.5.5.5s.5-.2.5-.5-.2-.5-.5-.5-.5.2-.5.5m54 3c0 .3.2.5.5.5s.5-.2.5-.5-.2-.5-.5-.5-.5.2-.5.5m4 2c0 .3.2.5.5.5s.5-.2.5-.5-.2-.5-.5-.5-.5.2-.5.5m-36.5 1.9c-1.8 1.3-1.8 1.5-.2 3.1 1.5 1.4 1.8 1.5 2.3.1.6-1.7 3.5-1 3.1.7-.1.7.4 1.1 1.1.9.6-.1 1.2.2 1.2.8 0 1.3-1.3 1.3-2.7-.1-1.3-1.3-3.3-.4-3.2 1.4 0 .8.2.8.6-.1.4-1 1-1 2.8.2 2.2 1.5 2.5 1.4 4-.6 1.7-2.5 2-4.2.6-3.4-.5.3-1.1-.4-1.5-1.7-.6-2.7-5.2-3.5-8.1-1.3m32.2 1.1c.2.7 1.3 1.1 2.4.8 2.5-.7 2.4-1-.5-1.5-1.6-.3-2.3-.1-1.9.7m-1.7 3c0 .3.2.5.5.5s.5-.2.5-.5-.2-.5-.5-.5-.5.2-.5.5m-20.2 3.4c-1.3 1.3-1.4 1.8-.4 1.8.7 0 1.8-.9 2.5-1.9 1.4-2.3.2-2.2-2.1.1m3.6 2.3c-.5.7-.3.8.5.4.7-.5 2-.1 3.1.9 1.4 1.2 2 1.3 2.6.4.4-.7.3-1-.3-.6s-1.3 0-1.7-.8c-.6-1.8-3.2-2-4.2-.3m224.6-.7c0 .3.2.5.5.5s.5-.2.5-.5-.2-.5-.5-.5-.5.2-.5.5m-232.7 1.2c.4.3 1 .3 1.4 0 .3-.4 0-.7-.7-.7s-1 .3-.7.7m18.8.1c-.1.7-.5 1.1-1 .7-.5-.3-1.2-.1-1.5.4-.9 1.4 1.4 2.5 2.6 1.3.6-.6.8-1.6.5-2.4q-.6-1.5-.6 0m-15.1.7c0 .3.2.5.5.5s.5-.2.5-.5-.2-.5-.5-.5-.5.2-.5.5m6 1c0 .3.2.5.5.5s.5-.2.5-.5-.2-.5-.5-.5-.5.2-.5.5m1 2.5c-1.3.8-1.2 1 .3 1 .9 0 1.7-.5 1.7-1 0-1.2-.1-1.2-2 0m6 2.5c0 .3.2.5.5.5s.5-.2.5-.5-.2-.5-.5-.5-.5.2-.5.5m70.3 4.2c.4.3 1 .3 1.4 0 .3-.4 0-.7-.7-.7s-1 .3-.7.7m12 3c.4.3 1 .3 1.4 0 .3-.4 0-.7-.7-.7s-1 .3-.7.7m3.7.8c0 .3.2.5.5.5s.5-.2.5-.5-.2-.5-.5-.5-.5.2-.5.5m-111 1.4c0 .5.5 1.3 1 1.6.6.3 1 .2 1-.4 0-.5-.4-1.3-1-1.6-.5-.3-1-.2-1 .4m82-.4c0 .3.2.5.5.5s.5-.2.5-.5-.2-.5-.5-.5-.5.2-.5.5m25 .6c0 .5.5.7 1 .4.6-.3 1-.8 1-1.1 0-.2-.4-.4-1-.4-.5 0-1 .5-1 1.1m-112.7 1.1c.3.9.1 1.8-.6 2.1-.8.2-.8.5.1 1.1 1.7 1 2.8-2.3 1.2-3.7-1-.9-1.2-.8-.7.5m91.7 1.1c0 .9.5 1.7 1.2 1.7.9 0 .9.3 0 1.2-.7.7-1.2 1.7-1.2 2.2 0 .6.7 0 1.6-1.3 1.5-2.1 1.5-2.4 0-3.9s-1.6-1.5-1.6.1m-87.9.6c-.9.6-.7 1 .8 1.4 1.2.3 2.1.1 2.1-.3 0-1.4-1.5-1.9-2.9-1.1m85.9.6c0 .3.2.5.5.5s.5-.2.5-.5-.2-.5-.5-.5-.5.2-.5.5m6.5.5c.3.5.8 1 1.1 1 .2 0 .4-.5.4-1 0-.6-.5-1-1.1-1-.5 0-.7.4-.4 1m-2.5 5.5c0 .3.2.5.5.5s.5-.2.5-.5-.2-.5-.5-.5-.5.2-.5.5m-28 2c0 .3.2.5.5.5s.5-.2.5-.5-.2-.5-.5-.5-.5.2-.5.5m-56.5 1.5c.3.5.8 1 1.1 1s.2-.5-.1-1c-.3-.6-.8-1-1.1-1s-.2.4.1 1m30.5-.5c0 .3.2.5.5.5s.5-.2.5-.5-.2-.5-.5-.5-.5.2-.5.5m-9 1.5c0 .7.3 1 .7.7.3-.4.3-1 0-1.4-.4-.3-.7 0-.7.7m45-.5c0 .3.2.5.5.5s.5-.2.5-.5-.2-.5-.5-.5-.5.2-.5.5m-29 1.2c0 .6-.9.9-2 .6-1.2-.3-2 0-2 .8 0 .7.3.9.7.6.3-.4 1.2-.2 1.8.3.9.8 1.5.6 1.9-.6.4-.9.4-1.9.1-2.2s-.5-.1-.5.5m23.8 0c.7.3 1.6.2 1.9-.1.4-.3-.2-.6-1.3-.5-1.1 0-1.4.3-.6.6m7.3.9c0 1.1.3 1.4.6.6.3-.7.2-1.6-.1-1.9-.3-.4-.6.2-.5 1.3m-47.7 1.6c-.4.7-.3.8.4.4 1.2-.7 1.6-1.6.8-1.6-.3 0-.8.5-1.2 1.2m44.6-.7c0 .3.2.5.5.5s.5-.2.5-.5-.2-.5-.5-.5-.5.2-.5.5m9 0c0 .3.2.5.5.5s.5-.2.5-.5-.2-.5-.5-.5-.5.2-.5.5m2 0c0 .3.2.5.5.5s.5-.2.5-.5-.2-.5-.5-.5-.5.2-.5.5m-51.6 3c-.4.9-1 1.2-1.3.7-.8-1.3-5.1.4-5 2 0 1.1.2 1 .6 0s.8-1 1.9-.1c1 .8 1.9.6 3.9-.9 1.5-1.2 2.1-2.3 1.5-2.7-.5-.3-1.3.1-1.6 1m-24.3 4.1c0 1.1.3 1.4.6.6.3-.7.2-1.6-.1-1.9-.3-.4-.6.2-.5 1.3m12.9.9c0 .3.2.5.5.5s.5-.2.5-.5-.2-.5-.5-.5-.5.2-.5.5m220 1c0 .3.2.5.5.5s.5-.2.5-.5-.2-.5-.5-.5-.5.2-.5.5m2 1c0 .3.2.5.5.5s.5-.2.5-.5-.2-.5-.5-.5-.5.2-.5.5m-4 1c0 .3.2.5.5.5s.5-.2.5-.5-.2-.5-.5-.5-.5.2-.5.5m4 1c0 .3.2.5.5.5s.5-.2.5-.5-.2-.5-.5-.5-.5.2-.5.5m-10 12c0 .3.2.5.5.5s.5-.2.5-.5-.2-.5-.5-.5-.5.2-.5.5m-308.9 16.1c0 1.1.3 1.4.6.6.3-.7.2-1.6-.1-1.9-.3-.4-.6.2-.5 1.3m1.9-1.1c0 .3.2.5.5.5s.5-.2.5-.5-.2-.5-.5-.5-.5.2-.5.5m3 1c0 .3.2.5.5.5s.5-.2.5-.5-.2-.5-.5-.5-.5.2-.5.5m-3 2c0 .8.4 1.5 1 1.5.5 0 .7-.7.4-1.5-.4-.8-.8-1.5-1-1.5s-.4.7-.4 1.5m3 .5c0 .7.3 1 .7.7.3-.4.3-1 0-1.4-.4-.3-.7 0-.7.7m274.3.7c.4.3 1 .3 1.4 0 .3-.4 0-.7-.7-.7s-1 .3-.7.7m7.7-.2c0 .3.2.5.5.5s.5-.2.5-.5-.2-.5-.5-.5-.5.2-.5.5m-286 2c0 .3.2.5.5.5s.5-.2.5-.5-.2-.5-.5-.5-.5.2-.5.5m.6 5.4c-.3.5.2 1.2 1.2 1.6 2.1.8 7.3 1.6 5.3.8-1.1-.5-1.1-.7 0-1.5 1-.7.8-.8-.8-.5-1.3.3-2.3.1-2.3-.4 0-1.2-2.7-1.2-3.4 0m2.4.6c0 .3-.2.5-.5.5s-.5-.2-.5-.5.2-.5.5-.5.5.2.5.5m103-1c0 .3.2.5.5.5s.5-.2.5-.5-.2-.5-.5-.5-.5.2-.5.5m3 0c0 .3.2.5.5.5s.5-.2.5-.5-.2-.5-.5-.5-.5.2-.5.5m3 .5c-.8.5-1.1 1.3-.6 1.7s1.1.2 1.3-.5c.3-.6.9-1 1.4-.6.5.3.9 0 .9-.5 0-1.3-1-1.4-3-.1m-101.9 1.6c0 1.1.3 1.4.6.6.3-.7.2-1.6-.1-1.9-.3-.4-.6.2-.5 1.3m221.9-.7c0 .7-.4.9-1 .6-.5-.3-1-.1-1 .4 0 .6.4 1.1.9 1.1 1.3 0 2.5-2 1.7-2.7-.3-.4-.6-.1-.6.6m-124 1.4c0 1 .5 1.7 1.1 1.7.8 0 .8.4.1 1.3-.8 1-.6 1.3.9 1.4 2.4.2 2.4-.8-.1-3.7-1.6-1.8-2-2-2-.7m-2.4.9c.4.6-.2 1.8-1.2 2.6-1.8 1.4-1.8 1.4-.1.8 1-.3 2.1-.6 2.3-.6s.4-.9.4-2-.5-2-1.1-2c-.5 0-.7.5-.3 1.2m7 .6c-.2.4-.1 1.4.5 2.2.7 1.2.9 1 .9-.8 0-2.3-.5-2.8-1.4-1.4m-90.6 5.7c0 .3.2.5.5.5s.5-.2.5-.5-.2-.5-.5-.5-.5.2-.5.5m77 3c0 .3.2.5.5.5s.5-.2.5-.5-.2-.5-.5-.5-.5.2-.5.5m-2 4c0 .3.2.5.5.5s.5-.2.5-.5-.2-.5-.5-.5-.5.2-.5.5m-104 1c0 .3.2.5.5.5s.5-.2.5-.5-.2-.5-.5-.5-.5.2-.5.5m34 2c0 .3.2.5.5.5s.5-.2.5-.5-.2-.5-.5-.5-.5.2-.5.5m3 4c0 .3.2.5.5.5s.5-.2.5-.5-.2-.5-.5-.5-.5.2-.5.5m2.2 2c-1.1 1.2-1 1.5.3 1.5.8 0 1.5-.7 1.5-1.5 0-1.8-.2-1.8-1.8 0m42.4 1.4c-.3.5.1 1.1.9 1.4.9.4 1.2.1.8-.9-.6-1.6-1-1.7-1.7-.5m-89.6.6c0 .3.2.5.5.5s.5-.2.5-.5-.2-.5-.5-.5-.5.2-.5.5m-6 3c0 .3.2.5.5.5s.5-.2.5-.5-.2-.5-.5-.5-.5.2-.5.5m71 1.5c0 .5.5 1 1.1 1 .5 0 .7-.5.4-1-.3-.6-.8-1-1.1-1-.2 0-.4.4-.4 1m0 2.5c0 .3.2.5.5.5s.5-.2.5-.5-.2-.5-.5-.5-.5.2-.5.5m-5 2c0 .3.2.5.5.5s.5-.2.5-.5-.2-.5-.5-.5-.5.2-.5.5m9 1c0 .3.2.5.5.5s.5-.2.5-.5-.2-.5-.5-.5-.5.2-.5.5m64 9c0 .3.2.5.5.5s.5-.2.5-.5-.2-.5-.5-.5-.5.2-.5.5m47.1 7.4c-.1 2 .1 2.1 1.4 1.1 1.6-1.4 2.1-2.5.6-1.6-.5.4-1.2 0-1.4-.6-.3-.7-.6-.2-.6 1.1m-3.1.6c0 .3.2.5.5.5s.5-.2.5-.5-.2-.5-.5-.5-.5.2-.5.5m-64 1c0 .3.2.5.5.5s.5-.2.5-.5-.2-.5-.5-.5-.5.2-.5.5m-121 4.5c0 .7.3 1 .7.7.3-.4.3-1 0-1.4-.4-.3-.7 0-.7.7m118.5 0c.3.5.8 1 1.1 1s.2-.5-.1-1c-.3-.6-.8-1-1.1-1s-.2.4.1 1m-114.5 5.5c0 .3.2.5.5.5s.5-.2.5-.5-.2-.5-.5-.5-.5.2-.5.5m-2.7 17.2c.4.3 1 .3 1.4 0 .3-.4 0-.7-.7-.7s-1 .3-.7.7m2.7-.2c0 .3.2.5.5.5s.5-.2.5-.5-.2-.5-.5-.5-.5.2-.5.5m-19 1c0 .3.2.5.5.5s.5-.2.5-.5-.2-.5-.5-.5-.5.2-.5.5m5 0c0 .3.2.5.5.5s.5-.2.5-.5-.2-.5-.5-.5-.5.2-.5.5m138 0c0 .3.2.5.5.5s.5-.2.5-.5-.2-.5-.5-.5-.5.2-.5.5m-140 2c0 .3.2.5.5.5s.5-.2.5-.5-.2-.5-.5-.5-.5.2-.5.5m22 0c0 .3.2.5.5.5s.5-.2.5-.5-.2-.5-.5-.5-.5.2-.5.5m-15 2c0 .3.2.5.5.5s.5-.2.5-.5-.2-.5-.5-.5-.5.2-.5.5m184 3c0 .3.2.5.5.5s.5-.2.5-.5-.2-.5-.5-.5-.5.2-.5.5m-185 4c0 .3.2.5.5.5s.5-.2.5-.5-.2-.5-.5-.5-.5.2-.5.5m4 4c0 .3.2.5.5.5s.5-.2.5-.5-.2-.5-.5-.5-.5.2-.5.5m-36.4 2.4c-.4.6-.2 1.1.4 1.1s.8.6.4 1.2c-.6 1-.4 1 .7 0 .9-.9 1-1.5.2-2.3s-1.3-.8-1.7 0m3.4.1c0 .7.3 1 .7.7.3-.4.3-1 0-1.4-.4-.3-.7 0-.7.7m-7 .5c0 .3.2.5.5.5s.5-.2.5-.5-.2-.5-.5-.5-.5.2-.5.5m180 0c0 .3.2.5.5.5s.5-.2.5-.5-.2-.5-.5-.5-.5.2-.5.5m-180.5 2.5c-.3.5-.1 1 .4 1 .6 0 1.1-.5 1.1-1 0-.6-.2-1-.4-1-.3 0-.8.4-1.1 1m212.5 0c0 .5.5 1 1.1 1 .5 0 .7-.5.4-1-.3-.6-.8-1-1.1-1-.2 0-.4.4-.4 1m-.5 3c-.3.5-.1 1 .4 1 .6 0 1.1-.5 1.1-1 0-.6-.2-1-.4-1-.3 0-.8.4-1.1 1m-202.6 10.7c-1.3 1.7-1.3 1.7.6.3 1.1-.8 2.2-1.6 2.4-1.7q.3-.3-.6-.3c-.6 0-1.7.8-2.4 1.7m193.1.8c0 .3.2.5.5.5s.5-.2.5-.5-.2-.5-.5-.5-.5.2-.5.5m-190.7 3.2c.1 1.4.8 2.8 1.6 3.1s1.1 0 .7-.6c-.3-.6-.1-1.2.5-1.4 1.4-.5 0-3.8-1.6-3.8-.9 0-1.3 1-1.2 2.7m28.7-1.9c0 .6-.8 1.3-1.7 1.5-1.6.4-1.6.5-.1.6 1.8.1 3.4-1.6 2.4-2.6-.3-.4-.6-.1-.6.5m-33 .7c0 .3.2.5.5.5s.5-.2.5-.5-.2-.5-.5-.5-.5.2-.5.5m2 1c0 .3.2.5.5.5s.5-.2.5-.5-.2-.5-.5-.5-.5.2-.5.5m21.4.7c-.4.7-.3.8.4.4 1.2-.7 1.6-1.6.8-1.6-.3 0-.8.5-1.2 1.2m-26.4.3c0 .3.2.5.5.5s.5-.2.5-.5-.2-.5-.5-.5-.5.2-.5.5m3.6 2.1c-.4 1-.1 1.4.6 1.2 1.5-.5 2.3-2.8 1-2.8-.5 0-1.3.7-1.6 1.6m-2.6 1.9c0 .3.2.5.5.5s.5-.2.5-.5-.2-.5-.5-.5-.5.2-.5.5m35 0c0 .3.2.5.5.5s.5-.2.5-.5-.2-.5-.5-.5-.5.2-.5.5m-37 4.5c0 .7.3 1 .7.7.3-.4.3-1 0-1.4-.4-.3-.7 0-.7.7m29 2c0 .7.3 1 .7.7.3-.4.3-1 0-1.4-.4-.3-.7 0-.7.7m-2.7.7c.4.3 1 .3 1.4 0 .3-.4 0-.7-.7-.7s-1 .3-.7.7m5.7.8c0 .3.2.5.5.5s.5-.2.5-.5-.2-.5-.5-.5-.5.2-.5.5m1 2c0 .3.2.5.5.5s.5-.2.5-.5-.2-.5-.5-.5-.5.2-.5.5m-30 1c0 .3.2.5.5.5s.5-.2.5-.5-.2-.5-.5-.5-.5.2-.5.5m41 0c0 .3.2.5.5.5s.5-.2.5-.5-.2-.5-.5-.5-.5.2-.5.5m-3 4c0 .3.2.5.5.5s.5-.2.5-.5-.2-.5-.5-.5-.5.2-.5.5m4 .5c0 .7.3 1 .7.7.3-.4.3-1 0-1.4-.4-.3-.7 0-.7.7m-40 .5c0 .3.2.5.5.5s.5-.2.5-.5-.2-.5-.5-.5-.5.2-.5.5m-19.7 28.2c.4.3 1 .3 1.4 0 .3-.4 0-.7-.7-.7s-1 .3-.7.7m3.7 3.8c0 .3.2.5.5.5s.5-.2.5-.5-.2-.5-.5-.5-.5.2-.5.5m-2 4c-1.9 2.2-.8 2.5 1.3.3.9-1 1.3-1.8.8-1.8s-1.4.7-2.1 1.5m16 0c0 .3.2.5.5.5s.5-.2.5-.5-.2-.5-.5-.5-.5.2-.5.5m-26.7 5.2c.4.6.3 1.5-.3 1.8-.8.5-.6 1.5.4 3.1 2 2.9 2 3.1.1 3.1-.8 0-1.5-.4-1.5-.9 0-.4-.7-.8-1.6-.8-1.1 0-1.5.6-1.1 2 .3 1.1.1 2.3-.5 2.6-.5.3-.8 1.5-.5 2.5.3 1.2 0 1.9-.9 1.9-.8 0-1.4.4-1.4.8 0 1.6 6.7 0 7.8-1.9.7-1.1.8-1.9.2-1.9-.5 0-.7-.7-.3-1.6.3-.8 1.1-1.3 1.8-1 .7.2 1.2-.3 1.1-1.2-.1-1.1.5-1.6 1.6-1.4.9.1 1.9-.2 2.2-.7.7-1.1-2.9-2.5-4.3-1.6-.5.3-1.2.1-1.5-.4-.4-.5.1-1.1 1-1.3 1.4-.2 1.2-.6-.7-2.3-1.2-1.1-1.9-1.5-1.6-.8m1.7 1.8c0 .3-.2.5-.5.5s-.5-.2-.5-.5.2-.5.5-.5.5.2.5.5m-4 12c0 .3-.2.5-.5.5s-.5-.2-.5-.5.2-.5.5-.5.5.2.5.5m6.5-13.5c-.3.5-.1 1 .4 1 .6 0 1.1-.5 1.1-1 0-.6-.2-1-.4-1-.3 0-.8.4-1.1 1m-8.5 1.5c0 .3.2.5.5.5s.5-.2.5-.5-.2-.5-.5-.5-.5.2-.5.5m-3 2.7c0 .9.5 2 1 2.3 1.3.8 1.3-.5 0-2.5-.8-1.3-1-1.3-1 .2m2.5-.2c.3.5.8 1 1.1 1 .2 0 .4-.5.4-1 0-.6-.5-1-1.1-1-.5 0-.7.4-.4 1m-4.5.5c0 .3.2.5.5.5s.5-.2.5-.5-.2-.5-.5-.5-.5.2-.5.5m.6 3.4c-.3.5-1.6.7-2.8.3-1.3-.3-1.9-.1-1.5.6.4.5.1 1.3-.5 1.6-1 .5-1 .7 0 1.2 1.8.8-.4 3.4-2.9 3.4-2.3 0-3.3 1.6-1.4 2.4.8.3 1.5.2 1.5-.2s1-1.3 2.2-2.1c1.9-1.2 2.3-1.1 3.9 1l1.8 2.4-.4-2.4c-.3-1.4 0-3 .6-3.8 1.4-1.7-.3-1.7-2-.1-1 1.1-1.2 1-.9-.2.2-.8 1.2-2.2 2.3-3.2 1.1-.9 1.7-1.7 1.3-1.8-.4 0-.9.4-1.2.9m30.4-.4c0 .3.2.5.5.5s.5-.2.5-.5-.2-.5-.5-.5-.5.2-.5.5"/><path d="M4259 2055.5c0 .3.2.5.5.5s.5-.2.5-.5-.2-.5-.5-.5-.5.2-.5.5m20 0c0 .3.2.5.5.5s.5-.2.5-.5-.2-.5-.5-.5-.5.2-.5.5m-32 1c0 .3.2.5.5.5s.5-.2.5-.5-.2-.5-.5-.5-.5.2-.5.5m4.3 6.2c.4.3 1 .3 1.4 0 .3-.4 0-.7-.7-.7s-1 .3-.7.7m15.7 1.2c0 .5.7 1.2 1.6 1.5 1.4.5 1.5.4.4-.9-1.4-1.7-2-1.9-2-.6m-11 1.6c0 .3.2.5.5.5s.5-.2.5-.5-.2-.5-.5-.5-.5.2-.5.5m8.2.8c-.8 1-.6 1.6.9 2.5 1.1.7 1.9.8 1.9.2 0-.5-.5-1-1.1-1s-.9-.7-.5-1.5c.7-1.8.2-1.9-1.2-.2m-3.2 1.2c0 .3.2.5.5.5s.5-.2.5-.5-.2-.5-.5-.5-.5.2-.5.5m8 6.5c-1.3.8-1.2 1 .3 1 .9 0 1.7-.5 1.7-1 0-1.2-.1-1.2-2 0m-11 2c0 2.1 1.5 2.7 2.5 1 .3-.6.1-1-.5-1s-.8-.5-.5-1c.3-.6.1-1-.4-1-.6 0-1.1.9-1.1 2m13.7 0c-.3 1.1-.1 2 .4 2s.9-.9.9-2-.2-2-.4-2-.6.9-.9 2m-9.4 2.7c.4.3 1 .3 1.4 0 .3-.4 0-.7-.7-.7s-1 .3-.7.7m4.7.3c0 .7.3 1 .7.7.3-.4.3-1 0-1.4-.4-.3-.7 0-.7.7m-40 1.8c0 .5.7.9 1.5.9s1.5-.4 1.5-.9c0-.4-.7-.8-1.5-.8s-1.5.4-1.5.8m30-.3c0 .3.2.5.5.5s.5-.2.5-.5-.2-.5-.5-.5-.5.2-.5.5m11.4.7c-.4.7-.3.8.4.4s1.2-.9 1.2-1.2c0-.8-.9-.4-1.6.8m-36.4.3c0 .3.2.5.5.5s.5-.2.5-.5-.2-.5-.5-.5-.5.2-.5.5m2.7.6c.7.7 1.5 1 1.8.7s-.2-.9-1.2-1.2c-1.4-.6-1.5-.5-.6.5m13.3-.1c0 .5.5 1 1.1 1 .5 0 .7-.5.4-1-.3-.6-.8-1-1.1-1-.2 0-.4.4-.4 1m14 0c0 .7.3 1 .7.7.3-.4.3-1 0-1.4-.4-.3-.7 0-.7.7m3-.5c0 .3.2.5.5.5s.5-.2.5-.5-.2-.5-.5-.5-.5.2-.5.5m-21 1c0 .3.2.5.5.5s.5-.2.5-.5-.2-.5-.5-.5-.5.2-.5.5m12.6 1c-.3.9 0 1.5.9 1.5s1.2-.6.9-1.5c-.4-.8-.7-1.5-.9-1.5s-.5.7-.9 1.5m-34.4.7c.2.5.8.9 1.3.9s1.1-.4 1.3-.9c.1-.5-.4-.9-1.3-.9s-1.4.4-1.3.9m3.8-.8c0 .2.7.6 1.5 1 .8.3 1.5.1 1.5-.4 0-.6-.7-1-1.5-1s-1.5.2-1.5.4m5.2.8c-.7.7-1.2 1.6-1.2 2 0 1.1 3.8 1 4.4-.1.4-.5-.4-.7-1.6-.3-2.1.5-2.2.4-.9-1.1 1.6-2 1.1-2.3-.7-.5m16.2 2.4c1.3 1.8 1.1 2.2-1.5 4-1.7 1.1-2.8 2.7-2.8 3.9.1 1.7.2 1.7.6.2.3-1 1.4-1.7 2.8-1.7 1.5 0 2.6-.7 3-2 .5-1.5 1.1-1.7 3-1 2.2.8 3.5.5 3.5-1.1 0-.4-.9-.6-1.9-.4-1.4.3-1.8-.1-1.4-1.1.3-.8.9-1.4 1.4-1.4s.9-.4.9-.8c0-.5-2-.8-4.4-.8-4.3.1-4.4.2-3.2 2.2m4.6-1.2c0 .3-.5.8-1.2 1.2s-.8.3-.4-.4c.7-1.2 1.6-1.6 1.6-.8m-3 1.1c0 .3-.2.5-.5.5s-.5-.2-.5-.5.2-.5.5-.5.5.2.5.5m-31-.5c0 .7.3 1 .7.7.3-.4.3-1 0-1.4-.4-.3-.7 0-.7.7m44 1.2c2.8 2.3 6.9 2.5 5 .3-.7-.8-1.6-1.2-2.1-.9s-.9.1-.9-.5c0-.5-.9-.9-2.1-.8-2.1.1-2.1.1.1 1.9m5.3-1.5c.4.3 1 .3 1.4 0 .3-.4 0-.7-.7-.7s-1 .3-.7.7m48.7-.2c0 .3.2.5.5.5s.5-.2.5-.5-.2-.5-.5-.5-.5.2-.5.5m-60 1c0 .3.2.5.5.5s.5-.2.5-.5-.2-.5-.5-.5-.5.2-.5.5m54.7 1.4c-.7 2.7.3 3.4 1.9 1.3 1.7-2.2 1.7-3.2 0-3.2-.7 0-1.6.9-1.9 1.9m-94.7-.4c0 .3.2.5.5.5s.5-.2.5-.5-.2-.5-.5-.5-.5.2-.5.5"/><path d="M4245 2087.5c0 .3.2.5.5.5s.5-.2.5-.5-.2-.5-.5-.5-.5.2-.5.5m28 1c0 .3.2.5.5.5s.5-.2.5-.5-.2-.5-.5-.5-.5.2-.5.5m-60.2 1c-.4.4-.4 1.3-.1 2.1s.2 1.4-.3 1.3c-2.2-.4-3.1.3-2.9 2.2.2 2.4 3.1 5 5.4 4.8 1.3-.1 1.2-.2-.1-.6-1.9-.5-2.4-1.8-1-2.6.4-.2.1-.2-.5-.1-1.6.4-1.6-.1-.2-2.7 1.1-2.1.9-5.6-.3-4.4m-1.8 7c0 .3-.2.5-.5.5s-.5-.2-.5-.5.2-.5.5-.5.5.2.5.5m47-7c0 .3.2.5.5.5s.5-.2.5-.5-.2-.5-.5-.5-.5.2-.5.5m-17.5 2.5c.3.5.8 1 1.1 1 .2 0 .4-.5.4-1 0-.6-.5-1-1.1-1-.5 0-.7.4-.4 1m9.5 0c0 .5.9 1 2 1s2-.5 2-1c0-.6-.9-1-2-1s-2 .4-2 1m13.5 0c-.3.5-.1 1 .4 1 .6 0 1.1-.5 1.1-1 0-.6-.2-1-.4-1-.3 0-.8.4-1.1 1m-48.5 1.8c0 .5.7.9 1.5.9s1.2-.4.9-.9c-.3-.4-.9-.8-1.5-.8-.5 0-.9.4-.9.8m22-.3c0 .3.2.5.5.5s.5-.2.5-.5-.2-.5-.5-.5-.5.2-.5.5m2 2c0 .3.2.5.5.5s.5-.2.5-.5-.2-.5-.5-.5-.5.2-.5.5m2 0c0 .3.2.5.5.5s.5-.2.5-.5-.2-.5-.5-.5-.5.2-.5.5m-9 1c0 .3.2.5.5.5s.5-.2.5-.5-.2-.5-.5-.5-.5.2-.5.5m2 0c0 .3.2.5.5.5s.5-.2.5-.5-.2-.5-.5-.5-.5.2-.5.5m69 0c0 .3.2.5.5.5s.5-.2.5-.5-.2-.5-.5-.5-.5.2-.5.5m-65 1.5c0 .5.5 1 1.1 1 .5 0 .7-.5.4-1-.3-.6-.8-1-1.1-1-.2 0-.4.4-.4 1m3-.5c0 .3.2.5.5.5s.5-.2.5-.5-.2-.5-.5-.5-.5.2-.5.5m69 0c0 .3.2.5.5.5s.5-.2.5-.5-.2-.5-.5-.5-.5.2-.5.5m-41 1.5c0 .7.3 1 .7.7.3-.4.3-1 0-1.4-.4-.3-.7 0-.7.7m30-.5c0 .3.2.5.5.5s.5-.2.5-.5-.2-.5-.5-.5-.5.2-.5.5m-7 2c0 .3.2.5.5.5s.5-.2.5-.5-.2-.5-.5-.5-.5.2-.5.5m-87.9 1.4c-.8.5-.9 1.1-.3 1.5.5.3 1.2-.1 1.6-.9.6-1.7.6-1.8-1.3-.6m4.9.6c0 .3.2.5.5.5s.5-.2.5-.5-.2-.5-.5-.5-.5.2-.5.5m82 0c0 .3.2.5.5.5s.5-.2.5-.5-.2-.5-.5-.5-.5.2-.5.5m3.5.5c-.3.5-.1 1 .4 1 .6 0 1.1-.5 1.1-1 0-.6-.2-1-.4-1-.3 0-.8.4-1.1 1m2.8-.3c.4.3 1 .3 1.4 0 .3-.4 0-.7-.7-.7s-1 .3-.7.7m-70.3.8c0 .3.2.5.5.5s.5-.2.5-.5-.2-.5-.5-.5-.5.2-.5.5m-21 1c0 .3.2.5.5.5s.5-.2.5-.5-.2-.5-.5-.5-.5.2-.5.5m110.5.5c-.3.5-.1 1 .4 1 .6 0 1.1-.5 1.1-1 0-.6-.2-1-.4-1-.3 0-.8.4-1.1 1m-26.5.5c0 .3.2.5.5.5s.5-.2.5-.5-.2-.5-.5-.5-.5.2-.5.5m-2.5 1.5c-.3.5-.1 1 .4 1 .6 0 1.1-.5 1.1-1 0-.6-.2-1-.4-1-.3 0-.8.4-1.1 1m5.5-.5c0 .3.2.5.5.5s.5-.2.5-.5-.2-.5-.5-.5-.5.2-.5.5m20 1c0 .3.2.5.5.5s.5-.2.5-.5-.2-.5-.5-.5-.5.2-.5.5m-106 1c0 .3.2.5.5.5s.5-.2.5-.5-.2-.5-.5-.5-.5.2-.5.5m84 0c0 .3.2.5.5.5s.5-.2.5-.5-.2-.5-.5-.5-.5.2-.5.5m-4.7 1.2c.4.3 1 .3 1.4 0 .3-.4 0-.7-.7-.7s-1 .3-.7.7m23.7.8c0 .3.2.5.5.5s.5-.2.5-.5-.2-.5-.5-.5-.5.2-.5.5m-16 3c0 .3.2.5.5.5s.5-.2.5-.5-.2-.5-.5-.5-.5.2-.5.5m9 .9c0 .9.5 1.6 1 1.6.6 0 1-.4 1-.9 0-.6-.4-1.3-1-1.6-.5-.3-1 .1-1 .9m11-.9c0 .3.2.5.5.5s.5-.2.5-.5-.2-.5-.5-.5-.5.2-.5.5m-40.5 1.4c-.3.5-.1 1.2.5 1.6.5.3 1-.1 1-.9 0-1.8-.6-2.1-1.5-.7m26.5-.4c0 .3.2.5.5.5s.5-.2.5-.5-.2-.5-.5-.5-.5.2-.5.5m16 0c0 .3.2.5.5.5s.5-.2.5-.5-.2-.5-.5-.5-.5.2-.5.5m-20 1c0 .3.2.5.5.5s.5-.2.5-.5-.2-.5-.5-.5-.5.2-.5.5m-2 1c0 .3.2.5.5.5s.5-.2.5-.5-.2-.5-.5-.5-.5.2-.5.5m6 1c0 .3.2.5.5.5s.5-.2.5-.5-.2-.5-.5-.5-.5.2-.5.5m-18.2 1.7c.5.5 1.6.8 2.3.6.8-.3.3-.7-1-1.1-1.7-.4-2.1-.3-1.3.5m19.5.8c-1.5 2.3-.1 3.5 2.5 2.1 1.1-.6 2.3-.7 2.7-.3s.2-.3-.4-1.6c-1.4-2.7-3.2-2.8-4.8-.2m3.7-.5c0 .3-.2.5-.5.5s-.5-.2-.5-.5.2-.5.5-.5.5.2.5.5m-3 2c0 .3-.2.5-.5.5s-.5-.2-.5-.5.2-.5.5-.5.5.2.5.5m17-3c0 .3.2.5.5.5s.5-.2.5-.5-.2-.5-.5-.5-.5.2-.5.5m-25 2c0 .3.2.5.5.5s.5-.2.5-.5-.2-.5-.5-.5-.5.2-.5.5m7.3 5.7c-.2 1.8 0 2 .7.8 1.2-1.8 1.3-3 .2-3-.4 0-.9 1-.9 2.2m-15.3-.7c0 .3.2.5.5.5s.5-.2.5-.5-.2-.5-.5-.5-.5.2-.5.5m11 0c0 .3.2.5.5.5s.5-.2.5-.5-.2-.5-.5-.5-.5.2-.5.5m7 2c0 .3.2.5.5.5s.5-.2.5-.5-.2-.5-.5-.5-.5.2-.5.5m-24 2c0 .3.2.5.5.5s.5-.2.5-.5-.2-.5-.5-.5-.5.2-.5.5m36 0c0 .3.2.5.5.5s.5-.2.5-.5-.2-.5-.5-.5-.5.2-.5.5m-23 1.6c0 .5.4.8.9.5.5-.4 1.1 0 1.4.6.2.7.8.9 1.3.5s.2-1.2-.6-1.7c-2-1.3-3-1.2-3 .1m23.3.6c.4.3 1 .3 1.4 0 .3-.4 0-.7-.7-.7s-1 .3-.7.7m-18.3 1.1c0 1.6 3.2 5.2 4.1 4.6.5-.3 1.7 0 2.6.7 1.3 1.2 1.5 1.1 1.1-.6-.2-1.2-1-1.9-2.1-1.7s-1.7-.4-1.7-1.5c0-1.5-.2-1.6-1-.3-.9 1.3-1.4.7-1.1-1.3 0-.4-.3-.7-.9-.7-.5 0-1 .3-1 .8m4 3.7c0 .3-.2.5-.5.5s-.5-.2-.5-.5.2-.5.5-.5.5.2.5.5m1-4c0 .3.2.5.5.5s.5-.2.5-.5-.2-.5-.5-.5-.5.2-.5.5m-10.7 2.2c.4.3 1 .3 1.4 0 .3-.4 0-.7-.7-.7s-1 .3-.7.7m3.6 0c-.1.5-.1 1.1 0 1.5 0 .4-.6.5-1.4.2-.8-.4-1.5-.1-1.5.5s.7 1.1 1.5 1.1 1.5.9 1.5 2.1c0 1.1.5 1.7 1 1.4.6-.3 1.1.2 1.2 1.2 0 1 .2 2.2.3 2.8.2.5.4 1.4.5 2 .1.5.2 1.2.2 1.5s.8 1.7 1.9 3c1.8 2.3 2 2.4 3 .7 1-1.8 1.2-1.8 3-.1 1.4 1.3 2.3 1.4 3 .7 1.5-1.5.3-3.3-2.2-3.3-1.7 0-2.4-1.1-2-3.3.1-.5-.3-.6-.8-.2-.6.3-.8 1.1-.5 1.8.2.7-.3 2.1-1.1 3.2-1.6 1.9-1.6 1.9-1.2-.8.2-1.6 0-2.7-.7-2.7-.6 0-.4-.5.4-1 1.3-.9 1.3-1.2-.2-2.4-1-.7-1.5-1.6-1.1-1.9.3-.4.1-1.3-.5-2-.7-.8-.9-1.7-.5-2 .3-.4.1-.7-.5-.7-.7 0-1.2-.9-1.2-2 0-1.8-1.9-2.9-2.1-1.3m21.7.6c.3 1 .9 1.5 1.2 1.2s0-1.1-.7-1.8c-1-.9-1.1-.8-.5.6m3.7.4c.4.3 1 .3 1.4 0 .3-.4 0-.7-.7-.7s-1 .3-.7.7m-6.3 1.8c0 .3.2.5.5.5s.5-.2.5-.5-.2-.5-.5-.5-.5.2-.5.5"/><path d="M4303.5 2142c.3.5.8 1 1.1 1s.2-.5-.1-1c-.3-.6-.8-1-1.1-1s-.2.4.1 1m.5 2.5c0 .3.2.5.5.5s.5-.2.5-.5-.2-.5-.5-.5-.5.2-.5.5m3 4c0 .3.2.5.5.5s.5-.2.5-.5-.2-.5-.5-.5-.5.2-.5.5m-1 6.5c0 .6.7 1 1.5 1s1.5-.2 1.5-.4-.7-.6-1.5-1c-.8-.3-1.5-.1-1.5.4m-2 .5c0 .3.2.5.5.5s.5-.2.5-.5-.2-.5-.5-.5-.5.2-.5.5m-65.5 2.7c.7 2.3.7 2.3-1 .3-1.2-1.5-1.5-1.6-1.2-.4.7 2.1-2.3 2-4-.1-1.1-1.3-1.2-1.3-1.3.2 0 1-.7 1.8-1.5 1.8-2.2 0-1.8 1.5.8 2.8l2.2 1.1h-2.3c-1.5.1-2.1.5-1.6 1.3s.2.9-1 .5c-1-.4-1.5-.3-1.1.3.3.6 1.4 1 2.3 1 1.3 0 1.4.2.4.9-1.1.6-.8 1.3 1.2 2.8 1.4 1.1 2.2 2.3 1.9 2.7-.4.3-1.4-.1-2.4-1-1.6-1.4-1.7-1.4-1.5.1.1.9.7 2 1.2 2.3 1.5 1.2 1.5 3.2-.1 3.2-1.7 0-2 1.6-.6 2.4.5.4 1.2 0 1.4-.6.3-.7.6.6.6 2.9.1 2.4.4 4.2.9 4.2 1.9-.3 3.2.2 3 1.2-.2.6.7 1.5 2 2 1.5.6 2.2.5 2.2-.4 0-.8.4-.7 1 .3.9 1.3 1.1 1.3 2 0 .5-.8 1-2.5 1-3.8s.6-2.2 1.5-2.2 1.2.6.9 1.5c-.4.8-.1 1.5.5 1.5s1.1-.7 1.1-1.5.4-1.5 1-1.5c.5 0 .7.6.4 1.4s.3 1.9 1.5 2.5c2.9 1.6 3.9 1.3 1.7-.4-1.8-1.3-1.8-1.5-.3-1.5 1 0 2 .7 2.3 1.5.5 1.2 1 1.3 2 .4 1-.8 1.8-.9 2.7 0 .8.6 1.6.9 1.9.6s1 .1 1.7.8c.9 1.1.8 1.7-.4 2.7-1.7 1.4-2.1 3.5-.5 2.5.6-.3 1 .1 1 1 0 1.2.7.8 2.4-1.2 1.3-1.5 2.2-3 1.9-3.3s-.8.1-1 .7c-.8 2.3-2 1.3-1.5-1.2.2-1.4 1.1-2.5 2.1-2.5s1.2-.3.5-.8c-.7-.4-.8-1.5-.3-2.7l.8-2v2c.1 1.5.4 1.6 1 .7 1-1.7.2-6.2-1.3-6.8-1.6-.6-1.4-5.8.3-7.8 1.2-1.4 1.2-1.6-.4-1-1.5.6-1.7.3-1.3-1.9.5-2.4-1.6-4.6-3-3.2-.3.3 0 .5.7.5.9 0 .9.4-.1 1.4-1.1 1.2-1.4 1.1-2-.5-.4-1-1.6-1.9-2.7-1.9s-2.4-.7-2.9-1.5c-.7-1.4-1.1-1.3-2.7.5-1.7 1.9-1.9 1.9-3.2.2-.8-.9-1.2-1.2-.9-.5.4.6.2 1.4-.4 1.8-.5.3-1-.1-1-1s-.4-1.3-1-1c-.5.3-1-.1-1-1s.4-1.4.8-1.1c.5.3.9-.1.9-.8 0-.9-1.3-1.3-3.6-1.3-2.2 0-3.5-.4-3.3-1.1.1-.7-.3-1.2-.9-1.2s-.8.9-.4 2.2m-2.5 4.3c0 .3-.2.5-.5.5s-.5-.2-.5-.5.2-.5.5-.5.5.2.5.5m10 3c0 .3-.2.5-.5.5s-.5-.2-.5-.5.2-.5.5-.5.5.2.5.5m13.7 1.2c-.4.3-.7 0-.7-.7s.3-1 .7-.7c.3.4.3 1 0 1.4m-15.7-.2c0 .3-.2.5-.5.5s-.5-.2-.5-.5.2-.5.5-.5.5.2.5.5m20 4c0 .3-.2.5-.5.5s-.5-.2-.5-.5.2-.5.5-.5.5.2.5.5m-25 1c0 .3-.2.5-.5.5s-.5-.2-.5-.5.2-.5.5-.5.5.2.5.5m-3 4c0 .3-.2.5-.5.5s-.5-.2-.5-.5.2-.5.5-.5.5.2.5.5"/><path d="M4226 2163c0 .7.3 1 .7.7.3-.4.3-1 0-1.4-.4-.3-.7 0-.7.7m31-.5c0 .3.2.5.5.5s.5-.2.5-.5-.2-.5-.5-.5-.5.2-.5.5m9 5c0 .3.2.5.5.5s.5-.2.5-.5-.2-.5-.5-.5-.5.2-.5.5m33 2c0 .3.2.5.5.5s.5-.2.5-.5-.2-.5-.5-.5-.5.2-.5.5m-1388 1.4c0 1 1.9 2.5 2.5 2 .1-.2-.3-1-1.1-1.7s-1.4-.8-1.4-.3m1383.4 1.5c.5 3.5 7 6.9 7.9 4.2.6-1.5-1.1-4.6-2.4-4.6-.6 0-.7.4-.4 1s-.5 1-1.9 1c-1.8 0-2.4-.4-2-1.5.4-.8.2-1.5-.4-1.5s-.9.6-.8 1.4m3.6 3.1c0 .3-.2.5-.5.5s-.5-.2-.5-.5.2-.5.5-.5.5.2.5.5m-30-3c0 .3.2.5.5.5s.5-.2.5-.5-.2-.5-.5-.5-.5.2-.5.5m36 1.6c0 .5.5.7 1 .4.6-.3 1-.8 1-1.1 0-.2-.4-.4-1-.4-.5 0-1 .5-1 1.1m-1382 1.4c0 .3.2.5.5.5s.5-.2.5-.5-.2-.5-.5-.5-.5.2-.5.5m1347 0c0 .3.2.5.5.5s.5-.2.5-.5-.2-.5-.5-.5-.5.2-.5.5m40 .6c0 .5.5.7 1 .4.6-.3 1-.8 1-1.1 0-.2-.4-.4-1-.4-.5 0-1 .5-1 1.1m-40.5 1.9c.3.5.8 1 1.1 1 .2 0 .4-.5.4-1 0-.6-.5-1-1.1-1-.5 0-.7.4-.4 1m48.5.5c0 .3.2.5.5.5s.5-.2.5-.5-.2-.5-.5-.5-.5.2-.5.5m12 1c0 .3.2.5.5.5s.5-.2.5-.5-.2-.5-.5-.5-.5.2-.5.5m-1407.7 1.2c.4.3 1 .3 1.4 0 .3-.4 0-.7-.7-.7s-1 .3-.7.7m2.7.3c0 .7.3 1 .7.7.3-.4.3-1 0-1.4-.4-.3-.7 0-.7.7m1402 .5c0 .3.2.5.5.5s.5-.2.5-.5-.2-.5-.5-.5-.5.2-.5.5m66 2c0 .3.2.5.5.5s.5-.2.5-.5-.2-.5-.5-.5-.5.2-.5.5m-22 1c0 .3.2.5.5.5s.5-.2.5-.5-.2-.5-.5-.5-.5.2-.5.5m16 0c0 .3.2.5.5.5s.5-.2.5-.5-.2-.5-.5-.5-.5.2-.5.5m-47 1c0 .3.2.5.5.5s.5-.2.5-.5-.2-.5-.5-.5-.5.2-.5.5m-83 3.5c0 .7.3 1 .7.7.3-.4.3-1 0-1.4-.4-.3-.7 0-.7.7m-13 1c0 .5.5 1 1.1 1 .5 0 .7-.5.4-1-.3-.6-.8-1-1.1-1-.2 0-.4.4-.4 1m16.4 1.2c-.4.7-.3.8.4.4 1.2-.7 1.6-1.6.8-1.6-.3 0-.8.5-1.2 1.2m137.6-.7c0 .3.2.5.5.5s.5-.2.5-.5-.2-.5-.5-.5-.5.2-.5.5m-141 1c0 .3.2.5.5.5s.5-.2.5-.5-.2-.5-.5-.5-.5.2-.5.5m9 4c0 .3.2.5.5.5s.5-.2.5-.5-.2-.5-.5-.5-.5.2-.5.5m2 0c0 .3.2.5.5.5s.5-.2.5-.5-.2-.5-.5-.5-.5.2-.5.5m-11 1c0 .3.2.5.5.5s.5-.2.5-.5-.2-.5-.5-.5-.5.2-.5.5m-1315 2c0 .3.2.5.5.5s.5-.2.5-.5-.2-.5-.5-.5-.5.2-.5.5m1456 2c0 .3.2.5.5.5s.5-.2.5-.5-.2-.5-.5-.5-.5.2-.5.5m2 0c0 .3.2.5.5.5s.5-.2.5-.5-.2-.5-.5-.5-.5.2-.5.5m-3.4 6.4c-.3.5.1 1.2 1 1.5 2.2.8 2.5.4.9-1.1-.8-.7-1.6-.9-1.9-.4M2938 2235.5c0 .3.2.5.5.5s.5-.2.5-.5-.2-.5-.5-.5-.5.2-.5.5m0 3c0 .3.2.5.5.5s.5-.2.5-.5-.2-.5-.5-.5-.5.2-.5.5m-4.7 2.2c.4.3 1 .3 1.4 0 .3-.4 0-.7-.7-.7s-1 .3-.7.7m1.7 3.8c0 .3.2.5.5.5s.5-.2.5-.5-.2-.5-.5-.5-.5.2-.5.5m-9 2.5c0 .7.3 1 .7.7.3-.4.3-1 0-1.4-.4-.3-.7 0-.7.7m1466.4 2.2c-.4.7-.3.8.4.4 1.2-.7 1.6-1.6.8-1.6-.3 0-.8.5-1.2 1.2m4.9.5c.4.3 1 .3 1.4 0 .3-.4 0-.7-.7-.7s-1 .3-.7.7m-1482 1c.4.3 1 .3 1.4 0 .3-.4 0-.7-.7-.7s-1 .3-.7.7m1468.7-.2c0 .3.2.5.5.5s.5-.2.5-.5-.2-.5-.5-.5-.5.2-.5.5m10 0c0 .3.2.5.5.5s.5-.2.5-.5-.2-.5-.5-.5-.5.2-.5.5m-1460.5 3.5c-.3.5-.1 1 .4 1 .6 0 1.1-.5 1.1-1 0-.6-.2-1-.4-1-.3 0-.8.4-1.1 1m2.5-.5c0 .3.2.5.5.5s.5-.2.5-.5-.2-.5-.5-.5-.5.2-.5.5m1438 10c0 .3.2.5.5.5s.5-.2.5-.5-.2-.5-.5-.5-.5.2-.5.5m-1414 1c0 .3.2.5.5.5s.5-.2.5-.5-.2-.5-.5-.5-.5.2-.5.5m1408 2c0 .3.2.5.5.5s.5-.2.5-.5-.2-.5-.5-.5-.5.2-.5.5m-1410 4c0 .3.2.5.5.5s.5-.2.5-.5-.2-.5-.5-.5-.5.2-.5.5m1391.7.6c.7.7 1.5 1 1.8.7s-.2-.9-1.2-1.2c-1.4-.6-1.5-.5-.6.5m5.3-.6c0 .3.2.5.5.5s.5-.2.5-.5-.2-.5-.5-.5-.5.2-.5.5m-2 2.5c0 .5.7.7 1.5.4.8-.4 1.5-.8 1.5-1s-.7-.4-1.5-.4-1.5.4-1.5 1m-8 .5c0 .3.2.5.5.5s.5-.2.5-.5-.2-.5-.5-.5-.5.2-.5.5m-1378 4c0 .3.2.5.5.5s.5-.2.5-.5-.2-.5-.5-.5-.5.2-.5.5m1377 1c0 .3.2.5.5.5s.5-.2.5-.5-.2-.5-.5-.5-.5.2-.5.5m-1413 1c0 .3.2.5.5.5s.5-.2.5-.5-.2-.5-.5-.5-.5.2-.5.5m2 0c0 .3.2.5.5.5s.5-.2.5-.5-.2-.5-.5-.5-.5.2-.5.5m2 2c0 .3.2.5.5.5s.5-.2.5-.5-.2-.5-.5-.5-.5.2-.5.5m-4.5 1.5c-.3.6.1.7.9.4 1.8-.7 2.1-1.4.7-1.4-.6 0-1.3.4-1.6 1m602.5-.5c0 .3.2.5.5.5s.5-.2.5-.5-.2-.5-.5-.5-.5.2-.5.5m-598.3 1.2c-.4.3-.7 1.1-.7 1.7s.5.5 1.2-.2c.6-.6.9-1.4.7-1.7-.3-.3-.9-.2-1.2.2m601.3.7c0 .8.4 1.7.9 2 1.1.7 3.3-1.8 2.4-2.7-1.2-1.2-3.3-.7-3.3.7m-605 1.1c0 .3.2.5.5.5s.5-.2.5-.5-.2-.5-.5-.5-.5.2-.5.5m1388 4c0 .3.2.5.5.5s.5-.2.5-.5-.2-.5-.5-.5-.5.2-.5.5m2 4c0 .3.2.5.5.5s.5-.2.5-.5-.2-.5-.5-.5-.5.2-.5.5m-12 6.5c0 .7.3 1 .7.7.3-.4.3-1 0-1.4-.4-.3-.7 0-.7.7m-7.7 2.7c.4.3 1 .3 1.4 0 .3-.4 0-.7-.7-.7s-1 .3-.7.7m-624.1 2.3c-.6 1.1-.8 2.1-.4 2.4s1.3-.4 2-1.4c.6-1.1.8-2.1.4-2.4s-1.3.4-2 1.4m-718.9 2.7c.4.3 1 .3 1.4 0 .3-.4 0-.7-.7-.7s-1 .3-.7.7m1333.2 2.3c.3.5.8 1 1.1 1s.2-.5-.1-1c-.3-.6-.8-1-1.1-1s-.2.4.1 1m-30.5.5c0 .3.2.5.5.5s.5-.2.5-.5-.2-.5-.5-.5-.5.2-.5.5m-864.7 22.2c.4.3 1 .3 1.4 0 .3-.4 0-.7-.7-.7s-1 .3-.7.7m-223.3 8.8c-.7.9-2.1 1.3-3.1 1-1.2-.4-3 .2-4.5 1.4s-3.6 2.1-4.6 2.1c-1.7 0-3 2-3.2 5-.1 1.3-3.2 4-4.7 4-.9 0-2.4.9-3.5 2.1-1.5 1.6-1.6 2.4-.6 3.9.7 1.2.8 2.1.2 2.5-1.5.9-1.2 3.5.3 3.5 2.5 0 3.7-2.1 2.5-4.4-.6-1.2-.7-1.8-.3-1.4.5.4 1.5.2 2.3-.4.8-.7 2-1.3 2.6-1.3.6-.1 2.4-.5 3.9-.9 2-.6 3.3-.4 4.6.8 1.8 1.6 4.5 1.7 6.8.3.6-.4 1.3-.2 1.5.5.5 1.5 2.8.1 2.8-1.8 0-.8-.4-1.2-1-.9-.5.3-.7 0-.4-.8s-.1-2.1-.8-2.8c-1.2-1.2-1.2-1.8-.1-3.9.7-1.4 1.3-1.9 1.3-1.3 0 .7.9 1.3 2 1.3 1.6 0 2-.7 2-3.4 0-3.2-2-6.6-3.9-6.6-.5 0-1.4.7-2.1 1.5m-12 8c0 .3-.2.5-.5.5s-.5-.2-.5-.5.2-.5.5-.5.5.2.5.5m-7-7.4c0 .5.5.7 1 .4.6-.3 1-.8 1-1.1 0-.2-.4-.4-1-.4-.5 0-1 .5-1 1.1"/><path d="M3154.5 2363c.4.6 1.1.8 1.6.5 1.4-.9 1.1-1.5-.7-1.5-.8 0-1.2.5-.9 1m-22.5 3c0 .5.5 1 1 1 .6 0 1-.5 1-1 0-.6-.4-1-1-1-.5 0-1 .4-1 1m1059 1.5c0 .3.2.5.5.5s.5-.2.5-.5-.2-.5-.5-.5-.5.2-.5.5m-1064.8 2.2c-2.5.3-3.5 1.1-4.3 3.1-.5 1.5-1.3 3.4-1.8 4.2-.4.8-.4 2.5 0 3.8.7 1.8.5 2.2-1.1 2.2-2.5 0-3.5 1.7-1.3 2.2 3.5.7 7.2-.4 7.8-2.3.4-1 1.5-1.9 2.5-1.9s2.7-1.5 3.9-3.5c1.1-1.9 1.6-3.5 1.1-3.5s-1-1-1.2-2.2c-.3-2.4-.9-2.6-5.6-2.1m11.2 1.8c-.3.8-.3 1.9.1 2.4.8 1.3 4.5-.9 4.5-2.6 0-1.8-3.9-1.6-4.6.2m20.6.5c0 1.9 1.1 2.6 2.3 1.4.8-.8-.3-3.4-1.4-3.4-.5 0-.9.9-.9 2m6.8.3c-2.1 1.7-2.6 2.8-2.1 4.5.4 1.8.2 2.3-1 2-.9-.2-1.6 0-1.6.4-.3 3.4 0 4 1.9 3.5 1.1-.3 1.8-.1 1.4.4-.3.5 0 .9.5.9.6 0 1.1-.5 1.1-1 0-.6.6-1 1.4-1 .7 0 1.9-.6 2.5-1.4 1-1.2.8-1.9-.9-3.6s-1.9-2.4-1-3.5c2.1-2.6.5-3.4-2.2-1.2m156.2-.3c0 .7.3 1 .7.7.3-.4.3-1 0-1.4-.4-.3-.7 0-.7.7m-58 8.5c0 .3.2.5.5.5s.5-.2.5-.5-.2-.5-.5-.5-.5.2-.5.5m342.1.4c-1 .6-1 1-.1 1.6 1.3.8 2.4.1 1.9-1.4-.3-.6-1-.7-1.8-.2m-339.1.6c0 .3.2.5.5.5s.5-.2.5-.5-.2-.5-.5-.5-.5.2-.5.5m29 1c0 .3.2.5.5.5s.5-.2.5-.5-.2-.5-.5-.5-.5.2-.5.5m-28.7 1.2c.4.3 1 .3 1.4 0 .3-.4 0-.7-.7-.7s-1 .3-.7.7m4.7-.2c0 .3.2.5.5.5s.5-.2.5-.5-.2-.5-.5-.5-.5.2-.5.5m16.5 1.6c-.4.6-.5 1.2-.2 1.5.2.3.7-.2 1-1.1.7-1.7.1-2-.8-.4m889.5.4c0 .3.2.5.5.5s.5-.2.5-.5-.2-.5-.5-.5-.5.2-.5.5m-927 2.5c0 .5.5 1 1 1 .6 0 1-.5 1-1 0-.6-.4-1-1-1-.5 0-1 .4-1 1m930-.5c0 .3.2.5.5.5s.5-.2.5-.5-.2-.5-.5-.5-.5.2-.5.5m-917 2c0 .3.2.5.5.5s.5-.2.5-.5-.2-.5-.5-.5-.5.2-.5.5m333.5.4c-.6 1 1.1 2.4 3.3 2.7 1.9.3 1.4-1.4-.7-2.6-1.2-.6-2.2-.6-2.6-.1m1.5.6c0 .3-.2.5-.5.5s-.5-.2-.5-.5.2-.5.5-.5.5.2.5.5m-483.5.4c-.7 1.2 1.2 2.4 2.5 1.6 1.1-.7.4-2.5-1-2.5-.5 0-1.1.4-1.5.9m145.5-.4c0 .3.2.5.5.5s.5-.2.5-.5-.2-.5-.5-.5-.5.2-.5.5m20 0c0 .3.2.5.5.5s.5-.2.5-.5-.2-.5-.5-.5-.5.2-.5.5m897 0c0 .3.2.5.5.5s.5-.2.5-.5-.2-.5-.5-.5-.5.2-.5.5m-932 2c0 .3.2.5.5.5s.5-.2.5-.5-.2-.5-.5-.5-.5.2-.5.5m15.3 2c0 .8.4 1.2.9.9s.6-1 .3-1.5c-.9-1.3-1.2-1.1-1.2.6m3.7 1c0 .3.2.5.5.5s.5-.2.5-.5-.2-.5-.5-.5-.5.2-.5.5m-149 3.5c0 .7.3 1 .7.7.3-.4.3-1 0-1.4-.4-.3-.7 0-.7.7m99.5 1c-.3.5-.1 1 .4 1 .6 0 1.1-.5 1.1-1 0-.6-.2-1-.4-1-.3 0-.8.4-1.1 1m-51.5 3.5c0 .3.2.5.5.5s.5-.2.5-.5-.2-.5-.5-.5-.5.2-.5.5m1009.5 4.5c-.3.6.1.7.9.4 1.8-.7 2.1-1.4.7-1.4-.6 0-1.3.4-1.6 1m-1.5 3.5c0 .3.2.5.5.5s.5-.2.5-.5-.2-.5-.5-.5-.5.2-.5.5m-1062 2.5c0 .7.3 1 .7.7.3-.4.3-1 0-1.4-.4-.3-.7 0-.7.7m2-.5c0 .3.2.5.5.5s.5-.2.5-.5-.2-.5-.5-.5-.5.2-.5.5m6 0c0 .3.2.5.5.5s.5-.2.5-.5-.2-.5-.5-.5-.5.2-.5.5m-12.4 1.3c-.2.4-.1 1.4.4 2.2.7 1.1.9.9.7-.8-.1-2.4-.3-2.6-1.1-1.4m9.4-.3c0 .3.2.5.5.5s.5-.2.5-.5-.2-.5-.5-.5-.5.2-.5.5m1055.7.6c.7.9 1 1.9.6 2.2-.3.4-.1.7.5.7 1.7 0 1.5-1.6-.5-3.1-1.6-1.2-1.7-1.2-.6.2m-1050.7.4c0 .3.2.5.5.5s.5-.2.5-.5-.2-.5-.5-.5-.5.2-.5.5m-19.5 1.5c-.4.6.3 1 1.4 1 2.5 0 2.7-.6.6-1.3-.8-.4-1.7-.2-2 .3m15.4 1.4c1.1 2.7 2.7 3.1 3.4.7.3-1.4-.1-2-1.8-2.4-2-.3-2.2-.1-1.6 1.7m2.1.1c0 .3-.2.5-.5.5s-.5-.2-.5-.5.2-.5.5-.5.5.2.5.5m641-1.6c0 .5.7 1.1 1.4 1.4q1.5.6.9-.9c-.6-1.5-2.3-1.9-2.3-.5m3-.4c0 .3.2.5.5.5s.5-.2.5-.5-.2-.5-.5-.5-.5.2-.5.5m359.5 2.5c-.3 1.1-1 2-1.5 2s-.7.7-.3 1.7c.6 1.4.9 1.3 2.5-.7 1.9-2.4 2.4-5 .9-5-.5 0-1.3.9-1.6 2m-300.5-.5c0 .3.2.5.5.5s.5-.2.5-.5-.2-.5-.5-.5-.5.2-.5.5m-701 1c0 .3.2.5.5.5s.5-.2.5-.5-.2-.5-.5-.5-.5.2-.5.5m2 0c0 .3.2.5.5.5s.5-.2.5-.5-.2-.5-.5-.5-.5.2-.5.5m0 2c0 .3.2.5.5.5s.5-.2.5-.5-.2-.5-.5-.5-.5.2-.5.5m635 2.5c.4.8.8 1.8.9 2.2.1.5.2 1 .2 1.3.1.3.3.9.4 1.5.1.5.3 1.5.4 2.2.2 1.7 1.1.4 1.6-2.2.2-1.2.7-2.5.9-2.8 1.1-1-1.5-4.1-3.3-3.9-1.4.1-1.7.5-1.1 1.7m55-1c0 .7.3 1 .7.7.3-.4.3-1 0-1.4-.4-.3-.7 0-.7.7m-679 1c0 .5.5 1 1.1 1 .5 0 .7-.5.4-1-.3-.6-.8-1-1.1-1-.2 0-.4.4-.4 1m693-.5c0 .3.2.5.5.5s.5-.2.5-.5-.2-.5-.5-.5-.5.2-.5.5m-47 3c0 .3.2.5.5.5s.5-.2.5-.5-.2-.5-.5-.5-.5.2-.5.5m-644 1c0 .3.2.5.5.5s.5-.2.5-.5-.2-.5-.5-.5-.5.2-.5.5m656.4.7c-.4.7-.3.8.4.4 1.2-.7 1.6-1.6.8-1.6-.3 0-.8.5-1.2 1.2m-5.4.3c0 .3.2.5.5.5s.5-.2.5-.5-.2-.5-.5-.5-.5.2-.5.5m-657 1c0 .3.2.5.5.5s.5-.2.5-.5-.2-.5-.5-.5-.5.2-.5.5m634 0c0 .3.2.5.5.5s.5-.2.5-.5-.2-.5-.5-.5-.5.2-.5.5m32.8.7c.5.5 1.6.8 2.3.6.8-.3.3-.7-1-1.1-1.7-.4-2.1-.3-1.3.5m-41.8 2.3c0 .3.2.5.5.5s.5-.2.5-.5-.2-.5-.5-.5-.5.2-.5.5m34 0c0 .3.2.5.5.5s.5-.2.5-.5-.2-.5-.5-.5-.5.2-.5.5m368 2c0 .3.2.5.5.5s.5-.2.5-.5-.2-.5-.5-.5-.5.2-.5.5m-453 1c0 .3.2.5.5.5s.5-.2.5-.5-.2-.5-.5-.5-.5.2-.5.5m194.5.4c-.3.5-.1 1.2.5 1.6.5.3 1-.1 1-.9 0-1.8-.6-2.1-1.5-.7m-8.1 1.3c-.4.7-.3.8.4.4s1.2-.9 1.2-1.2c0-.8-.9-.4-1.6.8M3723 2439c0 1.9.3 2.1 1.2 1.2s.9-1.5 0-2.4-1.2-.7-1.2 1.2m67-.5c0 .3.2.5.5.5s.5-.2.5-.5-.2-.5-.5-.5-.5.2-.5.5m102 0c0 .3.2.5.5.5s.5-.2.5-.5-.2-.5-.5-.5-.5.2-.5.5m-2 1c0 .3.2.5.5.5s.5-.2.5-.5-.2-.5-.5-.5-.5.2-.5.5m-178 1c0 .3.2.5.5.5s.5-.2.5-.5-.2-.5-.5-.5-.5.2-.5.5m40 1c0 .3.2.5.5.5s.5-.2.5-.5-.2-.5-.5-.5-.5.2-.5.5m-44.5 1.5c-.3.5-.1 1 .4 1 .6 0 1.1-.5 1.1-1 0-.6-.2-1-.4-1-.3 0-.8.4-1.1 1m187.5-.5c0 .3.2.5.5.5s.5-.2.5-.5-.2-.5-.5-.5-.5.2-.5.5m-152.5 1.5c.3.5.8 1 1.1 1s.2-.5-.1-1c-.3-.6-.8-1-1.1-1s-.2.4.1 1m126.5-.5c0 .3.2.5.5.5s.5-.2.5-.5-.2-.5-.5-.5-.5.2-.5.5m25 3.1c-1.3 1.3-1.9 2.4-1.3 2.4.7 0 1.5-.5 1.8-1.1.4-.6 1.3-.8 2-.5q1.35.45 1.2-1.5c-.2-2.4-.6-2.3-3.7.7m-180.7-.9c.4.3 1 .3 1.4 0 .3-.4 0-.7-.7-.7s-1 .3-.7.7m172.7-.2c0 .3.2.5.5.5s.5-.2.5-.5-.2-.5-.5-.5-.5.2-.5.5m245.3 2.2c.4.3 1 .3 1.4 0 .3-.4 0-.7-.7-.7s-1 .3-.7.7m-391.3.8c0 .3.2.5.5.5s.5-.2.5-.5-.2-.5-.5-.5-.5.2-.5.5m125 0c0 .3.2.5.5.5s.5-.2.5-.5-.2-.5-.5-.5-.5.2-.5.5m-159 1c0 .3.2.5.5.5s.5-.2.5-.5-.2-.5-.5-.5-.5.2-.5.5m187 1c0 .3.2.5.5.5s.5-.2.5-.5-.2-.5-.5-.5-.5.2-.5.5m-185 1c0 .3.2.5.5.5s.5-.2.5-.5-.2-.5-.5-.5-.5.2-.5.5m-1 3.5c0 .7.3 1 .7.7.3-.4.3-1 0-1.4-.4-.3-.7 0-.7.7m-3 .5c0 .3.2.5.5.5s.5-.2.5-.5-.2-.5-.5-.5-.5.2-.5.5m-2 2c0 .3.2.5.5.5s.5-.2.5-.5-.2-.5-.5-.5-.5.2-.5.5m431.3 2.2c.4.3 1 .3 1.4 0 .3-.4 0-.7-.7-.7s-1 .3-.7.7m-140.3 35.8c0 .3.2.5.5.5s.5-.2.5-.5-.2-.5-.5-.5-.5.2-.5.5m17 0c0 .3.2.5.5.5s.5-.2.5-.5-.2-.5-.5-.5-.5.2-.5.5m-18.7 2.2c.4.3 1 .3 1.4 0 .3-.4 0-.7-.7-.7s-1 .3-.7.7m34.7.8c0 .3.2.5.5.5s.5-.2.5-.5-.2-.5-.5-.5-.5.2-.5.5m-126 2.5c0 .7.3 1 .7.7.3-.4.3-1 0-1.4-.4-.3-.7 0-.7.7m127-.5c0 .3.2.5.5.5s.5-.2.5-.5-.2-.5-.5-.5-.5.2-.5.5m6 1c0 .3.2.5.5.5s.5-.2.5-.5-.2-.5-.5-.5-.5.2-.5.5m11 2c0 .3.2.5.5.5s.5-.2.5-.5-.2-.5-.5-.5-.5.2-.5.5"/></svg>