<svg xmlns="http://www.w3.org/2000/svg" version="1.0" viewBox="0 0 7680 4320"><path d="M3175.3 1648.7c.4.3 1 .3 1.4 0 .3-.4 0-.7-.7-.7s-1 .3-.7.7m132.7 9.3c-.8.5-6.2 1-12 1-8.8 0-11 .3-13.5 2-3.9 2.6-10.4 2.6-18.6 0-3.5-1.1-7.5-1.8-8.9-1.5-2.3.5-16.5 2.3-47.5 6-7.1.8-18.3 2.5-24.9 3.6-13.2 2.4-21.5 2.2-34.9-.7-6.9-1.5-9.3-1.6-21-.5-19.3 1.7-27.7 2.9-29 4-2.9 2.3-30.3 6.2-43.3 6.1-5.5 0-14.3.4-19.5 1s-14.4 1.5-20.5 2-14.9 1.9-19.5 3-14.8 2.5-22.7 3-15.3 1.2-16.5 1.5-6.5.9-11.7 1.5c-17.4 1.7-39.4 4.8-49.8 6.9-5.7 1.2-11.2 2.1-12.3 2.1-1.9 0-1.9 5.6-1.9 391.7v391.8l7.1.2c5.9.2 7.6-.1 10.9-2.2 2.1-1.3 4.1-2.1 4.4-1.7.4.3 1 .2 1.4-.3 1.5-2.2 8.1-3.2 17.7-2.9 7.9.3 9.9.7 9.7 1.8-.1.7.7 1.6 1.8 1.9 1.5.4 2 0 2-1.3 0-1 .6-2.1 1.3-2.3.7-.4.3-.8-1-1.2s-2-1.2-1.7-1.7c.4-.6-.2-.7-1.6-.3-4.7 1.5-.8-1.4 4.6-3.4 6.5-2.5 16-2.7 21.9-.6 2.2.8 5.2 1.5 6.7 1.5s3 .4 3.3 1c.3.5 1.5 1 2.6 1 1 0 1.9.4 1.9.9 0 1.2 6.1 1.1 7.7-.1 1.4-1.2 3.3-.2 3.3 1.6 0 .8.9 1.6 1.9 1.9 1.3.3 1.8 0 1.5-.8-.3-.7-.1-1.6.5-2 .6-.3 1.1-.1 1.1.4 0 .6.7 1.1 1.5 1.1s1.5-.7 1.5-1.5c0-1-1-1.5-3.1-1.5-1.7 0-2.8-.4-2.4-1 .3-.5 2.6-.7 5.2-.3 4.1.5 4.6.4 4-1-.4-1-.2-1.7.3-1.7.6 0 1 .4 1 1 0 .5 1.8 1 4 1s4 .4 4 .8.8.8 1.9.8c1.2 0 1.7-.6 1.3-1.8-.5-2-.9-2.1-6.7-1.8-3 .1-3.7-.1-2.9-1 .7-.6 3.2-1.2 5.8-1.2 4.6 0 6-1 3-2.2-.9-.3-2-.4-2.5 0-.5.3-.9-.2-.9-1.2 0-1.2-.6-1.5-2.5-1.2-4.2.8-3.8-.9.5-2.6 5.2-2.1 13-2.2 13-.2 0 .8-.6 1.6-1.2 1.9-.8.2-.9.8-.4 1.3s1.1.4 1.3-.4c.3-.6 1.4-1.2 2.6-1.1 1.2 0 1.6.3 1 .6-.7.2-1.3 1.1-1.3 1.9 0 1.1 1.9 1.4 8.3 1.5 4.5.1 8.7 0 9.2-.1 1-.2 4.1-.6 8.3-.8 1.5-.2 2.2-.8 2.2-2.2 0-1.9.5-2.1 7.5-1.9 4.1.2 7.7 0 8-.3.8-.8 9.8 1.1 10.5 2.2.3.5 2.8 1.2 5.6 1.5 9.9.9 14.4 1.7 15 2.6.9 1.5 3.4 1 3.4-.6 0-1-1.4-1.7-4-2.1-3.9-.6-4-.7-2.4-2.5.9-1.1 2.3-1.9 3.1-1.9.7 0 1.3-.6 1.3-1.4 0-2 2.3-2.6 3.5-1 1.3 1.7 5.5.7 5.5-1.3 0-1.1-.7-1.4-2.7-.9l-2.8.6 2.5-1.4c1.4-.8 4.5-1.8 7-2.1 2.5-.4 5.7-1.5 7.2-2.6l2.7-1.9 2 2.6c2 2.6 2.1 2.6 2.1.5 0-2 .5-2.2 3.7-1.9 4.9.4 5.3-1.6.6-2.9l-3.8-1 3.3-.2c3.2-.1 8.8-4.1 5.7-4.1-.8 0-1.5.4-1.5 1 0 .5-1.2 1-2.7 1l-2.8-.1 2.5-1.3c2.5-1.3 13-2.9 13-2 0 .2-1 .9-2.2 1.4-2.1.8-1.9.9 1.1.9 1.9.1 3.1.4 2.7.8-.3.4-2.7.6-5.1.4-2.6-.1-4.5.2-4.5.9 0 1.7 8.8 1.2 11.7-.7l2.7-1.8-2.9-.7c-2.3-.6-2-.6 1-.3 2.2.3 5.7.5 7.7.5 3.1 0 3.6.3 3.2 1.7-.4 1.1-.3 1.4.3.7.8-1.1 7.5-3.4 11.8-4 5.7-.8 12.5-.6 17.1.6s5.6 1.1 11.4-.9c7.8-2.7 21.1-2.8 20.3-.1-.2.8.2.4 1-1 .9-1.4 1.8-2.3 2.1-2s1.3-.5 2.1-1.8c1.3-1.8 2.5-2.2 6.1-2 4.8.1 6.7-.8 4.4-2.2-1.7-1.1 1.2-1.4 13.3-1.1 4.9 0 8.8-.4 10.5-1.3 1.7-.8 3.5-1 4.7-.5 1.1.4 3.7.8 5.9.8 2.9.1 3.7-.2 3.3-1.3-.4-1-.1-1.3.7-1s1.7.1 2-.4c.3-.6 1.6-.8 2.9-.5 1.8.4 1.9.3.7-.7-1.2-.9-.6-1 2.8-.8 3.3.3 4.1 0 3.7-1-.7-2 5.1-7.1 11.4-10 3.9-1.8 7.2-2.5 12.1-2.6 6.7-.1 7.6.2 17.9 5.2 3.5 1.7 5.5 2.3 5.8 1.6.2-.6 1.4-3.1 2.6-5.5 1.7-3.4 2.8-4.5 5-4.7 3-.4 3.6-1.8 1-2.5-1-.2 1.1-.2 4.7.1s6.8.9 7.1 1.4c.7 1.1 14.2.8 14.9-.3.3-.5 6.9-1.1 14.5-1.5 10.5-.5 14.4-1.1 15.8-2.2 1.6-1.5 1.8-1.4 2.3.5.4 1.5 1.2 1.9 3 1.5 2.6-.5 3.2-1.7 1.2-2.5-.7-.3-.3-.6.9-.6 1.6-.1 2.1.3 1.7 1.4-.5 1.2.5 1.5 5.5 1.5 3.4 0 6.1-.4 6.1-1s-2.3-1-5.2-1c-2.8 0-4.8-.3-4.5-.6.4-.4 3.1-.7 6.2-.6 4.8 0 5.5-.3 5.5-1.9 0-1.7.8-1.9 6.9-1.9 6.3 0 6.9-.2 6.4-1.9-.5-2.1-2.9-3.5-4.4-2.5-.5.3-.9 0-.9-.5 0-.6 1.1-1.1 2.5-1.1 1.8 0 2.6.7 3.1 2.5.3 1.4 1 2.5 1.4 2.5 2 0 4-1.3 4-2.7s2.5-1.5 19.8-1c10.8.3 18.1.2 16.2-.2s-4.5-1.1-5.7-1.5c-1.4-.5-2.3-.3-2.3.3 0 1.2-2.2 1.1-3.1-.2-.4-.6-12.9-.9-25.4-.6-1.1 0-4.6-.3-7.7-.7-5.5-.6-5.8-.6-5.8 1.5 0 1.1-.5 2.1-1.1 2.1-.5 0-.8.4-.5.9.8 1.2-4.1 3.1-9.1 3.6-2.2.2-4.4.5-4.9.6s-2.2.1-3.8 0c-4.3-.2-2.5-1.2 2.3-1.3 2.3 0 4.1-.4 4.1-.8 0-.3 1.4-.7 3-.8 5.4-.3 6-.5 7.7-2.4 2.3-2.5 1.2-3.2-5.5-3.1l-5.7.1 4-1c2.2-.5 7.9-.8 12.7-.5 7.4.4 8.5.2 7.3-.9-.8-.8-3.4-1.5-5.9-1.6-2.4-.1-4.3-.5-4.1-.8s6.4-.5 13.7-.5h13.5l-1.1-3.3c-.6-2.1-.6-3.6 0-4 .5-.4.9-1.6.9-2.6s.9-2.4 2-3 2.2-1.4 2.6-1.8c.5-.8 9.9-2.8 13.1-2.8 1.2 0 1.6.4 1.2 1.1-.5.9.2 1 2.2.6 1.6-.3 2.3-.4 1.7-.1-.7.3-1.3 1.5-1.3 2.5 0 1.1.4 1.7 1 1.4.5-.3.7 0 .4.8s.1 1.7.9 2c.9.3 1.4-.1 1.3-1.1-.1-1.2 1-1.9 3.4-2.3 1.9-.4 3.1-.7 2.5-.8-.5-.1-.4-.5.4-1s2.1-.7 2.9-.4c1.2.5 1.2.7-.2 1.5-2.2 1.2-1.2 2.6 1.6 2.4 1.6-.1 2.2-.7 2-1.9-.2-.9.2-1.7.8-1.7.5 0 1 .5 1 1.1s.7.9 1.5.5q1.5-.45 1.5 1.2c.1 1.6.1 1.6 1.4 0 1-1.3 2.5-1.6 6.7-1.4 3 .1 6.1.6 6.9 1.1q1.35.75.6-.3c-.5-.8.5-1.2 3.4-1.2 3.7 0 4.1-.2 3.5-2-.7-2.3 1-2.8 1.9-.5.3.8 1.3 1.5 2.2 1.5 1 0 1.4-.5 1-1.5-.3-.8-.1-1.5.4-1.5s1 .8 1.2 1.7c.2 1.3 1.5 1.7 5.6 1.7 6 .1 6.5-1.6.8-2.5-2.1-.3-4.2-1.2-4.6-1.9s-2.2-1.3-3.9-1.4c-1.7 0-3.1-.2-3.1-.3 0-1.2 8.9-4.3 12.7-4.4l4.8-.1-5.8-1.4c-3.3-.8-6.3-1.2-6.7-.9-1.1.7-1.6-.2-2.5-4.4-.6-3-.5-3.3 1.1-2.7 1.1.5 5.3.7 9.4.7 4.9-.1 8.5.4 10.4 1.4 3.3 1.7 5.6 1.9 5.6.5 0-.6-.9-1-2-1-1 0-2.3-.7-2.8-1.6-.7-1.2-2.8-1.7-8.8-1.9-4.4-.1-10.7-.9-13.9-1.6-3.3-.7-6.3-1.3-6.7-1.3-.3-.1-1-.4-1.4-.9-.4-.4-1.7-.7-2.8-.8-2.1 0-2.1-.1-.1-.9 1.4-.7.9-.8-1.9-.3-2.1.3-4.1.1-4.5-.4-2.1-3.2-22.1-7-22.1-4.2 0 .5-2.2.9-5 .9q-4.95 0-5.1 1.2c0 .7-.5.3-1.1-1-1.1-2.2-2.8-3-2.8-1.2 0 .5-.7 1-1.5 1s-1.5-.7-1.5-1.5-.4-1.5-1-1.5c-.5 0-1 .7-1 1.5 0 2.2-3.3 1.8-4.8-.6-.8-1.2-1.9-1.8-2.8-1.5-.8.3-1.4.1-1.4-.3 0-.5.6-1.1 1.3-1.4 1.5-.6-2.1-3.6-4.4-3.7-.8 0-2.6-1.1-4-2.6-2-2.2-2.1-2.4-.4-1.8 1.5.6 1-.4-1.8-4.1-2.1-2.8-4.5-6.5-5.3-8.2-.8-1.8-2.7-3.9-4.3-4.8-1.6-.8-3.3-2.5-3.6-3.7-.4-1.3-2-3.7-3.6-5.3-1.5-1.7-3.5-4.7-4.3-6.7-2.1-5-5.5-26.7-5.5-34.8 0-3.9-1-10.3-2.6-16-1.4-5.2-3-13.3-3.6-18s-1.9-10.3-3-12.6c-2.3-5-5-18.2-4.9-24.4.2-11.6-1.2-36.3-2.6-44-.8-4.7-1.9-13-2.4-18.5-.6-5.5-1.7-13.2-2.5-17-5.4-26.1-8.3-52-6.2-57.4.9-2.4.8-4.4-.6-9.8-1.2-5.1-1.8-13.7-2.2-33.8-.6-26-1-30.7-4.1-44.1-.8-3.3-1.4-11.2-1.4-17.5s-.5-16.8-1-23.4-1-20.3-1-30.5c-.2-32.7-2.6-68.4-5.1-77q-5.85-20.4-9.6-29.4c-2-4.9-2.4-7-1.9-12 .3-3.4.8-13.1 1.2-21.6.6-14.8.5-16.1-2.1-26-1.5-5.8-3-12.2-3.5-14.2-.4-2.1-2.3-6.1-4.3-9s-3.9-7.1-4.3-9.3c-1.1-6.6-4.3-13.8-7.7-17.3-5.4-5.6-15.8-12.3-21.4-13.8-6.4-1.6-6.4-1.6-8.3-.4m162 679.5c0 .3-.2.5-.5.5s-.5-.2-.5-.5.2-.5.5-.5.5.2.5.5m10.9 2.4c1 .6-.1.8-3 .4-2.4-.3-4.6-.7-4.8-.9-1-.9 6.5-.3 7.8.5m10.6 1.1c.3.5-.1 1-1 1s-1.3-.5-1-1c.3-.6.8-1 1-1s.7.4 1 1m-5.5.5c0 .3-.2.5-.5.5s-.5-.2-.5-.5.2-.5.5-.5.5.2.5.5m-3.3 2.2c-.4.3-.7 0-.7-.7s.3-1 .7-.7c.3.4.3 1 0 1.4m13.3-.7c1.3.8 1.3 1-.2 1-.9 0-2-.5-2.3-1-.8-1.3.5-1.3 2.5 0m-17 6.5c0 .3-.2.5-.5.5s-.5-.2-.5-.5.2-.5.5-.5.5.2.5.5m-15.3 11.2c-.4.3-1 .3-1.4 0-.3-.4 0-.7.7-.7s1 .3.7.7m6.3 2.8c0 .3-.2.5-.5.5s-.5-.2-.5-.5.2-.5.5-.5.5.2.5.5m-50 19c0 .3-.2.5-.5.5s-.5-.2-.5-.5.2-.5.5-.5.5.2.5.5m-20.7 10.2c-.7.2-1.9.2-2.5 0-.7-.3-.2-.5 1.2-.5s1.9.2 1.3.5m2.7-.2c0 .3-.2.5-.5.5s-.5-.2-.5-.5.2-.5.5-.5.5.2.5.5m-170.3 9.1c-.3.3-1.2.4-1.9.1-.8-.3-.5-.6.6-.6 1.1-.1 1.7.2 1.3.5m37.3 19.9c0 .3-.2.5-.5.5s-.5-.2-.5-.5.2-.5.5-.5.5.2.5.5m-3.5 1.5c-.3.5-1.2 1-2 1s-1.7-.5-2-1c-.4-.6.5-1 2-1s2.4.4 2 1m-145.5 20.5c0 .3-.2.5-.5.5s-.5-.2-.5-.5.2-.5.5-.5.5.2.5.5m-102 14c0 .3-.2.5-.5.5s-.5-.2-.5-.5.2-.5.5-.5.5.2.5.5m3 0c0 .3-.2.5-.5.5s-.5-.2-.5-.5.2-.5.5-.5.5.2.5.5m-23.5 6.3c-.8.8-2.5-1-1.9-2q.6-.9 1.5.3c.4.7.6 1.5.4 1.7m-1.5 2.2c0 1.4-3.3 2.1-4.1.8-1.2-1.9 1-4.1 2.7-2.7.8.6 1.4 1.5 1.4 1.9"/><path d="M3399 1964c0 .5.5 1 1 1 .6 0 1-.5 1-1 0-.6-.4-1-1-1-.5 0-1 .4-1 1m10 92.5c0 .3.2.5.5.5s.5-.2.5-.5-.2-.5-.5-.5-.5.2-.5.5m-4 1c0 .3.2.5.5.5s.5-.2.5-.5-.2-.5-.5-.5-.5.2-.5.5m10 103.5c0 .5.5 1 1.1 1 .5 0 .7-.5.4-1-.3-.6-.8-1-1.1-1-.2 0-.4.4-.4 1m50 157c0 .5.5 1 1 1 .6 0 1-.5 1-1 0-.6-.4-1-1-1-.5 0-1 .4-1 1m-10.3 11.7c-1.5 1.5-.5 2.3 2.8 2.3 2.6 0 3.5.4 3.6 1.7 0 1.5.2 1.5.8-.2.9-2.1-1.1-4.1-2.8-3-.5.3-1.2.1-1.6-.5-.7-1.2-1.9-1.3-2.8-.3m64.3 12.8c0 .3.2.5.5.5s.5-.2.5-.5-.2-.5-.5-.5-.5.2-.5.5m15.5.5c-.3.5.1 1 1 1s1.3-.5 1-1c-.3-.6-.8-1-1-1s-.7.4-1 1m3.8.7c.4.3 1 .3 1.4 0 .3-.4 0-.7-.7-.7s-1 .3-.7.7m7.7 7.8c0 .3.2.5.5.5s.5-.2.5-.5-.2-.5-.5-.5-.5.2-.5.5m-9 8c0 1.1 1 1.5 3.3 1.4s2.6-.3 1-.6c-1.3-.2-2.3-.9-2.3-1.4s-.4-.9-1-.9c-.5 0-1 .7-1 1.5m-4 3.5c0 .5.5 1 1 1 .6 0 1-.5 1-1 0-.6-.4-1-1-1-.5 0-1 .4-1 1m7 0c0 .7.3 1 .7.7.3-.4.3-1 0-1.4-.4-.3-.7 0-.7.7m-78 6.5c0 .3.2.5.5.5s.5-.2.5-.5-.2-.5-.5-.5-.5.2-.5.5m3 0c0 .3.2.5.5.5s.5-.2.5-.5-.2-.5-.5-.5-.5.2-.5.5m49.8.2c-1 .2-1.8 1.1-1.8 2 0 1 .6 1.3 1.6.9.9-.3 2.2-.6 3-.6s1.4-.7 1.4-1.5c0-1.5-.9-1.7-4.2-.8m16.7.4c-1.1 1.6-.1 1.9 1.3.3.7-.8.8-1.4.3-1.4s-1.3.5-1.6 1.1m-55.5.9c0 .5.5 1 1 1 .6 0 1-.5 1-1 0-.6-.4-1-1-1-.5 0-1 .4-1 1m3 0c0 .5.5 1 1 1 .6 0 1-.5 1-1 0-.6-.4-1-1-1-.5 0-1 .4-1 1m15 0c0 .5.7 1 1.5 1s1.5-.5 1.5-1c0-.6-.7-1-1.5-1s-1.5.4-1.5 1m16 0c0 .5.5 1 1 1 .6 0 1-.5 1-1 0-.6-.4-1-1-1-.5 0-1 .4-1 1m16 0c0 .5.9 1 2 1s2-.5 2-1c0-.6-.9-1-2-1s-2 .4-2 1m-41.7 1.7c.4.3 1 .3 1.4 0 .3-.4 0-.7-.7-.7s-1 .3-.7.7m14.7-.2c0 .3.2.5.5.5s.5-.2.5-.5-.2-.5-.5-.5-.5.2-.5.5m-47 1c0 .3.2.5.5.5s.5-.2.5-.5-.2-.5-.5-.5-.5.2-.5.5m32 3.6c-1.4 2.5-.3 4.1 1.1 1.6.6-.9 1.8-1.7 2.7-1.7 1.5 0 1.5-.2.2-1-2.2-1.4-2.8-1.2-4 1.1m33.5-1.1c-.3.5-.1 1 .4 1 .6 0 1.1-.5 1.1-1 0-.6-.2-1-.4-1-.3 0-.8.4-1.1 1m-25.2.7c.4.3 1 .3 1.4 0 .3-.4 0-.7-.7-.7s-1 .3-.7.7m21.7-.2c0 .3.2.5.5.5s.5-.2.5-.5-.2-.5-.5-.5-.5.2-.5.5m-35.7 1.2c.4.3 1 .3 1.4 0 .3-.4 0-.7-.7-.7s-1 .3-.7.7m-28.3 1.3c0 .5.7 1 1.5 1s1.5-.5 1.5-1c0-.6-.7-1-1.5-1s-1.5.4-1.5 1m46 0c0 .5.7 1 1.5 1s1.5-.5 1.5-1c0-.6-.7-1-1.5-1s-1.5.4-1.5 1m-29 .9c0 .5-1.2 1.2-2.7 1.4-2.3.3-2.1.4 1 .6 2.7.1 3.7-.3 3.7-1.4 0-.8-.4-1.5-1-1.5-.5 0-1 .4-1 .9m24 .1c0 .5.7 1 1.5 1s1.5-.5 1.5-1c0-.6-.7-1-1.5-1s-1.5.4-1.5 1m28 0c0 1.2.8 1.2 3.5 0 1.8-.8 1.7-.9-.7-.9-1.6-.1-2.8.3-2.8.9m-19 1c0 .5.5 1 1 1 .6 0 1-.5 1-1 0-.6-.4-1-1-1-.5 0-1 .4-1 1m-45.7.7c.4.3 1 .3 1.4 0 .3-.4 0-.7-.7-.7s-1 .3-.7.7m4.5 0c.7.3 1.6.2 1.9-.1.4-.3-.2-.6-1.3-.5-1.1 0-1.4.3-.6.6m12 0c.7.3 1.6.2 1.9-.1.4-.3-.2-.6-1.3-.5-1.1 0-1.4.3-.6.6m7.5 0c.4.3 1 .3 1.4 0 .3-.4 0-.7-.7-.7s-1 .3-.7.7m10 0c.4.3 1 .3 1.4 0 .3-.4 0-.7-.7-.7s-1 .3-.7.7"/><path d="M3504 2382c1 .8-.7.9-5.7.4-4.8-.4-7.3-.3-7.3.4 0 1.6 26 3.5 27.5 2s-.5-3.8-3.2-3.8c-2.7.1-2.7.1-.9 1.5 1.1.8 1.6 1.8 1.3 2.2-.4.4-1.4-.3-2.3-1.5-1.2-1.7-2.5-2.2-6.2-2.2-3.5 0-4.3.3-3.2 1m-68 1.2c0 .4.6.8 1.4.8s1.6.4 1.8.9c.4 1.2 13.1-.1 13.5-1.4.2-.6-3-1-8.2-1.1-4.7 0-8.5.3-8.5.8m47-.2c0 .5.7 1 1.5 1s1.5-.5 1.5-1c0-.6-.7-1-1.5-1s-1.5.4-1.5 1m62.8-.3c-2.2.5-2.2 1-.3 2.9 1.6 1.7 3.5 1.1 3.5-1.1 0-1.7-1-2.3-3.2-1.8m-83.8 1.7c0 .9.5 1.6 1 1.6.6 0 1-.4 1-.9 0-.6-.4-1.3-1-1.6-.5-.3-1 .1-1 .9m6-.4c0 .5 1.1 1 2.5 1s2.5-.5 2.5-1c0-.6-1.1-1-2.5-1s-2.5.4-2.5 1"/><path d="M3475.4 2384.5c.4 1.2-.3 1.5-3 1.5-2.1 0-3.3.4-2.9 1 .3.5 1.6 1 2.9 1 1.2 0 2.7.5 3.2 1 1.5 1.5 12.2 1.6 13.6.2 1.7-1.7 0-2.8-2.2-1.4-1.6 1-1.8.9-1.3-.4.4-1.2 1.5-1.5 3.9-1.1 1.9.3 3.6.1 4-.4.3-.6-1.6-.9-4.9-.8-3 .1-5.9-.1-6.6-.5s-1.8-.2-2.6.4c-1.2 1-1.6.9-2.1-.4-.3-.9-1.1-1.6-1.6-1.6-.6 0-.8.7-.4 1.5m7.6 1.9c0 .2-.9.6-2 .9s-1.8.1-1.4-.4c.5-.9 3.4-1.3 3.4-.5m-5 1.1c0 .3-.2.5-.5.5s-.5-.2-.5-.5.2-.5.5-.5.5.2.5.5m-43.7-1.8c.4.3 1 .3 1.4 0 .3-.4 0-.7-.7-.7s-1 .3-.7.7m2.7-.2c0 .3.2.5.5.5s.5-.2.5-.5-.2-.5-.5-.5-.5.2-.5.5m16.8.2c.6.2 1.8.2 2.5 0 .6-.3.1-.5-1.3-.5s-1.9.2-1.2.5m5.5 0c.4.3 1 .3 1.4 0 .3-.4 0-.7-.7-.7s-1 .3-.7.7m46.7 1.3c0 .7.3 1 .7.7.3-.4.3-1 0-1.4-.4-.3-.7 0-.7.7m9.3-.3c-2.7.5-3.1 2.3-.5 2.3 2.8 0 6.2-1.2 6.2-2.1s-1.7-1-5.7-.2m-4.3 1.3c0 .7.3 1 .7.7.3-.4.3-1 0-1.4-.4-.3-.7 0-.7.7m-19.2 1.7c.7.3 1.6.2 1.9-.1.4-.3-.2-.6-1.3-.5-1.1 0-1.4.3-.6.6m33.5 0c.4.3 1 .3 1.4 0 .3-.4 0-.7-.7-.7s-1 .3-.7.7m-80.3 1.1c0 .4 1.8.9 4 1 2.3.2 4-.2 4-.8 0-.5-1.8-1-4-1s-4 .4-4 .8m-8 1.2c0 .5.9 1 2 1s2-.5 2-1c0-.6-.9-1-2-1s-2 .4-2 1m86 0c0 .5 1.1 1 2.5 1s2.5-.5 2.5-1c0-.6-1.1-1-2.5-1s-2.5.4-2.5 1m6 0c0 .5.5 1 1 1 .6 0 1-.5 1-1 0-.6-.4-1-1-1-.5 0-1 .4-1 1m-97.2 1.8c-3.2.6-1.9 2 2.5 2.7 2.3.3 5.7.9 7.5 1.2 2.7.4 3.1.3 2.6-1.1-.3-.9-1.1-1.6-1.8-1.6-.6-.1-2.9-.4-5.1-.8s-4.8-.6-5.7-.4m17.7.2 4 .7-4.2.2c-2.4 0-4.3.6-4.3 1.1 0 .6 3 .9 7.5.8 4.1-.2 7.5-.5 7.5-.7 0-1.6-4.3-3-9-2.9-5.4.1-5.4.1-1.5.8m9.6-.2c.8.3 1.9 1.2 2.5 2 1.4 1.9 8.6 1.1 10.8-1.1 1.3-1.2.4-1.4-6.7-1.4-4.4.1-7.4.3-6.6.5m9.2.9c-.7.2-2.1.2-3 0-1-.3-.4-.5 1.2-.5 1.7 0 2.4.2 1.8.5m16-1c.4.3 1 .3 1.4 0 .3-.4 0-.7-.7-.7s-1 .3-.7.7m16 0c.4.3 1 .3 1.4 0 .3-.4 0-.7-.7-.7s-1 .3-.7.7m18.7-.2c0 .3.2.5.5.5s.5-.2.5-.5-.2-.5-.5-.5-.5.2-.5.5m-41 1c0 .3.2.5.5.5s.5-.2.5-.5-.2-.5-.5-.5-.5.2-.5.5m3 0c0 .3.2.5.5.5s.5-.2.5-.5-.2-.5-.5-.5-.5.2-.5.5m14.5.5c.3.5 1 1 1.6 1 .5 0 .9-.5.9-1 0-.6-.7-1-1.6-1-.8 0-1.2.4-.9 1m29.8-.3c.4.3 1 .3 1.4 0 .3-.4 0-.7-.7-.7s-1 .3-.7.7M3425 2396c0 .7.3 1 .7.7.3-.4.3-1 0-1.4-.4-.3-.7 0-.7.7m48 0c0 .7.3 1 .7.7.3-.4.3-1 0-1.4-.4-.3-.7 0-.7.7m44 0c0 .5.5 1 1 1 .6 0 1-.5 1-1 0-.6-.4-1-1-1-.5 0-1 .4-1 1m-97 2c.8.5 2.2.9 3 .9 1 0 .8-.3-.5-.9-2.7-1.2-4.3-1.2-2.5 0m83-.5c0 .3.2.5.5.5s.5-.2.5-.5-.2-.5-.5-.5-.5.2-.5.5m7 0c0 .3.2.5.5.5s.5-.2.5-.5-.2-.5-.5-.5-.5.2-.5.5m-79.7 1.2c.4.3 1 .3 1.4 0 .3-.4 0-.7-.7-.7s-1 .3-.7.7m62 0c.9.2 2.5.2 3.5 0 .9-.3.1-.5-1.8-.5s-2.7.2-1.7.5m13.7-.2c0 .3.2.5.5.5s.5-.2.5-.5-.2-.5-.5-.5-.5.2-.5.5m-65 1.3c0 1.2 4.7 1.8 16 2.1 8.6.2 10.5-.8 2.8-1.6-13.4-1.3-18.8-1.5-18.8-.5m26 .2c0 .5.5 1 1 1 .6 0 1-.5 1-1 0-.6-.4-1-1-1-.5 0-1 .4-1 1m14 1-3.5.7 4.3.2c2.3 0 4.2-.4 4.2-.9 0-.6-.3-.9-.7-.9-.5.1-2.4.5-4.3.9m-7 .5c0 .3.2.5.5.5s.5-.2.5-.5-.2-.5-.5-.5-.5.2-.5.5m17.8.2c.6.2 1.8.2 2.5 0 .6-.3.1-.5-1.3-.5s-1.9.2-1.2.5m-116.1 1c-1 .9-.9 2.3.2 2.3.5 0 1.1-.7 1.5-1.5.5-1.5-.5-2-1.7-.8m10.3.1c0 1.1 2.2 3.2 3.3 3.2.5 0 .4-.6-.2-1.4-.9-1.1-.9-1.5.1-1.9.7-.3.3-.6-.9-.6-1.3-.1-2.3.3-2.3.7m5.5.3c-1.2 1.9.5 2.3 2.2.6 1.6-1.6 1.6-1.7.1-1.7-.9 0-2 .5-2.3 1.1m12.3-.4c1.2.2 2.2.9 2.2 1.4s1.8.9 4 .9 4-.5 4-1c0-.6-1.2-1-2.7-1-1.6 0-4.4-.2-6.3-.4s-2.5-.1-1.2.1m11.2-.2c0 .3.2.5.5.5s.5-.2.5-.5-.2-.5-.5-.5-.5.2-.5.5m51 0c0 .3.2.5.5.5s.5-.2.5-.5-.2-.5-.5-.5-.5.2-.5.5m33 .6c0 .5.5.7 1 .4.6-.3 1-.8 1-1.1 0-.2-.4-.4-1-.4-.5 0-1 .5-1 1.1m7.3-.4c.9.2 2.5.2 3.5 0 .9-.3.1-.5-1.8-.5s-2.7.2-1.7.5m7.5 0c.7.3 1.6.2 1.9-.1.4-.3-.2-.6-1.3-.5-1.1 0-1.4.3-.6.6M3397 2404c0 .5.7 1 1.5 1s1.5-.5 1.5-1c0-.6-.7-1-1.5-1s-1.5.4-1.5 1m50 0c0 .5.6 1 1.4 1s2.2.3 3 .6c1.2.5 1.5.2 1-1-.7-1.7-5.4-2.3-5.4-.6m-65.5 1c-1.9.8-1.9.9.3.9 1.2.1 2.2-.4 2.2-.9 0-.6-.1-1-.2-.9-.2 0-1.2.4-2.3.9m130.5 0c0 .6-3.2 1-7.7 1-4.2 0-7.3.3-7 .7.8.7 10.8.6 15-.3 2.8-.6 3.8-2.4 1.2-2.4-.8 0-1.5.4-1.5 1m-43 .5c0 .3.2.5.5.5s.5-.2.5-.5-.2-.5-.5-.5-.5.2-.5.5m5 0c0 .3.2.5.5.5s.5-.2.5-.5-.2-.5-.5-.5-.5.2-.5.5m-74.2 1.2c.7.3 1.6.2 1.9-.1.4-.3-.2-.6-1.3-.5-1.1 0-1.4.3-.6.6m6.5 0c.4.3 1 .3 1.4 0 .3-.4 0-.7-.7-.7s-1 .3-.7.7m35.5 0c.7.3 1.6.2 1.9-.1.4-.3-.2-.6-1.3-.5-1.1 0-1.4.3-.6.6m14 0c1.2.2 3 .2 4 0 .9-.3-.1-.5-2.3-.4-2.2 0-3 .2-1.7.4m15.5 0c.4.3 1 .3 1.4 0 .3-.4 0-.7-.7-.7s-1 .3-.7.7m9 0c.4.3 1 .3 1.4 0 .3-.4 0-.7-.7-.7s-1 .3-.7.7m-66.3 1.3c0 .5.5 1 1 1 .6 0 1-.5 1-1 0-.6-.4-1-1-1-.5 0-1 .4-1 1m-15 1.5c0 .3.2.5.5.5s.5-.2.5-.5-.2-.5-.5-.5-.5.2-.5.5m6.8.2c.7.3 1.6.2 1.9-.1.4-.3-.2-.6-1.3-.5-1.1 0-1.4.3-.6.6m63.5 0c.9.2 2.3.2 3 0 .6-.3-.1-.5-1.8-.5-1.6 0-2.2.2-1.2.5m26 0c.4.3 1 .3 1.4 0 .3-.4 0-.7-.7-.7s-1 .3-.7.7M3294 2411c0 .5.5 1 1 1 .6 0 1-.5 1-1 0-.6-.4-1-1-1-.5 0-1 .4-1 1m192-.5c0 .3.2.5.5.5s.5-.2.5-.5-.2-.5-.5-.5-.5.2-.5.5m13 3c-1.2 1.9-3.3 4.4-4.7 5.5s-2 2-1.4 2c.7 0 2.2-1.1 3.5-2.4 1.2-1.4 5.1-3.8 8.7-5.5l6.4-3-5.2-.1c-4.8 0-5.3.2-7.3 3.5m-169-1.5c0 .5.9 1 2 1s2-.5 2-1c0-.6-.9-1-2-1s-2 .4-2 1m5 0c0 .5.5 1 1 1 .6 0 1-.5 1-1 0-.6-.4-1-1-1-.5 0-1 .4-1 1m63 0c0 .5.5 1 1 1 .6 0 1-.5 1-1 0-.6-.4-1-1-1-.5 0-1 .4-1 1m7 0c0 .5.5 1 1 1 .6 0 1-.5 1-1 0-.6-.4-1-1-1-.5 0-1 .4-1 1m23 0c0 .7.3 1 .7.7.3-.4.3-1 0-1.4-.4-.3-.7 0-.7.7m42 0c0 .5.5 1 1 1 .6 0 1-.5 1-1 0-.6-.4-1-1-1-.5 0-1 .4-1 1m5.3 1.7c.4.3 1 .3 1.4 0 .3-.4 0-.7-.7-.7s-1 .3-.7.7m-36 1c.4.3 1 .3 1.4 0 .3-.4 0-.7-.7-.7s-1 .3-.7.7m17.7-.2c0 .3.2.5.5.5s.5-.2.5-.5-.2-.5-.5-.5-.5.2-.5.5m5.8.2c.7.3 1.6.2 1.9-.1.4-.3-.2-.6-1.3-.5-1.1 0-1.4.3-.6.6M3352 2416c0 .5.7 1 1.5 1s1.5-.5 1.5-1c0-.6-.7-1-1.5-1s-1.5.4-1.5 1m6.8-.3c-3.1.5-3.9 2.3-1 2.3 2.8 0 6.2-1.2 6.2-2.1s-.4-.9-5.2-.2m121.2.3c0 1.1 4.8 2.5 5.7 1.6.9-.8.3-1.2-2.9-2-1.7-.4-2.8-.2-2.8.4m10.3-.3c-2.8.5-3 2.3-.4 2.3s5.1-1 5.1-2.1c0-.9-.8-1-4.7-.2m-84.3 1.3c0 .5.5 1 1 1 .6 0 1-.5 1-1 0-.6-.4-1-1-1-.5 0-1 .4-1 1m35 0c0 .5.5 1 1 1 .6 0 1-.5 1-1 0-.6-.4-1-1-1-.5 0-1 .4-1 1m25 0c0 .5.7 1 1.5 1s1.5-.5 1.5-1c0-.6-.7-1-1.5-1s-1.5.4-1.5 1m-66 .5c0 .3.2.5.5.5s.5-.2.5-.5-.2-.5-.5-.5-.5.2-.5.5m-70.2 1.2c.6.2 1.8.2 2.5 0 .6-.3.1-.5-1.3-.5s-1.9.2-1.2.5m20.7.3c.3.5 1 1 1.6 1 .5 0 .9-.5.9-1 0-.6-.7-1-1.6-1-.8 0-1.2.4-.9 1m59.8-.3c.4.3 1 .3 1.4 0 .3-.4 0-.7-.7-.7s-1 .3-.7.7m-40.3 1.3c0 .7.3 1 .7.7.3-.4.3-1 0-1.4-.4-.3-.7 0-.7.7m89 0c0 .5.5 1 1 1 .6 0 1-.5 1-1 0-.6-.4-1-1-1-.5 0-1 .4-1 1m6 0c0 .5.7 1 1.5 1s1.5-.5 1.5-1c0-.6-.7-1-1.5-1s-1.5.4-1.5 1m13 0c0 .7.3 1 .7.7.3-.4.3-1 0-1.4-.4-.3-.7 0-.7.7m-114 1c0 .5.7 1 1.5 1s1.5-.5 1.5-1c0-.6-.7-1-1.5-1s-1.5.4-1.5 1m5.8 1.7c.7.3 1.6.2 1.9-.1.4-.3-.2-.6-1.3-.5-1.1 0-1.4.3-.6.6m7.5 0c.4.3 1 .3 1.4 0 .3-.4 0-.7-.7-.7s-1 .3-.7.7m8 1c.4.3 1 .3 1.4 0 .3-.4 0-.7-.7-.7s-1 .3-.7.7m2.7.3c0 .5.5 1 1 1 .6 0 1-.5 1-1 0-.6-.4-1-1-1-.5 0-1 .4-1 1m-111 3c-1.3.9-1.3 1 0 1 .8 0 2.2-.5 3-1 1.3-.9 1.3-1 0-1-.8 0-2.2.5-3 1m-41.2.8c-4.7.4-5 2.2-.4 2.2 1.8 0 6.2.2 9.7.5 5.4.4 5.9.3 3.4-.6-1.6-.6-3.7-1.3-4.5-1.7-1.9-.7-3.5-.8-8.2-.4m74.2.1c0 1.2 3.3 2 6.4 1.4 4.2-.8 3-2.3-1.9-2.3-2.5 0-4.5.4-4.5.9m31-.4c0 .3.2.5.5.5s.5-.2.5-.5-.2-.5-.5-.5-.5.2-.5.5m112 0c0 .3.2.5.5.5s.5-.2.5-.5-.2-.5-.5-.5-.5.2-.5.5m-200.2 3.2c.7.3 1.6.2 1.9-.1.4-.3-.2-.6-1.3-.5-1.1 0-1.4.3-.6.6m-23.3 1.3c.4.6 1.1.8 1.6.5 1.4-.9 1.1-1.5-.7-1.5-.8 0-1.2.5-.9 1m6.5 0c0 1.2 1.7 1.2 4.5 0 1.7-.7 1.5-.9-1.2-.9-1.8-.1-3.3.3-3.3.9m152 .8c-.5 1-1 1.2-1 .5 0-.8-3-1.1-10-1-6.7 0-9.9.4-9.7 1.1.4 1.3 29.6 1.6 30.4.3.7-1.2.3-1.4-4.5-2-3.3-.4-4.4-.1-5.2 1.1m-166 .2c0 .5.7 1 1.5 1s1.5-.5 1.5-1c0-.6-.7-1-1.5-1s-1.5.4-1.5 1m22 0c0 .5.5 1 1 1 .6 0 1-.5 1-1 0-.6-.4-1-1-1-.5 0-1 .4-1 1m202 0c0 .5.5 1 1 1 .6 0 1-.5 1-1 0-.6-.4-1-1-1-.5 0-1 .4-1 1m11-.1c0 .9 7.1 2.3 7.9 1.6.2-.3-.3-.5-1.2-.5s-1.7-.5-1.7-1c0-.6-1.1-1-2.5-1s-2.5.4-2.5.9m-229.2 1.8c.7.3 1.6.2 1.9-.1.4-.3-.2-.6-1.3-.5-1.1 0-1.4.3-.6.6m9 0c.6.2 1.8.2 2.5 0 .6-.3.1-.5-1.3-.5s-1.9.2-1.2.5m14.5 0c.4.3 1 .3 1.4 0 .3-.4 0-.7-.7-.7s-1 .3-.7.7m192.7-.2c0 .3.2.5.5.5s.5-.2.5-.5-.2-.5-.5-.5-.5.2-.5.5m6.3.2c.4.3 1 .3 1.4 0 .3-.4 0-.7-.7-.7s-1 .3-.7.7m-218.5 1c.7.3 1.6.2 1.9-.1.4-.3-.2-.6-1.3-.5-1.1 0-1.4.3-.6.6m168.2-.2c0 .3.2.5.5.5s.5-.2.5-.5-.2-.5-.5-.5-.5.2-.5.5m-194 1.5c0 .5.7 1 1.5 1s1.5-.5 1.5-1c0-.6-.7-1-1.5-1s-1.5.4-1.5 1m190 0c0 .5.7 1 1.5 1s1.5-.5 1.5-1c0-.6-.7-1-1.5-1s-1.5.4-1.5 1m6 0c0 .5.5 1 1 1 .6 0 1-.5 1-1 0-.6-.4-1-1-1-.5 0-1 .4-1 1m41.3 1.7c.4.3 1 .3 1.4 0 .3-.4 0-.7-.7-.7s-1 .3-.7.7m6.5 0c.7.3 1.6.2 1.9-.1.4-.3-.2-.6-1.3-.5-1.1 0-1.4.3-.6.6M3170 2440c0 .5.4 1 .9 1 .6 0 1.3-.5 1.6-1 .3-.6-.1-1-.9-1-.9 0-1.6.4-1.6 1m-13 1c0 .5.9 1 2 1s2-.5 2-1c0-.6-.9-1-2-1s-2 .4-2 1m169.8 2.4c-4 1-5.1 2.6-1.9 2.6s8.1-1.2 8.1-2c0-1.4-2.4-1.6-6.2-.6M3136 2445c0 .5.7 1 1.5 1s1.5-.5 1.5-1c0-.6-.7-1-1.5-1s-1.5.4-1.5 1m17 1c0 .5.7 1 1.5 1s1.5-.5 1.5-1c0-.6-.7-1-1.5-1s-1.5.4-1.5 1m34 0c0 .5.9 1 2.1 1 1.1 0 1.7-.5 1.4-1-.3-.6-1.3-1-2.1-1s-1.4.4-1.4 1m-59.4 2.7c-1 2.4-.8 2.5 4.2 1.8 3.4-.5 4.3-.4 3.2.4-2.5 1.8-7.8 1.3-9-.8-.6-1.3-1.7-1.7-3-1.4-2.5.7-2.6 2.3-.1 2.3 1.4 0 1.8.5 1.4 2.1-.5 1.9-.3 2 4.3 1.4 2.7-.3 7.4-1.1 10.4-1.7 5.1-1.1 5.3-1.2 2.5-1.9-1.6-.3-2.4-.7-1.7-.8.8 0 1.2-.6 1-1.3-.7-1.9-12.5-2-13.2-.1m18.2-1c.6.2 1.8.2 2.5 0 .6-.3.1-.5-1.3-.5s-1.9.2-1.2.5m13.8 1.1c-.9.2-1.6.7-1.6 1.2s-.8 1.1-1.7 1.4c-1 .3 1.1.3 4.6.1 3.5-.3 7.7-.5 9.2-.5 1.6 0 2.9-.4 2.9-.9 0-.9-10.3-1.9-13.4-1.3m128.4.2c0 .5.7 1 1.5 1s1.5-.5 1.5-1c0-.6-.7-1-1.5-1s-1.5.4-1.5 1m44 0c0 .5.5 1 1 1 .6 0 1-.5 1-1 0-.6-.4-1-1-1-.5 0-1 .4-1 1m-186 1.2c0 .4 1.6.8 3.5.8s3.5-.4 3.5-1c0-.5-1.6-.9-3.5-.8s-3.5.5-3.5 1m259-.2c0 .5.5 1 1 1 .6 0 1-.5 1-1 0-.6-.4-1-1-1-.5 0-1 .4-1 1m-260 3c0 .5.7 1 1.5 1s1.5-.5 1.5-1c0-.6-.7-1-1.5-1s-1.5.4-1.5 1m132 0c0 .5.7 1 1.5 1s1.5-.5 1.5-1c0-.6-.7-1-1.5-1s-1.5.4-1.5 1m5 0c0 .5.5 1 1 1 .6 0 1-.5 1-1 0-.6-.4-1-1-1-.5 0-1 .4-1 1m3 0c0 .5.5 1 1 1 .6 0 1-.5 1-1 0-.6-.4-1-1-1-.5 0-1 .4-1 1m101-.3c0 1 13 2.7 13.9 1.8 1-1-.8-1.6-7.3-2.2-4.1-.4-6.6-.2-6.6.4m-244 1.3c0 .5.5 1 1 1 .6 0 1-.5 1-1 0-.6-.4-1-1-1-.5 0-1 .4-1 1m-26.5 2c-1.3 2.1.7 2.8 7.2 2.5 7.4-.3 9.9-.7 10.9-1.8.4-.4-2.8-.5-7.2-.3-4.3.2-8.4 0-9.1-.5-.7-.7-1.4-.6-1.8.1m24.5-.5c0 .3.2.5.5.5s.5-.2.5-.5-.2-.5-.5-.5-.5.2-.5.5m-33 1.5c0 .7.3 1 .7.7.3-.4.3-1 0-1.4-.4-.3-.7 0-.7.7m35 0c0 .5.7 1 1.5 1s1.5-.5 1.5-1c0-.6-.7-1-1.5-1s-1.5.4-1.5 1m-6 1c0 .5 1.1 1 2.5 1s2.5-.5 2.5-1c0-.6-1.1-1-2.5-1s-2.5.4-2.5 1m-125.7 1.7c.4.3 1 .3 1.4 0 .3-.4 0-.7-.7-.7s-1 .3-.7.7m368.7-.2c0 .3.2.5.5.5s.5-.2.5-.5-.2-.5-.5-.5-.5.2-.5.5m-7 1.5c0 .5.7 1 1.5 1s1.5-.5 1.5-1c0-.6-.7-1-1.5-1s-1.5.4-1.5 1m-326 1c0 .5.5 1 1 1 .6 0 1-.5 1-1 0-.6-.4-1-1-1-.5 0-1 .4-1 1m5 0c0 .5 1.4 1 3 1 1.7 0 3-.5 3-1 0-.6-1.3-1-3-1-1.6 0-3 .4-3 1m326 0c0 .5.5 1 1 1 .6 0 1-.5 1-1 0-.6-.4-1-1-1-.5 0-1 .4-1 1m-318 2.1c-9.5.6-8 1.1 3.8 1.4 4.3.1 8.4.5 9 .9 1.5.9 6.2-.3 6.2-1.6 0-.6-1.1-.7-2.5-.4-1.4.4-2.5.2-2.5-.3s-1.2-.9-2.7-.8c-1.6.1-6.6.5-11.3.8m38.8-.4c1.2.2 3 .2 4 0 .9-.3-.1-.5-2.3-.4-2.2 0-3 .2-1.7.4m14 0c.7.3 1.6.2 1.9-.1.4-.3-.2-.6-1.3-.5-1.1 0-1.4.3-.6.6m-99.3 1.3c.3.5 1.3 1 2.1 1s1.4-.5 1.4-1c0-.6-.9-1-2.1-1-1.1 0-1.7.4-1.4 1m8.5 1c0 .5.5 1 1 1 .6 0 1-.5 1-1 0-.6-.4-1-1-1-.5 0-1 .4-1 1m58 0c0 .5.5 1 1 1 .6 0 1-.5 1-1 0-.6-.4-1-1-1-.5 0-1 .4-1 1m4 0c0 .7.3 1 .7.7.3-.4.3-1 0-1.4-.4-.3-.7 0-.7.7m-51 1c-1.3.8-1.2 1 .3 1 .9 0 1.7-.5 1.7-1 0-1.2-.1-1.2-2 0m-3 .5c0 .3.2.5.5.5s.5-.2.5-.5-.2-.5-.5-.5-.5.2-.5.5m11.8.2c.6.2 1.8.2 2.5 0 .6-.3.1-.5-1.3-.5s-1.9.2-1.2.5m-24.3 1c1.7.3 3.4.9 4 1.4 1.2 1.1 6.5 1.2 6.5 0 0-1-6.2-2.1-10.5-1.9l-3 .1zm12.5 1.6c0 .9 1.2 1.1 4 .9 2.2-.2 4-.8 4-1.3s-1.8-.9-4-.9c-2.6 0-4 .5-4 1.3m10-.3c0 .5.5 1 1 1 .6 0 1-.5 1-1 0-.6-.4-1-1-1-.5 0-1 .4-1 1m51 0c0 .7.3 1 .7.7.3-.4.3-1 0-1.4-.4-.3-.7 0-.7.7m-127.4 1.7c-.9 1-8.6 2-8.6 1.3 0-1.4-15.3-.6-15.7.7-.3.9.6 1.3 2.6 1.3 1.7 0 3.1.4 3.1.8 0 .8 6.8.6 13.3-.4 2-.3 3.7-1 3.7-1.6 0-.5.8-.7 1.8-.4 4.8 1.3 8.2 1.7 8.2.8 0-1.1-7.6-3.3-8.4-2.5m38.7 0c.4.3 1 .3 1.4 0 .3-.4 0-.7-.7-.7s-1 .3-.7.7m-8.3 1.7c0 .8 1 1.3 2.5 1.3 2.8 0 3.3-1.2.9-2.1s-3.4-.7-3.4.8m25.3-.7c.4.3 1 .3 1.4 0 .3-.4 0-.7-.7-.7s-1 .3-.7.7m32 0c.4.3 1 .3 1.4 0 .3-.4 0-.7-.7-.7s-1 .3-.7.7m3.7-.2c0 .3.2.5.5.5s.5-.2.5-.5-.2-.5-.5-.5-.5.2-.5.5m2.4.3c.5.9 7.5.6 8.4-.3.3-.3-1.6-.5-4.2-.5s-4.5.4-4.2.8m10.4-.1c.7.3 1.6.2 1.9-.1.4-.3-.2-.6-1.3-.5-1.1 0-1.4.3-.6.6m11.2-.2c0 .3.2.5.5.5s.5-.2.5-.5-.2-.5-.5-.5-.5.2-.5.5m-79 1.5c0 .7.3 1 .7.7.3-.4.3-1 0-1.4-.4-.3-.7 0-.7.7m7 1.4c0 1.2-1 1.6-3.5 1.6-1.9 0-3.5.4-3.5 1 0 .5 2 1 4.5 1 3.3 0 4.5-.4 4.5-1.5s1.1-1.5 4.2-1.5c5.3 0 4.4-1-1.6-1.6-3.7-.4-4.6-.2-4.6 1m312.3 2.3c2 2.1 2.9 2.5 3.8 1.6 1.7-1.7-.7-4.3-3.9-4.3h-2.7zm-380.3-1.2c0 .3.2.5.5.5s.5-.2.5-.5-.2-.5-.5-.5-.5.2-.5.5m21.8.2c.7.3 1.6.2 1.9-.1.4-.3-.2-.6-1.3-.5-1.1 0-1.4.3-.6.6m16 .6c3.1.7 4.6.7 5.4-.1.9-.9-.1-1.2-4.2-1.1l-5.5.1zm-60.8.7c0 .5.5 1 1 1 .6 0 1-.5 1-1 0-.6-.4-1-1-1-.5 0-1 .4-1 1m11 0c0 .5.7 1 1.5 1s1.5-.5 1.5-1c0-.6-.7-1-1.5-1s-1.5.4-1.5 1m42 0c0 .5.5 1 1 1 .6 0 1-.5 1-1 0-.6-.4-1-1-1-.5 0-1 .4-1 1m-62 1c0 .5.9 1 2 1s2-.5 2-1c0-.6-.9-1-2-1s-2 .4-2 1m41.5 0c-.3.5.1 1 .9 1 .9 0 1.6-.5 1.6-1 0-.6-.4-1-.9-1-.6 0-1.3.4-1.6 1m44.5 0c0 .5.7 1 1.5 1s1.5-.5 1.5-1c0-.6-.7-1-1.5-1s-1.5.4-1.5 1m-48.7.7c.4.3 1 .3 1.4 0 .3-.4 0-.7-.7-.7s-1 .3-.7.7m73.7-.2c0 .3.2.5.5.5s.5-.2.5-.5-.2-.5-.5-.5-.5.2-.5.5m-88 1c0 .3.2.5.5.5s.5-.2.5-.5-.2-.5-.5-.5-.5.2-.5.5m16 1.5c0 .5.5 1 1 1 .6 0 1-.5 1-1 0-.6-.4-1-1-1-.5 0-1 .4-1 1m4 0c0 .5.5 1 1 1 .6 0 1-.5 1-1 0-.6-.4-1-1-1-.5 0-1 .4-1 1m-7 1.5c0 .3.2.5.5.5s.5-.2.5-.5-.2-.5-.5-.5-.5.2-.5.5m-62 2.5c0 .7.3 1 .7.7.3-.4.3-1 0-1.4-.4-.3-.7 0-.7.7m126 4c0 .5.5 1 1 1 .6 0 1-.5 1-1 0-.6-.4-1-1-1-.5 0-1 .4-1 1m51 9c0 .7.3 1 .7.7.3-.4.3-1 0-1.4-.4-.3-.7 0-.7.7m5 0c0 .5.5 1 1.1 1 .5 0 .7-.5.4-1-.3-.6-.8-1-1.1-1-.2 0-.4.4-.4 1m-3 3c0 .5.5 1 1 1 .6 0 1-.5 1-1 0-.6-.4-1-1-1-.5 0-1 .4-1 1m-177 5.5c0 .8.5 1.5 1 1.5.6 0 1-.7 1-1.5s-.4-1.5-1-1.5c-.5 0-1 .7-1 1.5m3 2c0 .3.2.5.5.5s.5-.2.5-.5-.2-.5-.5-.5-.5.2-.5.5m-5 36c0 .3.2.5.5.5s.5-.2.5-.5-.2-.5-.5-.5-.5.2-.5.5"/></svg>