<svg xmlns="http://www.w3.org/2000/svg" version="1.0" viewBox="0 0 7680 4320"><path d="M3144 2163c0 .6 3.8 1 9.4 1 5.3 0 9.8-.4 10.1-1 .4-.6-3-1-9.4-1-6.1 0-10.1.4-10.1 1m-18.3 1.6c-1.6 1.6-.5 2.5 2.6 2.2 1.7-.2 3.1-.8 3-1.3-.3-1.2-4.6-1.9-5.6-.9m61.3.9c0 .3.2.5.5.5s.5-.2.5-.5-.2-.5-.5-.5-.5.2-.5.5m-27 26c0 .8.9 1.5 2 1.5s2-.7 2-1.5-.9-1.5-2-1.5-2 .7-2 1.5m-121 114.1c-2.3 2-3 2.2-3 1s-1-1.6-4.1-1.6c-4 0-4 .1-3.4 2.9s.4 3-3 3.7c-2 .3-5.4.4-7.5 0-3.2-.5-4.1-.3-4.9 1.3-2 3.7-9.9 6.4-18.6 6.5-6.2.1-8.9.6-12.1 2.3-2.3 1.2-6.9 2.4-11 2.8-5.8.6-7.9.3-12.8-1.5l-5.8-2.2-2.7 2.1c-4.6 3.8-12.4 7.1-16.7 7.1-3.4 0-5.1.8-9 4-2.9 2.4-7.2 4.7-10.3 5.6-4.2 1.3-6.6 2.9-11.3 7.8-6.6 6.6-14.6 16.4-19.6 23.8l-3.2 4.7V2700h410v-4.3c0-4.5 3.6-13.3 6.3-15.6 1.5-1.2 1.7-1.1 1.7.3 0 .9.7 1.6 1.5 1.6 1.8 0 2-3.7.3-4.2-.9-.3-.9-.6 0-1.2.7-.4 1.2-.2 1.2.3 0 .6.5 1.1 1 1.1.6 0 1-.7 1-1.6 0-1.7 5.7-4.4 9.4-4.4 4.1 0 3.7-1.5-1.4-5.3-6.9-5.2-8.7-8.1-7.2-11.9 1.3-3.6.8-4.8-1.9-4.8-1.6 0-1.9-.7-1.9-5 0-2.7 1-7.5 2.1-10.6 1.7-4.4 2-6.9 1.5-11.1-.4-3.7-.1-7.6 1-12 1.3-5.1 1.4-7.1.5-9-2.3-5.1-2.4-13.4-.3-19.5 1.7-4.7 1.9-6.5 1-9.5-1-3.7-.6-16 .7-19.9.5-1.6.2-2.2-1.3-2.6-2.6-.7-5.2-9.6-3.1-10.9 1-.6 1-.9.2-.9-1.8 0-1.6-4.6.4-10.2 1.5-4.1 1.5-5.5.3-11.6-1-5.7-1-8.1 0-13.6.9-4.1 1.9-6.6 2.7-6.6.7 0 1.3-.7 1.3-1.5 0-1.8-3-2-3.1-.3 0 .7-.7-.1-1.4-1.8-.8-1.8-1.5-6.6-1.7-10.8-.2-6.5-.6-7.6-2-7.6-1.1 0-1.8-.8-1.8-1.9s-.3-2.1-.7-2.3c-2.5-1.1-4.3-7.1-4.3-14.2 0-6.1-.5-8.4-2.5-12.3-2.3-4.3-2.5-5.5-2.1-12.9.3-4.5.8-8.8 1.1-9.6.3-.7-.1-3.3-.9-5.6-1.3-3.5-1.3-4.7-.3-6.3 1-1.7.9-2.2-.5-3-1.3-.7-1.8-2.3-1.8-5.4 0-3.3-.4-4.5-1.5-4.5-2.7 0-4.9-4.9-4.9-11-.1-4.2.2-5.6 1.2-5.3.6.3 1.2 0 1.2-.6s-.4-1.1-1-1.1c-.5 0-1-.9-1-2.1s-.8-2.3-2-2.6c-1.1-.3-2-.9-2-1.4s-1.6-.9-3.5-.9c-2.4 0-3.5-.5-3.5-1.5 0-.8-.4-1.5-1-1.5-.5 0-1-.7-1-1.5s.7-1.5 1.5-1.5 1.5.9 1.5 2 .7 2 1.5 2 1.5-.4 1.5-1c0-.5.7-.7 1.5-.4 1 .4 1.5 0 1.5-1.1 0-1-.5-1.5-1.3-1.2s-2 .1-2.8-.4c-1-.6-1-.9-.1-.9.6 0 1.2-.7 1.2-1.5q0-1.5-3-1.5t-3-1.5c0-.9-.7-1.8-1.5-2.1-1.4-.6-1.3-.8.1-1.9 2.4-1.7 1.1-4.5-2.1-4.5-1.4 0-2.5-.5-2.5-1 0-.6-.9-1-2-1s-2 .4-2 .9c0 .6-1.5 1.1-3.2 1.3-4.2.4-4.8 4.1-.8 4.6 3.4.5 5.1 2.2 2.1 2.2-3.3 0-8.1-3.1-8.1-5.3 0-1.2-.5-1.7-1.4-1.4-1.7.7-4.6-2.3-4.6-4.6 0-.9-.7-1.7-1.5-1.7-.9 0-1.5-1-1.5-2.6 0-1.7-.6-2.8-2-3.1-1.1-.3-2-1.2-2-1.9 0-.8-.7-1.4-1.5-1.4s-1.5.4-1.5.9-.9 1.1-2 1.4-2 1-2 1.7.9 1.4 2 1.7c2.2.6 2.8 4.3.8 4.3s-7-3.3-10.5-7c-2.7-2.8-3-3.5-1.8-4.6 2.1-2.1 3.3-1.7 3.7 1.3.4 3.3 4 4 4.6 1 .6-2.8-8.3-10.7-11.9-10.7-1.9 0-3.9-1-5.7-3l-2.9-3h-11.9c-13.1 0-16.4-.5-16.4-2.6 0-1-1.3-1.4-4.4-1.4-2.5 0-4.8-.5-5.1-1-.9-1.4-6.2-1.2-6.9.2-.5 1-.7 1-1.2.1-.3-.7-2.1-1.5-3.9-1.9-1.9-.3-3.6-1.2-3.9-2-.8-2.1-9.2-1.9-10.4.3-1.4 2.4-10.9 2-17-.7-3.9-1.7-5.8-2-11.4-1.4-5.5.5-7.2.4-8.6-.9-1.9-1.8-7.3-2.1-19.8-1.1-7.3.6-8.7.4-14-1.9-4.7-2-8.1-2.7-16.6-3.1-10.4-.5-10.9-.4-13.8 2m-5.3 3.1c-.4.3-1 .3-1.4 0-.3-.4 0-.7.7-.7s1 .3.7.7m116.3 6.8c0 1.7-.2 1.8-2.4.9-2.3-.9-2-2.4.4-2.4 1.1 0 2 .7 2 1.5m5.7 3.2c-.4.3-1 .3-1.4 0-.3-.4 0-.7.7-.7s1 .3.7.7m80 28.9c-.3.3-1.2.4-1.9.1-.8-.3-.5-.6.6-.6 1.1-.1 1.7.2 1.3.5m23 12.1c-.4.3-1 .3-1.4 0-.3-.4 0-.7.7-.7s1 .3.7.7"/><path d="M3022.7 2308.7c-1.3 1.2-.7 2.3 1.3 2.3 1.1 0 2-.7 2-1.5 0-1.5-2.1-2.1-3.3-.8m111.8.2c-.7 1.2 1.2 2.4 2.5 1.6 1.1-.7.4-2.5-1-2.5-.5 0-1.1.4-1.5.9m-153.3 7.2c.2.6.8 1 1.3 1s1.1-.4 1.3-1-.4-1.1-1.3-1.1-1.5.5-1.3 1.1m198 .1c.6 1.8 2.8 2.1 2.8.4 0-.9-.7-1.6-1.6-1.6s-1.4.5-1.2 1.2m15.8 2.3c0 .8.9 1.5 2 1.5s2-.7 2-1.5-.9-1.5-2-1.5-2 .7-2 1.5m71.3 20c.4.8.2 1.7-.3 2-2.2 1.3-.8 2.5 3 2.5 2.9 0 4-.4 4-1.5 0-.8.5-1.5 1-1.5.6 0 1-.7 1-1.5 0-1.1-1.2-1.5-4.6-1.5-3.6 0-4.5.3-4.1 1.5m12.4 2.1c-1.2 1.3.4 2.4 3.4 2.4 2 0 2.9-.4 2.7-1.3-.5-1.3-5-2.2-6.1-1.1m-9.7 4.4c0 .5.4 1 .9 1 .6 0 1.3-.5 1.6-1 .3-.6-.1-1-.9-1-.9 0-1.6.4-1.6 1m16.3-.3c.4.3 1 .3 1.4 0 .3-.4 0-.7-.7-.7s-1 .3-.7.7m-6.8 28.2c-.7 1.2 1.2 2.4 2.5 1.6 1.1-.7.4-2.5-1-2.5-.5 0-1.1.4-1.5.9m10.2 30.8c-1.3 1.2-.7 3.3.8 3.3.8 0 1.5-.9 1.5-2 0-2-1.1-2.6-2.3-1.3m0 29c-1.2 1.1-.8 2.3.8 2.3.8 0 1.5-.7 1.5-1.5 0-1.6-1.2-2-2.3-.8m31.3 49.9c0 1.7 2.2 1.4 2.8-.4.2-.7-.3-1.2-1.2-1.2s-1.6.7-1.6 1.6m-16 8.8c0 .9.7 1.6 1.6 1.6s1.4-.5 1.2-1.2c-.6-1.8-2.8-2.1-2.8-.4m102.6 40.5c-.4.5-.3 1.7 0 2.6.6 1.5.8 1.5 2.5-.1 1-.9 1.6-2.1 1.3-2.5-.7-1.2-3.1-1.1-3.8 0m-98.6 23.5c0 .9.7 1.6 1.6 1.6 1.7 0 1.4-2.2-.4-2.8-.7-.2-1.2.3-1.2 1.2m-2 12.5c0 1.4 2.8 3.3 4 2.6 2-1.2 1-3.5-1.5-3.5-1.4 0-2.5.4-2.5.9m2 19.6c0 .9.5 1.5 1.1 1.3s1.1-.8 1.1-1.3-.5-1.1-1.1-1.3-1.1.4-1.1 1.3m0 64c0 .9.5 1.5 1.1 1.3s1.1-.8 1.1-1.3-.5-1.1-1.1-1.3-1.1.4-1.1 1.3m-3.4 24.2c-.3.3-.6 3.3-.6 6.5 0 4.3.4 5.8 1.4 5.8 2 0 2.6-2.4 1.9-7.6-.6-4.4-1.4-5.9-2.7-4.7m12.4 4.3c0 1.6.7 2 3 2 3.4 0 3.9-1.4 1.1-3-2.9-1.5-4.1-1.2-4.1 1m-7 16.5c0 .8.7 1.5 1.5 1.5s1.5-.7 1.5-1.5-.7-1.5-1.5-1.5-1.5.7-1.5 1.5m-9 2c-1 1.2-1 1.5.4 1.5.9 0 1.6-.7 1.6-1.5s-.2-1.5-.4-1.5-.9.7-1.6 1.5m410.8 1.2c191.5.2 504.9.2 696.5 0 191.5-.1 34.8-.2-348.3-.2s-539.8.1-348.2.2m1055.4 0c5.9.2 15.8.2 22 0 6.2-.1 1.4-.3-10.7-.3s-17.2.2-11.3.3"/></svg>