<svg xmlns="http://www.w3.org/2000/svg" version="1.0" viewBox="0 0 7680 4320"><path d="M4626 1901.9c-2.2.6-2.3.8-.7 1.4 2.3.9 22.1.7 26.2-.2 2.7-.6 2.4-.8-2.5-1.4-6.8-.8-19.6-.7-23 .2m155 19.6c0 .3.2.5.5.5s.5-.2.5-.5-.2-.5-.5-.5-.5.2-.5.5m-90.2 6.5c-3.2.9-10.5 5.9-13.4 9.1-2.1 2.5-3.8 6.2-4.9 11.3-.3 1.7-1.5 4.3-2.7 5.8-2.8 4-6.8 20.9-6.8 28.9 0 3.6.5 9.1 1.1 12.1 1.1 5.3.9 6.1-2.4 15.4-6.6 18.7-6.9 21.8-8.2 78.4-.5 17.9-1.1 27.2-2.5 34.5-1.3 6.4-2.2 16.7-2.5 28.5-1.1 36.1-1.5 40.9-3.5 52.1-1.2 6.3-2.6 14.8-3 18.9-.5 4.1-1.3 10-1.9 13-.5 3-1.3 12.5-1.6 21-.5 11-1.2 17.1-2.6 21.1-1 3.1-2.1 7.6-2.5 10-.3 2.4-1.5 7.7-2.5 11.8s-1.9 10-1.9 13c-.1 8.3-2.4 18.9-4.9 21.9-1.1 1.5-2.6 3.7-3.1 4.9-.5 1.3-1.4 2.3-1.9 2.3-1.2 0-8.1 10.2-8.1 11.9 0 .7-1.2 1.6-2.8 2.2-1.5.5-3.2 1.9-3.7 3.1-1.1 2.3-3.5 3.7-3.5 1.9 0-.6.7-1.1 1.6-1.1.8 0 1.2-.5.9-1-1-1.6-5.5-1.2-5.5.5 0 .8.5 1.5 1 1.5.6 0 1 .5 1 1.1 0 .7-.5.8-1.2.3s-5.3-.9-10.3-.8c-8.7 0-14.8 1.2-21 3.9-1.6.7-6.3 1.7-10.4 2.1-7.6.7-13.1 2.6-11.2 3.9.6.3 1.5.4 2 0 1.8-1.1 10.1-2.2 10.1-1.4 0 .5 1.2.4 2.6-.1 2.2-.9 2.5-.8 2 .6-.3.8-.6 1.9-.6 2.4 0 .4-.6.8-1.2.7-4.3-.1-7.8.4-7.8 1.3 0 .5 1.7 1 3.8 1s4.7.7 5.8 1.5q2.1 1.65.3.9c-1-.3-2-.1-2.4.5-.3.6-1.7 1.1-3 1.1s-2.7.5-3 1.1c-.5.7 1 1 4.7.8 3-.1 5.9.1 6.5.4.6.4 1.9.4 2.9 0 1.3-.5 1.5-.3.9.7-.6.9-.4 1.1.4.5 1.8-1 7.1-1.3 7.7-.3.3.4 0 .8-.7.8s-1 .2-.7.5c.9 1 3.8-.7 3.1-1.8q-.45-.9.6-.3c.6.4 2.5 1.1 4.1 1.6 2.3.7 2.8.5 2.3-.6-.4-1.1 0-1.2 1.8-.5 1.3.5 2.3 1.5 2.1 2.2-.2 1 0 1 1.2-.1.9-.7 1.6-1.8 1.6-2.5 0-1.9 2.3-2.5 6.7-1.8s7.4 2.9 6.6 4.9c-.3.8-.1 1.4.5 1.4.5 0 .7 1.1.5 2.4-.4 2.1-.8 2.3-2.9 1.6-3.3-1.3-3 .1.4 2.2l2.7 1.7-6.5.2c-3.6 0-7.6.5-9 .9q-2.55.9 4.8.6c3.9-.2 7.2.1 7.2.5 0 .9-2.6 1.2-9.9 1.1-4.2-.1-4.3 0-2.2 1.4 2 1.5 4.5 1.5 13.1 0 2.8-.5 3-.4 1 .3l-2.5.9 2.9.1c4.4.2 2.7 1-3.5 1.6-2.9.4-5.9.8-6.6 1-.6.2-1.4 0-1.7-.6-.2-.5-.3-.4-.2.3.3 1.4.6 1.5 6.7 1.7 2.2 0 3.8.5 3.5 1-.4.5.3.7 1.5.4 1.6-.4 1.7-.8.7-1.4-.9-.6-.2-.9 2-.9 1.9 0 3.2-.5 3.2-1.3 0-1.4 7.4-3.7 12-3.7q3 0 3 1.5c0 .8.5 1.5 1 1.5.6 0 1 .8.8 1.7-.2 1 .5 1.9 2 2.2 1.3.3 2.3 1 2.2 1.6-.1.5.3 1.1.8 1.3.6.2.8-.6.5-1.7s-1.5-2.2-2.7-2.4c-1.1-.2-.4-.3 1.7 0 2.2.2 3.6 0 3.3-.6-.3-.5.3-.7 1.5-.4s2.4.1 2.8-.6c.5-.8 1.3-.4 2.7 1.1 1.6 1.9 1.6 2 .1.9-.9-.8-2-1.1-2.3-.8s.4 1.1 1.7 1.7c1.9 1 2.4 1 3.4-.4 1.4-1.9 4.6-2.1 6.4-.4 1.1 1.1 1.2 1 .7 0-.6-1-.1-1.1 1.7-.7 1.4.4 7.4.7 13.4.8 7.6.1 11.5.6 12.6 1.6 2.4 1.9 2.1 2.9-1 3.4-2.7.4-2.7.4.4.6 1.7 0 3.3.6 3.5 1.3.3.8 1.1.7 2.8-.5 1.4-.9 3.2-1.7 4.2-1.7s1.8-.5 1.8-1c0-.6 2.7-1 6.1-1s5.8.4 5.4.9c-.3.5-.1 1.2.5 1.6.5.3 1 .1 1-.5 0-.7.7-.7 2.3.1 3.1 1.6 6.7 5 6.2 5.9-.2.4.7.5 2.2.2 1.8-.3 2.4-.1 1.9.7-.5.7 0 1.1 1.3 1.1 1.2 0 2.1.5 2.1 1 0 .6 2.4 1 5.8.9 10.2-.2 11.8.5 5 2.1l-3.3.8 3.8.1c2.2.1 3.7.6 3.7 1.3 0 .9.3.8 1-.2.8-1.2 1-1.2 1.6.3.9 2.4 3.4 2.1 3.4-.3 0-2.2 1.5-2.7 2.3-.8.4.9.8.9 1.4.3 1.6-1.9 4.9-1.5 7.2.9 1.9 2.1 2.6 2.2 5.1 1.3 2.1-.8 4.3-.7 9.2.7 4.5 1.2 7.5 1.5 10.3.9 5.3-1.1 13.1-.2 12.8 1.4-.2.7.4 1.3 1.2 1.3s1.5-.6 1.5-1.3c0-.8.4-.7 1 .3s1 1.1 1 .2c0-.6.9-1.2 2-1.2 2 0 2-.7 2-246.8v-246.8l-7.1.9c-5.4.8-9.1.6-16.2-.6-5.1-.9-17.9-2.6-28.6-3.8-16-1.9-20.1-2.1-23.7-1.1-5.7 1.5-7.9 1.5-11.2-.2-3.1-1.6-18.5-2.6-22.4-1.6m-90.8 436.5c0 .3-.2.5-.5.5s-.5-.2-.5-.5.2-.5.5-.5.5.2.5.5m-19.3 1.2c-.4.3-1 .3-1.4 0-.3-.4 0-.7.7-.7s1 .3.7.7m-2.2 1.3c.3.6-.1.7-.9.4-1.8-.7-2.1-1.4-.7-1.4.6 0 1.3.4 1.6 1m9.5 3.4c0 .3-.5.8-1.2 1.2s-.8.3-.4-.4c.7-1.2 1.6-1.6 1.6-.8m14 6.1c0 .3-.2.5-.5.5s-.5-.2-.5-.5.2-.5.5-.5.5.2.5.5m-4 1c0 .3-.2.5-.5.5s-.5-.2-.5-.5.2-.5.5-.5.5.2.5.5m-19.3 1.2c-.4.3-1 .3-1.4 0-.3-.4 0-.7.7-.7s1 .3.7.7m17.3-.2c0 .3-.2.5-.5.5s-.5-.2-.5-.5.2-.5.5-.5.5.2.5.5m-24 1c0 .3-.2.5-.5.5s-.5-.2-.5-.5.2-.5.5-.5.5.2.5.5m22 0c0 .3-.2.5-.5.5s-.5-.2-.5-.5.2-.5.5-.5.5.2.5.5m16.7 12.2c-.4.3-1 .3-1.4 0-.3-.4 0-.7.7-.7s1 .3.7.7m13.3-.2c0 .3-.2.5-.5.5s-.5-.2-.5-.5.2-.5.5-.5.5.2.5.5m-6.3 1.1c-.3.3-1.2.4-1.9.1-.8-.3-.5-.6.6-.6 1.1-.1 1.7.2 1.3.5m-.4 2.1c-1.3.2-3.5.2-5 0-1.6-.2-.5-.4 2.2-.4 2.8 0 4 .2 2.8.4m9.4-.1c-.3.3-1.2.4-1.9.1-.8-.3-.5-.6.6-.6 1.1-.1 1.7.2 1.3.5m5 0c-.3.3-1.2.4-1.9.1-.8-.3-.5-.6.6-.6 1.1-.1 1.7.2 1.3.5m-10 1.1c-.4.3-1 .3-1.4 0-.3-.4 0-.7.7-.7s1 .3.7.7m-6.3 1.8c.3 1-.1 1.5-1.3 1.5-1.1 0-2.6.3-3.5.6-1.2.4-1.6 0-1.6-1.5 0-1.7.6-2.1 2.9-2.1 1.6 0 3.1.6 3.5 1.5m11.1-.5c.3.5.1 1-.4 1-.6 0-1.1-.5-1.1-1 0-.6.2-1 .4-1 .3 0 .8.4 1.1 1m-8.5 1.5c0 .3-.2.5-.5.5s-.5-.2-.5-.5.2-.5.5-.5.5.2.5.5m19.9 1.1c.8.7-5.4.2-7.9-.6-1.7-.6-.9-.7 2.5-.3 2.8.3 5.2.7 5.4.9m-41.2 0c-.3.3-1.2.4-1.9.1-.8-.3-.5-.6.6-.6 1.1-.1 1.7.2 1.3.5m3.3-.1c0 .3-.2.5-.5.5s-.5-.2-.5-.5.2-.5.5-.5.5.2.5.5m147 4c0 .3-.2.5-.5.5s-.5-.2-.5-.5.2-.5.5-.5.5.2.5.5m-3 1c0 .3-.2.5-.5.5s-.5-.2-.5-.5.2-.5.5-.5.5.2.5.5m24 7c0 .3-.2.5-.5.5s-.5-.2-.5-.5.2-.5.5-.5.5.2.5.5m-42.3 6.2c-.4.3-1 .3-1.4 0-.3-.4 0-.7.7-.7s1 .3.7.7m19 3c-.4.3-1 .3-1.4 0-.3-.4 0-.7.7-.7s1 .3.7.7m2.3-.2c0 .3-.2.5-.5.5s-.5-.2-.5-.5.2-.5.5-.5.5.2.5.5m49 4c0 .3-.2.5-.5.5s-.5-.2-.5-.5.2-.5.5-.5.5.2.5.5m-39 1c0 .3-.2.5-.5.5s-.5-.2-.5-.5.2-.5.5-.5.5.2.5.5"/><path d="M4611.8 2397.7c.7.3 1.6.2 1.9-.1.4-.3-.2-.6-1.3-.5-1.1 0-1.4.3-.6.6m25.2-274.2c0 .3.2.5.5.5s.5-.2.5-.5-.2-.5-.5-.5-.5.2-.5.5m-3 60c0 .3.2.5.5.5s.5-.2.5-.5-.2-.5-.5-.5-.5.2-.5.5m-7 66.5c0 .7.3 1 .7.7.3-.4.3-1 0-1.4-.4-.3-.7 0-.7.7m-31.7 100.7c.4.3 1 .3 1.4 0 .3-.4 0-.7-.7-.7s-1 .3-.7.7m-34.3 14.8c0 .3.2.5.5.5s.5-.2.5-.5-.2-.5-.5-.5-.5.2-.5.5m-13 1c0 .3.2.5.5.5s.5-.2.5-.5-.2-.5-.5-.5-.5.2-.5.5m2.3.2c.4.3 1 .3 1.4 0 .3-.4 0-.7-.7-.7s-1 .3-.7.7m-2.8 10.3c-1.9.8-1.9.9.3.9 1.2.1 2.2-.4 2.2-.9 0-.6-.1-1-.2-.9-.2 0-1.2.4-2.3.9m-.5 2.5c0 .3.2.5.5.5s.5-.2.5-.5-.2-.5-.5-.5-.5.2-.5.5m4.3.2c.4.3 1 .3 1.4 0 .3-.4 0-.7-.7-.7s-1 .3-.7.7m1.2 4.3c.3.5.8 1 1.1 1s.2-.5-.1-1c-.3-.6-.8-1-1.1-1s-.2.4.1 1m9.1-.2c-.8 1.3 2.8 2.2 4.5 1.1.9-.6 1-.9.2-.9-.6 0-1.8-.3-2.6-.6s-1.8-.1-2.1.4m34.2-.1c.7.3 1.6.2 1.9-.1.4-.3-.2-.6-1.3-.5-1.1 0-1.4.3-.6.6m-40.5 1c.4.3 1 .3 1.4 0 .3-.4 0-.7-.7-.7s-1 .3-.7.7m32.7-.2c0 .3.2.5.5.5s.5-.2.5-.5-.2-.5-.5-.5-.5.2-.5.5m-5 1c0 .3.2.5.5.5s.5-.2.5-.5-.2-.5-.5-.5-.5.2-.5.5m21 0c0 .3.2.5.5.5s.5-.2.5-.5-.2-.5-.5-.5-.5.2-.5.5m-42.7 2.2c.4.3 1 .3 1.4 0 .3-.4 0-.7-.7-.7s-1 .3-.7.7m2.7-.2c0 .3.2.5.5.5s.5-.2.5-.5-.2-.5-.5-.5-.5.2-.5.5m14 0c0 .3.2.5.5.5s.5-.2.5-.5-.2-.5-.5-.5-.5.2-.5.5m4 1c.7.8 1.6 1.5 2.1 1.5s.6-.7.3-1.5c-.4-.8-1.3-1.5-2.1-1.5-1.3 0-1.3.3-.3 1.5m5 0c0 .3.2.5.5.5s.5-.2.5-.5-.2-.5-.5-.5-.5.2-.5.5"/><path d="M4560.2 2390.8c2.1 2.7 3.2 3.3 5.5 2.7 1.2-.3 2.4-.1 2.7.4.4.6 2 .6 4.1 0 1.9-.6 4.1-.7 4.8-.2.6.4 2.1.6 3.2.5 1.8-.2 1.7-.1-.4 1.1-2.2 1.3-2 1.4 3.2 1.6 3.1.1 5.8-.3 6.2-.9.3-.5 1.5-1 2.6-1 1 0 1.9-.4 1.9-.9 0-1.7-1.2-4.1-2.1-4.1-1.4 0-1.1 2.8.4 3.3.7.3.5.6-.5.6-1 .1-1.8-.3-1.8-.8s-.9-.7-2.1-.4c-1.2.4-2.5 0-3.1-.8-.7-1.1-1.1-1.1-1.5-.2-.7 1.8-3.4 1.6-2.7-.1.6-1.6-2.2-3-3.1-1.6-.4.6-1.4 1-2.3 1-1.5 0-1.5-.2-.2-1.1 1.2-.8 1.1-.9-.5-.5-2.7.8-10.4.9-13.3.2-2.1-.5-2.2-.3-1 1.2m4.8 1.7c0 .3-.2.5-.5.5s-.5-.2-.5-.5.2-.5.5-.5.5.2.5.5m21.7 2.2c-.4.3-1 .3-1.4 0-.3-.4 0-.7.7-.7s1 .3.7.7m7.3-4.1c0 .8.7 1.4 1.5 1.4s1.5.4 1.5 1c0 .5.8 1 1.8.9 1 0 1.2-.3.5-.6-.7-.2-1.3-1.1-1.3-1.8s-.9-1.5-2-1.8c-1.3-.3-2 0-2 .9m10.3-.9c.4.3 1 .3 1.4 0 .3-.4 0-.7-.7-.7s-1 .3-.7.7"/><path d="M4587 2391c0 .7.3 1 .7.7.3-.4.3-1 0-1.4-.4-.3-.7 0-.7.7m12 0c0 .5.5 1 1 1 .6 0 1-.5 1-1 0-.6-.4-1-1-1-.5 0-1 .4-1 1m-56.6 1.1c-.9 1.6.2 2.2 2.1 1.1 1.5-.8 1.6-1 .1-1.5-.8-.3-1.8-.2-2.2.4m59.4 1.6c.7.3 1.6.2 1.9-.1.4-.3-.2-.6-1.3-.5-1.1 0-1.4.3-.6.6m-40.8 1.3c.8.5 2.2 1 3 1 1.3 0 1.3-.1 0-1-.8-.5-2.2-1-3-1-1.3 0-1.3.1 0 1m5 .5c0 .3.2.5.5.5s.5-.2.5-.5-.2-.5-.5-.5-.5.2-.5.5m-10 1.5c0 .5.7 1 1.6 1 .8 0 1.2-.5.9-1-.3-.6-1-1-1.6-1-.5 0-.9.4-.9 1m-2 .5c0 .3.2.5.5.5s.5-.2.5-.5-.2-.5-.5-.5-.5.2-.5.5m7 1c0 .3.2.5.5.5s.5-.2.5-.5-.2-.5-.5-.5-.5.2-.5.5m12 0c0 .3.2.5.5.5s.5-.2.5-.5-.2-.5-.5-.5-.5.2-.5.5m10 0c0 .3.2.5.5.5s.5-.2.5-.5-.2-.5-.5-.5-.5.2-.5.5m-26 1c0 .3.2.5.5.5s.5-.2.5-.5-.2-.5-.5-.5-.5.2-.5.5m18.3.2c.4.3 1 .3 1.4 0 .3-.4 0-.7-.7-.7s-1 .3-.7.7m11.7-.2c0 .3.2.5.5.5s.5-.2.5-.5-.2-.5-.5-.5-.5.2-.5.5m-25.7 1.2c.4.3 1 .3 1.4 0 .3-.4 0-.7-.7-.7s-1 .3-.7.7m28.7-.2c0 .3.2.5.5.5s.5-.2.5-.5-.2-.5-.5-.5-.5.2-.5.5m31 0c0 .3.2.5.5.5s.5-.2.5-.5-.2-.5-.5-.5-.5.2-.5.5m-54.7 1.2c.4.3 1 .3 1.4 0 .3-.4 0-.7-.7-.7s-1 .3-.7.7m4.7-.2c0 .3.2.5.5.5s.5-.2.5-.5-.2-.5-.5-.5-.5.2-.5.5m46 .5c0 .5.5 1 1 1 .6 0 1-.5 1-1 0-.6-.4-1-1-1-.5 0-1 .4-1 1m6 0c0 .5.4 1 .9 1 .6 0 1.3-.5 1.6-1 .3-.6-.1-1-.9-1-.9 0-1.6.4-1.6 1m-54 .5c0 .3.2.5.5.5s.5-.2.5-.5-.2-.5-.5-.5-.5.2-.5.5m7.6 1c.4.9 1.1 1.4 1.6 1.3 1.5-.5 1.1-2.3-.6-2.6-1.1-.2-1.4.2-1 1.3m6.4.5c0 .5 1.1 1 2.5 1s2.5-.5 2.5-1c0-.6-1.1-1-2.5-1s-2.5.4-2.5 1m7-.5c0 .3.2.5.5.5s.5-.2.5-.5-.2-.5-.5-.5-.5.2-.5.5m-26 1.8c0 1.8 1.9 2.4 8.6 2.9 3 .2 4 0 3.7-.9-.3-.8-2.3-1.3-5.2-1.3-2.6 0-5.2-.5-5.9-1.2-.9-.9-1.2-.8-1.2.5"/><path d="M4567.3 2404.7c.9.2 2.3.2 3 0 .6-.3-.1-.5-1.8-.5-1.6 0-2.2.2-1.2.5m6 0c.4.3 1 .3 1.4 0 .3-.4 0-.7-.7-.7s-1 .3-.7.7m64.1 1.4c-.3.6-.2 1.5.4 2.1s1.1.2 1.5-1.1c.5-2.2-.7-2.9-1.9-1m10.6-.1c0 .6.7 1 1.5 1s1.5-.2 1.5-.4-.7-.6-1.5-1c-.8-.3-1.5-.1-1.5.4m-63 1c0 .5.5 1 1.1 1 .5 0 .7-.5.4-1-.3-.6-.8-1-1.1-1-.2 0-.4.4-.4 1m5.7 1c.7 2.5 1.9 3.4 2.8 2 .3-.6 0-1.7-.9-2.5-2-2-2.5-1.9-1.9.5m2.3-1.5c0 .3.2.5.5.5s.5-.2.5-.5-.2-.5-.5-.5-.5.2-.5.5m6 .5c0 .5.9 1 2 1s2-.5 2-1c0-.6-.9-1-2-1s-2 .4-2 1m11 0c0 .5.5 1 1 1 .6 0 1-.5 1-1 0-.6-.4-1-1-1-.5 0-1 .4-1 1m17 1c0 .5.5 1 1 1 .6 0 1-.5 1-1 0-.6-.4-1-1-1-.5 0-1 .4-1 1m-58.4 2.5c1 .8 2.4 1.5 3 1.5s2.4 1 4 2.2c1.5 1.3 2.5 1.7 2 1-.5-.8 0-1.2 1.6-1.3 2.2 0 2.2-.1.3-.8-1.1-.5-2.3-.4-2.6.2-.4.5-1.5-.2-2.4-1.7-1.2-1.9-2.6-2.6-4.8-2.6-2.9 0-3 .1-1.1 1.5m13.4-1c0 .3.2.5.5.5s.5-.2.5-.5-.2-.5-.5-.5-.5.2-.5.5m37 1c0 .3.2.5.5.5s.5-.2.5-.5-.2-.5-.5-.5-.5.2-.5.5m14.3.2c.4.3 1 .3 1.4 0 .3-.4 0-.7-.7-.7s-1 .3-.7.7m4.7-.2c0 .3.2.5.5.5s.5-.2.5-.5-.2-.5-.5-.5-.5.2-.5.5m-49 1c0 .3.2.5.5.5s.5-.2.5-.5-.2-.5-.5-.5-.5.2-.5.5m5.8 1.2c-2 .5-1.3 3.3.9 3.3.8 0 1.1-.5.7-1.1-.3-.6 0-1.5.7-2 1.5-.9.6-1-2.3-.2m5.5 0c.4.3 1 .3 1.4 0 .3-.4 0-.7-.7-.7s-1 .3-.7.7m10.2.3c-.3.5-.2 1 .4 1 .5 0 1.3-.5 1.6-1 .3-.6.2-1-.4-1-.5 0-1.3.4-1.6 1m50.5.2c0 .5 1.6.8 3.5.8s3.5.5 3.5 1.1c0 .5.5.7 1.1.3 1.8-1.1-.7-2.7-4.5-2.8-2-.1-3.6.2-3.6.6m-77.2.5c.6.2 1.8.2 2.5 0 .6-.3.1-.5-1.3-.5s-1.9.2-1.2.5m48.5 0c.4.3 1 .3 1.4 0 .3-.4 0-.7-.7-.7s-1 .3-.7.7m-2.3.8c0 .3.2.5.5.5s.5-.2.5-.5-.2-.5-.5-.5-.5.2-.5.5m51.8.2c.7.3 1.6.2 1.9-.1.4-.3-.2-.6-1.3-.5-1.1 0-1.4.3-.6.6m-94.8.8c0 .3.2.5.5.5s.5-.2.5-.5-.2-.5-.5-.5-.5.2-.5.5m12 0c0 .3.2.5.5.5s.5-.2.5-.5-.2-.5-.5-.5-.5.2-.5.5m57 0c0 .3.2.5.5.5s.5-.2.5-.5-.2-.5-.5-.5-.5.2-.5.5m3.3 1.2c.4.3 1 .3 1.4 0 .3-.4 0-.7-.7-.7s-1 .3-.7.7m-8 1c.4.3 1 .3 1.4 0 .3-.4 0-.7-.7-.7s-1 .3-.7.7m4.5 0c.7.3 1.6.2 1.9-.1.4-.3-.2-.6-1.3-.5-1.1 0-1.4.3-.6.6m-11 1c.7.3 1.6.2 1.9-.1.4-.3-.2-.6-1.3-.5-1.1 0-1.4.3-.6.6m69.2 1.3c0 .5 1 1 2.3 1 1.8 0 1.9-.2.7-1-1.9-1.3-3-1.3-3 0m-111 .5c0 .3.2.5.5.5s.5-.2.5-.5-.2-.5-.5-.5-.5.2-.5.5m87 .5c0 .5 1.1 1 2.4 1 1.4 0 2.8-.5 3.1-1 .4-.6-.7-1-2.4-1s-3.1.4-3.1 1m-48.3 1.8c-2.1.3-2.7.8-2.3 1.9.4 1 .2 1.3-.7 1-.8-.3-2-.1-2.8.4-.9.5-.4.7 1.6.5 1.7-.2 3.2-.5 3.5-.6.3-.2 4.3-.3 8.9-.4 5.3-.1 8.6-.5 8.8-1.2.3-.8-1.7-1.2-6.1-1.2-3.6 0-6.9-.2-7.3-.4-.5-.2-2.1-.2-3.6 0m-44.7 1.2c-.8.5-1.2 1.1-1 1.4.8.7 6-.6 6-1.5 0-1.2-3.1-1.1-5 .1m10 0c0 .5.5 1 1 1 .6 0 1-.5 1-1 0-.6-.4-1-1-1-.5 0-1 .4-1 1m143 0c0 .5.5 1 1 1 .6 0 1-.5 1-1 0-.6-.4-1-1-1-.5 0-1 .4-1 1m-145 1c0 .7.3 1 .7.7.3-.4.3-1 0-1.4-.4-.3-.7 0-.7.7m127 0c0 .5.5 1 1 1 .6 0 1-.5 1-1 0-.6-.4-1-1-1-.5 0-1 .4-1 1m15 0c0 .5.5 1 1 1 .6 0 1-.5 1-1 0-.6-.4-1-1-1-.5 0-1 .4-1 1m-2.7.7c.4.3 1 .3 1.4 0 .3-.4 0-.7-.7-.7s-1 .3-.7.7m16 1c.4.3 1 .3 1.4 0 .3-.4 0-.7-.7-.7s-1 .3-.7.7m-155 1c.4.3 1 .3 1.4 0 .3-.4 0-.7-.7-.7s-1 .3-.7.7m3.7-.2c0 .3.2.5.5.5s.5-.2.5-.5-.2-.5-.5-.5-.5.2-.5.5m174.3 1.2c.4.3 1 .3 1.4 0 .3-.4 0-.7-.7-.7s-1 .3-.7.7M4681 2431c0 .5 1.5 1 3.3 1 2.4 0 2.8-.3 1.7-1-2-1.3-5-1.3-5 0m91.3 1.7c.4.3 1 .3 1.4 0 .3-.4 0-.7-.7-.7s-1 .3-.7.7m22 0c.4.3 1 .3 1.4 0 .3-.4 0-.7-.7-.7s-1 .3-.7.7m3 1c-1.9.7-1.6 2 .7 2.6 1.5.4 2 0 2-1.4 0-1.9-.5-2.1-2.7-1.2m-163.8 1.3c.3.5.8 1 1.1 1 .2 0 .4-.5.4-1 0-.6-.5-1-1.1-1-.5 0-.7.4-.4 1m46.5-.5c0 .3.2.5.5.5s.5-.2.5-.5-.2-.5-.5-.5-.5.2-.5.5m28.3.2c.4.3 1 .3 1.4 0 .3-.4 0-.7-.7-.7s-1 .3-.7.7m74.7.3c0 .5 1.7 1.1 3.8 1.2 2 0 4.4.2 5.2.3 2.3.2 3.4-.7 1.9-1.6-1.9-1.2-10.9-1.1-10.9.1m-143.5 2c-1.4.6-.8.7 2.2.6 2.4-.1 4.6-.5 5-.9.9-1-4.8-.7-7.2.3m70.5-.6c0 .2.7.6 1.5 1 .8.3 1.5.1 1.5-.4 0-.6-.7-1-1.5-1s-1.5.2-1.5.4m4.5.6c.4.6 1.1.8 1.6.5 1.4-.9 1.1-1.5-.7-1.5-.8 0-1.2.5-.9 1m-64.3 4.2c.2.6 1 1.4 1.6 1.6.7.2 1-.2.6-1.2-.7-1.8-2.8-2.2-2.2-.4m3.8.8c0 .5.5 1 1 1 .6 0 1-.5 1-1 0-.6-.4-1-1-1-.5 0-1 .4-1 1m33.5 9.9c-1 1.7 1.1 2.1 3.1.6 1.8-1.4 1.8-1.4-.3-1.5-1.2 0-2.4.4-2.8.9"/></svg>