<svg xmlns="http://www.w3.org/2000/svg" version="1.0" viewBox="0 0 7680 4320"><path d="M3914 2334.5c-11.6 2-22.2 8.3-35.8 21.1-6.5 6.1-12.7 13-14.8 16.5-2 3.2-4.3 5.9-5 5.9-1.2 0-5.3 5.6-17 22.7-2.3 3.4-5.6 8-7.4 10.3-3.3 4.2-3.1 4.6 2.3 4.2.9-.1 1.7.2 1.7.6s1.3.9 3 1c3.9.3 8 1.9 8 3.2 0 .5.7 1 1.5 1 1 0 1.5.7 1.3 1.7-.3 1.5.8 1.9 6.5 2.5 7.9.9 23.5 5.2 28.9 7.9 4.4 2.2 13.7 2.5 32.1.8 9.5-.8 12.2-1.4 13.7-2.9 2.3-2.3 3.2-2.4 9.8-.9 2.8.7 5.8.8 6.8.4 1.1-.5 2.3-.7 2.9-.6.5.1 4.7-.3 9.2-.9 8.3-1.2 20.4-2.1 27.6-2 2 .1 3.7-.3 3.7-.8 0-1.4-10.2-10.8-13.7-12.5-6.7-3.5-12-13.9-18.4-36.7-3.2-11.3-6.1-18.4-8.8-21.3-.9-1-2.9-4.7-4.6-8.2-2.1-4.4-4.5-7.6-8-10.4-4.7-3.9-5.3-4.1-11.5-4-3.6.1-9.9.7-14 1.4m50.5 91.5c-.3.5-1.6 1-2.8 1-1.8 0-1.9-.2-.7-1 2-1.3 4.3-1.3 3.5 0m-8.5 2.5c0 .3-.2.5-.5.5s-.5-.2-.5-.5.2-.5.5-.5.5.2.5.5m522.3 218.5c0 3.6.2 5 .4 3.2.2-1.7.2-4.7 0-6.5-.2-1.7-.4-.3-.4 3.3m-1 27c0 3.6.2 5 .4 3.2.2-1.7.2-4.7 0-6.5-.2-1.7-.4-.3-.4 3.3m-.1 23c0 1.9.2 2.7.5 1.7.2-.9.2-2.5 0-3.5-.3-.9-.5-.1-.5 1.8"/></svg>