<svg xmlns="http://www.w3.org/2000/svg" version="1.0" viewBox="0 0 7680 4320"><path d="M3292 1868.9c0 1.9 2.2 2.3 3.8.7 1.5-1.5 1.4-1.6-1.1-1.6-1.5 0-2.7.4-2.7.9m433.3 413.8c-2.1.8-1.5 2.2.7 1.6 1.1-.3 2-.9 2-1.4 0-1-.8-1-2.7-.2m22.2 8.9c-2.2.8-5 1.3-6.3 1.1-3.5-.7-19.6 9.9-21.5 14.1-.6 1.5-2.4 4.5-3.9 6.6-1.6 2.1-2.8 4.7-2.8 5.6 0 2-3.9 11.6-6.1 15-.9 1.4-2.3 4.2-3 6.3s-2.1 4.6-2.9 5.5c-.9 1-2 3.3-2.3 5.1-.4 1.9-2.6 7.3-4.9 12-2.2 4.7-4.2 9-4.2 9.6-.4 3.3-1.8 5.3-3.5 4.8-1.4-.4-1.8.1-1.8 2.1 0 2.7.6 2.6 4.2-.3 1.9-1.6 1.9-1.5.2 1.1l-1.7 2.7 5.5-1.9c3.1-1.1 5.7-1.5 6-1 .9 1.5 7.6.2 9.1-1.7.9-1.2 1.3-1.3 1.4-.5 0 .7.5 1 1 .7.6-.4 1.8-.1 2.7.7 1.4 1.1 1.6 1.1.8-.1-.6-1-.4-1.2.6-.5.7.4 2.9.7 4.7.5 2.3-.2 3.2.1 2.7.8-.4.7.8 1.7 2.9 2.6 3.6 1.5 5.6 3.5 3.5 3.5-.7 0-1 .3-.7.6.4.3 1.6 0 2.8-.6 1.8-1 2.4-.9 3.2.1.7 1.1 1.1 1.1 1.5.1.2-.6.9-1.2 1.4-1.2.6 0 .8.4.5.9s.5 1.2 1.9 1.5c2.3.6 7.4 4.6 5.9 4.6-.4 0-.1.7.6 1.5 1.1 1.3 1.6 1.3 4.3-.2 1.7-.8 3.7-2.2 4.5-2.9 1.7-1.7 3.2-1.8 3.2-.2 0 1 .2 1 .8 0 .5-.7 1.6-1 2.5-.6 1 .3 1.7.1 1.7-.5s1.1-1.1 2.5-1.1c1.3 0 3.5-1.1 4.9-2.5 1.7-1.6 2.6-2 3-1.2.5 1.2.6 1.1 3.5-3.2 1.6-2.5 7.2-2.3 11.3.4 5.5 3.7 12.7 3 11.1-1.1-.4-1 .3-1.4 2.4-1.4h2.9l-.7-6.3c-.5-4.6-2.1-9.1-6.4-17.7-5.6-11.2-5.8-11.8-6.1-21-.4-9.2-1.8-14.3-7.5-26.5-4.7-10-10.5-14.4-21.8-16.5-6.8-1.3-8.7-1.2-13.6.6m-.5 101.9c0 .3-.2.5-.5.5s-.5-.2-.5-.5.2-.5.5-.5.5.2.5.5"/><path d="M3697 2381c0 .7.3 1 .7.7.3-.4.3-1 0-1.4-.4-.3-.7 0-.7.7m-13.4 3.7c-.6 1.4-.5 1.5.5.6.7-.7 1-1.5.7-1.8s-.9.2-1.2 1.2m40.4.8c0 .3.2.5.5.5s.5-.2.5-.5-.2-.5-.5-.5-.5.2-.5.5m26.2 9c-.7.8-.9 1.5-.4 1.5s1.5-.7 2.2-1.5c1.6-1.9-.1-1.9-1.8 0m2.8 1c0 .3.2.5.5.5s.5-.2.5-.5-.2-.5-.5-.5-.5.2-.5.5m758.3 246c0 3.8.2 5.3.4 3.2.2-2 .2-5.2 0-7-.2-1.7-.4-.1-.4 3.8m0 27c0 3.8.2 5.3.4 3.2.2-2 .2-5.2 0-7-.2-1.7-.4-.1-.4 3.8m-1 26c0 3.3.2 4.5.4 2.7s.2-4.5 0-6-.4 0-.4 3.3"/></svg>